<svg xmlns="http://www.w3.org/2000/svg" xmlns:xlink="http://www.w3.org/1999/xlink" fill="none" version="1.1" width="33.46849060058594" height="50.5589599609375" viewBox="0 0 33.46849060058594 50.5589599609375"><defs><linearGradient x1="0.06558798998594284" y1="0.10347700119018555" x2="0.06558798998594284" y2="0.9723010063171387" id="master_svg0_25_2244"><stop offset="0%" stop-color="#3BEAFB" stop-opacity="0"/><stop offset="52.8633177280426%" stop-color="#3BEAFB" stop-opacity="0.4000000059604645"/><stop offset="100%" stop-color="#3BEAFB" stop-opacity="1"/></linearGradient><linearGradient x1="0.06558798998594284" y1="0.10347700119018555" x2="0.06558798998594284" y2="0.9723010063171387" id="master_svg1_25_2244"><stop offset="0%" stop-color="#3BEAFB" stop-opacity="0"/><stop offset="52.8633177280426%" stop-color="#3BEAFB" stop-opacity="0.4000000059604645"/><stop offset="100%" stop-color="#3BEAFB" stop-opacity="1"/></linearGradient><linearGradient x1="0.04066199064254761" y1="0" x2="0.04066199064254761" y2="0.9186760187149048" id="master_svg2_25_2241"><stop offset="0%" stop-color="#3BEAFB" stop-opacity="0"/><stop offset="100%" stop-color="#3BEAFB" stop-opacity="1"/></linearGradient><linearGradient x1="0.04066199064254761" y1="0" x2="0.04066199064254761" y2="0.9186760187149048" id="master_svg3_25_2241"><stop offset="0%" stop-color="#3BEAFB" stop-opacity="0"/><stop offset="100%" stop-color="#3BEAFB" stop-opacity="1"/></linearGradient></defs><g><g transform="matrix(-1,2.4492937051703357e-16,2.4492937051703357e-16,1,65.94586181640625,-8.076039211447831e-15)" style="opacity:0.4559384286403656;"><path d="M54.82903090820312,0.090609C60.548030908203124,0.136086,65.16023090820312,4.78508,65.16023090820312,10.5043C65.16023090820312,10.5043,65.16023090820312,45.0873,65.16023090820312,45.0873C65.16023090820312,45.0873,64.85613090820313,45.2998,64.85613090820313,45.2998C55.20913090820312,52.0395,42.306560908203124,51.7487,32.972930908203125,44.5812C32.972930908203125,44.5812,32.972930908203125,10.414,32.972930908203125,10.414C32.972930908203125,4.63011,37.68601090820312,-0.0456506,43.46963090820313,0.000336332C43.46963090820313,0.000336332,54.82903090820312,0.090609,54.82903090820312,0.090609C54.82903090820312,0.090609,54.82903090820312,0.090609,54.82903090820312,0.090609C54.82903090820312,0.090609,54.82903090820312,0.090609,54.82903090820312,0.090609Z" fill-rule="evenodd" fill="url(#master_svg0_25_2244)" fill-opacity="1"/></g><g transform="matrix(-1,2.4492937051703357e-16,2.4492937051703357e-16,1,53.429283142089844,-6.543376951384516e-15)" style="opacity:0.4559384286403656;"><path d="M46.38494157104492,39.80151998876333C40.22014157104492,42.267819988763335,33.34116157104492,42.259219988763334,27.182538571044923,39.777419988763334C27.182538571044923,39.777419988763334,26.714641571044922,39.58891998876333,26.714641571044922,39.58891998876333C26.714641571044922,39.58891998876333,26.714641571044922,9.858889988763332,26.714641571044922,9.858889988763332C26.714641571044922,4.3855299887633326,31.18304157104492,-0.03485661123666763,36.65607157104492,0.024307031763332366C42.046041571044924,0.08259598876333236,46.38494157104492,4.468569988763332,46.38494157104492,9.858889988763332C46.38494157104492,9.858889988763332,46.38494157104492,39.80151998876333,46.38494157104492,39.80151998876333C46.38494157104492,39.80151998876333,46.38494157104492,39.80151998876333,46.38494157104492,39.80151998876333C46.38494157104492,39.80151998876333,46.38494157104492,39.80151998876333,46.38494157104492,39.80151998876333Z" fill-rule="evenodd" fill="url(#master_svg1_25_2244)" fill-opacity="1"/></g><g><path d="M16.980412227630616,33.72290802001953C22.824612227630617,33.72290802001953,27.562312227630617,35.60748802001953,27.562312227630617,37.93221802001953C27.562312227630617,40.25695802001953,22.824612227630617,42.141528020019535,16.980412227630616,42.141528020019535C11.136122227630615,42.141528020019535,6.398412227630615,40.25695802001953,6.398412227630615,37.93221802001953C6.398412227630615,35.60748802001953,11.136122227630615,33.72290802001953,16.980412227630616,33.72290802001953ZM16.980412227630616,35.72290802001953Q12.980382227630615,35.72290802001953,10.237032227630616,36.81415802001953Q9.126112227630616,37.25605802001953,8.600172227630615,37.75068802001953Q8.491982227630615,37.852438020019534,8.433762227630616,37.93221802001953Q8.491982227630615,38.01199802001953,8.600172227630615,38.11374802001953Q9.126112227630616,38.60837802001953,10.237032227630616,39.05027802001953Q12.980372227630614,40.14152802001953,16.980412227630616,40.14152802001953Q20.980412227630616,40.14152802001953,23.723712227630614,39.05027802001953Q24.834612227630615,38.60837802001953,25.360512227630615,38.11375802001953Q25.468712227630615,38.01200802001953,25.527012227630614,37.93221802001953Q25.468712227630615,37.852438020019534,25.360512227630615,37.75068802001953Q24.834612227630615,37.25605802001953,23.723712227630614,36.81415802001953Q20.980412227630616,35.72290802001953,16.980412227630616,35.72290802001953Z" fill-rule="evenodd" fill="url(#master_svg2_25_2241)" fill-opacity="1"/></g><g><path d="M16.7343,37.188114166259766C25.9763,37.188114166259766,33.4685,40.181264166259766,33.4685,43.87349416625977C33.4685,47.56571416625977,25.9763,50.55891416625977,16.7343,50.55891416625977C7.49219,50.55891416625977,0,47.56571416625977,0,43.87349416625977C0,40.181264166259766,7.49219,37.188114166259766,16.7343,37.188114166259766ZM16.7343,39.188114166259766Q10.1874,39.188114166259766,5.64334,41.00349416625976Q3.68136,41.787304166259766,2.68837,42.72521416625977Q2,43.37539416625977,2,43.87349416625977Q2,44.37159416625977,2.68838,45.02178416625976Q3.68137,45.959694166259766,5.64335,46.743514166259764Q10.1875,48.55891416625977,16.7343,48.55891416625977Q23.2811,48.55891416625977,27.8252,46.743514166259764Q29.7871,45.959694166259766,30.7801,45.02178416625976Q31.4685,44.37159416625977,31.4685,43.87349416625977Q31.4685,43.37539416625977,30.7801,42.725204166259765Q29.7871,41.78731416625976,27.8252,41.00349416625976Q23.2811,39.188114166259766,16.7343,39.188114166259766Z" fill-rule="evenodd" fill="url(#master_svg3_25_2241)" fill-opacity="1"/></g></g></svg>