<svg xmlns="http://www.w3.org/2000/svg" xmlns:xlink="http://www.w3.org/1999/xlink" fill="none" version="1.1" width="204.97021484375" height="27.022705078125" viewBox="0 0 204.97021484375 27.022705078125"><defs><filter id="master_svg0_5_0415" filterUnits="objectBoundingBox" color-interpolation-filters="sRGB" x="-0.6492548235680375" y="-5.293311195333668" width="2.298509647136075" height="11.586622390667335"><feFlood flood-opacity="0" result="BackgroundImageFix"/><feColorMatrix in="SourceAlpha" type="matrix" values="0 0 0 0 0 0 0 0 0 0 0 0 0 0 0 0 0 0 127 0"/><feOffset dy="0" dx="0"/><feGaussianBlur stdDeviation="4"/><feColorMatrix type="matrix" values="0 0 0 0 1 0 0 0 0 0.5833333134651184 0 0 0 0 0 0 0 0 0.4973776340484619 0"/><feBlend mode="normal" in2="BackgroundImageFix" result="effect1_dropShadow"/><feBlend mode="normal" in="SourceGraphic" in2="effect1_dropShadow" result="shape"/></filter></defs><g><g><g transform="matrix(-1,0,0,1,253.68695068359375,0)"><path d="M134.61397534179687,9.7960205078125C134.61397534179687,9.7960205078125,139.01297534179687,9.7960205078125,139.01297534179687,9.7960205078125C139.01297534179687,9.7960205078125,131.24241534179689,17.2266805078125,131.24241534179689,17.2266805078125C131.24241534179689,17.2266805078125,126.84347534179688,17.2266805078125,126.84347534179688,17.2266805078125C126.84347534179688,17.2266805078125,134.61397534179687,9.7960205078125,134.61397534179687,9.7960205078125C134.61397534179687,9.7960205078125,134.61397534179687,9.7960205078125,134.61397534179687,9.7960205078125Z" fill-rule="evenodd" fill="#00687C" fill-opacity="1"/></g><g transform="matrix(-1,0,0,1,279.1700744628906,0)"><path d="M147.3555372314453,9.7960205078125C147.3555372314453,9.7960205078125,151.7545372314453,9.7960205078125,151.7545372314453,9.7960205078125C151.7545372314453,9.7960205078125,143.98397723144532,17.2266805078125,143.98397723144532,17.2266805078125C143.98397723144532,17.2266805078125,139.5850372314453,17.2266805078125,139.5850372314453,17.2266805078125C139.5850372314453,17.2266805078125,147.3555372314453,9.7960205078125,147.3555372314453,9.7960205078125C147.3555372314453,9.7960205078125,147.3555372314453,9.7960205078125,147.3555372314453,9.7960205078125Z" fill-rule="evenodd" fill="#00687C" fill-opacity="1"/></g><g transform="matrix(-1,0,0,1,304.6531677246094,0)"><path d="M160.0970838623047,9.7960205078125C160.0970838623047,9.7960205078125,164.4960838623047,9.7960205078125,164.4960838623047,9.7960205078125C164.4960838623047,9.7960205078125,156.7255238623047,17.2266805078125,156.7255238623047,17.2266805078125C156.7255238623047,17.2266805078125,152.3265838623047,17.2266805078125,152.3265838623047,17.2266805078125C152.3265838623047,17.2266805078125,160.0970838623047,9.7960205078125,160.0970838623047,9.7960205078125C160.0970838623047,9.7960205078125,160.0970838623047,9.7960205078125,160.0970838623047,9.7960205078125Z" fill-rule="evenodd" fill="#00687C" fill-opacity="1"/></g><g transform="matrix(-1,0,0,1,177.2375946044922,0)"><path d="M96.38929730224609,9.7960205078125C96.38929730224609,9.7960205078125,100.7882973022461,9.7960205078125,100.7882973022461,9.7960205078125C100.7882973022461,9.7960205078125,93.01773730224609,17.2266805078125,93.01773730224609,17.2266805078125C93.01773730224609,17.2266805078125,88.6187973022461,17.2266805078125,88.6187973022461,17.2266805078125C88.6187973022461,17.2266805078125,96.38929730224609,9.7960205078125,96.38929730224609,9.7960205078125C96.38929730224609,9.7960205078125,96.38929730224609,9.7960205078125,96.38929730224609,9.7960205078125Z" fill-rule="evenodd" fill="#00687C" fill-opacity="1"/></g><g transform="matrix(-1,0,0,1,202.72071838378906,0)"><path d="M109.13085919189453,9.7960205078125C109.13085919189453,9.7960205078125,113.52985919189453,9.7960205078125,113.52985919189453,9.7960205078125C113.52985919189453,9.7960205078125,105.75929919189453,17.2266805078125,105.75929919189453,17.2266805078125C105.75929919189453,17.2266805078125,101.36035919189453,17.2266805078125,101.36035919189453,17.2266805078125C101.36035919189453,17.2266805078125,109.13085919189453,9.7960205078125,109.13085919189453,9.7960205078125C109.13085919189453,9.7960205078125,109.13085919189453,9.7960205078125,109.13085919189453,9.7960205078125Z" fill-rule="evenodd" fill="#00687C" fill-opacity="1"/></g><g transform="matrix(-1,0,0,1,228.20382690429688,0)"><path d="M121.87241345214844,9.7960205078125C121.87241345214844,9.7960205078125,126.27141345214844,9.7960205078125,126.27141345214844,9.7960205078125C126.27141345214844,9.7960205078125,118.50085345214843,17.2266805078125,118.50085345214843,17.2266805078125C118.50085345214843,17.2266805078125,114.10191345214844,17.2266805078125,114.10191345214844,17.2266805078125C114.10191345214844,17.2266805078125,121.87241345214844,9.7960205078125,121.87241345214844,9.7960205078125C121.87241345214844,9.7960205078125,121.87241345214844,9.7960205078125,121.87241345214844,9.7960205078125Z" fill-rule="evenodd" fill="#00687C" fill-opacity="1"/></g><g transform="matrix(-1,0,0,1,100.78825378417969,0)"><path d="M58.16462689208984,9.7960205078125C58.16462689208984,9.7960205078125,62.56362689208984,9.7960205078125,62.56362689208984,9.7960205078125C62.56362689208984,9.7960205078125,54.79306689208984,17.2266805078125,54.79306689208984,17.2266805078125C54.79306689208984,17.2266805078125,50.394126892089844,17.2266805078125,50.394126892089844,17.2266805078125C50.394126892089844,17.2266805078125,58.16462689208984,9.7960205078125,58.16462689208984,9.7960205078125C58.16462689208984,9.7960205078125,58.16462689208984,9.7960205078125,58.16462689208984,9.7960205078125Z" fill-rule="evenodd" fill="#00687C" fill-opacity="1"/></g><g transform="matrix(-1,0,0,1,126.27136993408203,0)"><path d="M70.90618496704101,9.7960205078125C70.90618496704101,9.7960205078125,75.30518496704101,9.7960205078125,75.30518496704101,9.7960205078125C75.30518496704101,9.7960205078125,67.53462496704101,17.2266805078125,67.53462496704101,17.2266805078125C67.53462496704101,17.2266805078125,63.135684967041016,17.2266805078125,63.135684967041016,17.2266805078125C63.135684967041016,17.2266805078125,70.90618496704101,9.7960205078125,70.90618496704101,9.7960205078125C70.90618496704101,9.7960205078125,70.90618496704101,9.7960205078125,70.90618496704101,9.7960205078125Z" fill-rule="evenodd" fill="#00687C" fill-opacity="1"/></g><g transform="matrix(-1,0,0,1,151.75448608398438,0)"><path d="M83.64774304199219,9.7960205078125C83.64774304199219,9.7960205078125,88.04674304199219,9.7960205078125,88.04674304199219,9.7960205078125C88.04674304199219,9.7960205078125,80.27618304199218,17.2266805078125,80.27618304199218,17.2266805078125C80.27618304199218,17.2266805078125,75.87724304199219,17.2266805078125,75.87724304199219,17.2266805078125C75.87724304199219,17.2266805078125,83.64774304199219,9.7960205078125,83.64774304199219,9.7960205078125C83.64774304199219,9.7960205078125,83.64774304199219,9.7960205078125,83.64774304199219,9.7960205078125Z" fill-rule="evenodd" fill="#00687C" fill-opacity="1"/></g><g transform="matrix(-1,0,0,1,49.8220329284668,0)"><path d="M32.6815164642334,9.7960205078125C32.6815164642334,9.7960205078125,37.0805164642334,9.7960205078125,37.0805164642334,9.7960205078125C37.0805164642334,9.7960205078125,29.309956464233398,17.2266805078125,29.309956464233398,17.2266805078125C29.309956464233398,17.2266805078125,24.9110164642334,17.2266805078125,24.9110164642334,17.2266805078125C24.9110164642334,17.2266805078125,32.6815164642334,9.7960205078125,32.6815164642334,9.7960205078125C32.6815164642334,9.7960205078125,32.6815164642334,9.7960205078125,32.6815164642334,9.7960205078125Z" fill-rule="evenodd" fill="#00687C" fill-opacity="1"/></g><g transform="matrix(-1,0,0,1,75.30514526367188,0)"><path d="M45.423072631835936,9.7960205078125C45.423072631835936,9.7960205078125,49.82207263183594,9.7960205078125,49.82207263183594,9.7960205078125C49.82207263183594,9.7960205078125,42.051512631835934,17.2266805078125,42.051512631835934,17.2266805078125C42.051512631835934,17.2266805078125,37.65257263183594,17.2266805078125,37.65257263183594,17.2266805078125C37.65257263183594,17.2266805078125,45.423072631835936,9.7960205078125,45.423072631835936,9.7960205078125C45.423072631835936,9.7960205078125,45.423072631835936,9.7960205078125,45.423072631835936,9.7960205078125Z" fill-rule="evenodd" fill="#00687C" fill-opacity="1"/></g><g transform="matrix(-1,0,0,1,24.338918685913086,0)"><path d="M19.93995934295654,9.7960205078125C19.93995934295654,9.7960205078125,24.338959342956542,9.7960205078125,24.338959342956542,9.7960205078125C24.338959342956542,9.7960205078125,16.568399342956543,17.2266805078125,16.568399342956543,17.2266805078125C16.568399342956543,17.2266805078125,12.169459342956543,17.2266805078125,12.169459342956543,17.2266805078125C12.169459342956543,17.2266805078125,19.93995934295654,9.7960205078125,19.93995934295654,9.7960205078125C19.93995934295654,9.7960205078125,19.93995934295654,9.7960205078125,19.93995934295654,9.7960205078125Z" fill-rule="evenodd" fill="#00687C" fill-opacity="1"/></g></g><g filter="url(#master_svg0_5_0415)"><path d="M168.3265838623047,12.000011444091797C168.3265838623047,12.000011444091797,189.1788838623047,12.000011444091797,189.1788838623047,12.000011444091797C189.1788838623047,12.000011444091797,192.97018386230468,15.022691444091796,192.97018386230468,15.022691444091796C192.97018386230468,15.022691444091796,172.11791386230468,15.022691444091796,172.11791386230468,15.022691444091796C172.11791386230468,15.022691444091796,168.3265838623047,12.000011444091797,168.3265838623047,12.000011444091797C168.3265838623047,12.000011444091797,168.3265838623047,12.000011444091797,168.3265838623047,12.000011444091797Z" fill-rule="evenodd" fill="#DBB36E" fill-opacity="1"/></g></g></svg>