<svg xmlns="http://www.w3.org/2000/svg" xmlns:xlink="http://www.w3.org/1999/xlink" fill="none" version="1.1" width="66.418701171875" height="16.8262939453125" viewBox="0 0 66.418701171875 16.8262939453125"><defs><linearGradient x1="0.5" y1="0" x2="0.5" y2="1" id="master_svg0_5_0627"><stop offset="0%" stop-color="#FFFFFF" stop-opacity="1"/><stop offset="100%" stop-color="#FFFFFF" stop-opacity="0"/></linearGradient><linearGradient x1="0.5" y1="0" x2="0.5" y2="1" id="master_svg1_5_0627"><stop offset="0%" stop-color="#FFFFFF" stop-opacity="1"/><stop offset="100%" stop-color="#FFFFFF" stop-opacity="0"/></linearGradient><linearGradient x1="0.5" y1="0" x2="0.5" y2="1" id="master_svg2_5_0627"><stop offset="0%" stop-color="#FFFFFF" stop-opacity="1"/><stop offset="100%" stop-color="#FFFFFF" stop-opacity="0"/></linearGradient><linearGradient x1="0.5" y1="0" x2="0.5" y2="1" id="master_svg3_5_0627"><stop offset="0%" stop-color="#FFFFFF" stop-opacity="1"/><stop offset="100%" stop-color="#FFFFFF" stop-opacity="0"/></linearGradient><linearGradient x1="0.5" y1="0" x2="0.5" y2="1" id="master_svg4_5_0627"><stop offset="0%" stop-color="#FFFFFF" stop-opacity="1"/><stop offset="100%" stop-color="#FFFFFF" stop-opacity="0"/></linearGradient></defs><g style="opacity:0.41999998688697815;mix-blend-mode:overlay" transform="matrix(1,0,0,-1,0,33.652587890625)"><g style="opacity:0.5;"><path d="M44.94258608154297,16.8262939453125C44.94258608154297,16.8262939453125,53.51564608154297,16.82629394531252,53.51564608154297,16.82629394531252C53.51564608154297,16.82629394531252,45.31559608154297,33.6525939453125,45.31559608154297,33.6525939453125C45.31559608154297,33.6525939453125,36.74254608154297,33.6525939453125,36.74254608154297,33.6525939453125C36.74254608154297,33.6525939453125,44.94258608154297,16.8262939453125,44.94258608154297,16.8262939453125C44.94258608154297,16.8262939453125,44.94258608154297,16.8262939453125,44.94258608154297,16.8262939453125Z" fill-rule="evenodd" fill="url(#master_svg0_5_0627)" fill-opacity="1"/></g><g style="opacity:0.4122256338596344;"><path d="M32.69506944946289,16.8262939453125C32.69506944946289,16.8262939453125,41.26812944946289,16.82629394531252,41.26812944946289,16.82629394531252C41.26812944946289,16.82629394531252,33.06807944946289,33.6525939453125,33.06807944946289,33.6525939453125C33.06807944946289,33.6525939453125,24.49502944946289,33.6525939453125,24.49502944946289,33.6525939453125C24.49502944946289,33.6525939453125,32.69506944946289,16.8262939453125,32.69506944946289,16.8262939453125C32.69506944946289,16.8262939453125,32.69506944946289,16.8262939453125,32.69506944946289,16.8262939453125Z" fill-rule="evenodd" fill="url(#master_svg1_5_0627)" fill-opacity="1"/></g><g style="opacity:0.4122256338596344;"><path d="M20.447554724731447,16.8262939453125C20.447554724731447,16.8262939453125,29.020614724731445,16.826293945312518,29.020614724731445,16.826293945312518C29.020614724731445,16.826293945312518,20.820564724731447,33.6525939453125,20.820564724731447,33.6525939453125C20.820564724731447,33.6525939453125,12.247514724731445,33.6525939453125,12.247514724731445,33.6525939453125C12.247514724731445,33.6525939453125,20.447554724731447,16.8262939453125,20.447554724731447,16.8262939453125C20.447554724731447,16.8262939453125,20.447554724731447,16.8262939453125,20.447554724731447,16.8262939453125Z" fill-rule="evenodd" fill="url(#master_svg2_5_0627)" fill-opacity="1"/></g><g style="opacity:0.4122256338596344;"><path d="M8.12714,16.8262939453125C8.12714,16.8262939453125,16.5903,16.826293945312518,16.5903,16.826293945312518C16.5903,16.826293945312518,8.46315,33.6525939453125,8.46315,33.6525939453125C8.46315,33.6525939453125,0,33.6525939453125,0,33.6525939453125C0,33.6525939453125,8.12714,16.8262939453125,8.12714,16.8262939453125C8.12714,16.8262939453125,8.12714,16.8262939453125,8.12714,16.8262939453125Z" fill-rule="evenodd" fill="url(#master_svg3_5_0627)" fill-opacity="1"/></g><g><path d="M57.955562546386716,16.8262939453125C57.955562546386716,16.8262939453125,66.41872254638672,16.826293945312507,66.41872254638672,16.826293945312507C66.41872254638672,16.826293945312507,58.29157254638672,33.6525939453125,58.29157254638672,33.6525939453125C58.29157254638672,33.6525939453125,49.82842254638672,33.6525939453125,49.82842254638672,33.6525939453125C49.82842254638672,33.6525939453125,57.955562546386716,16.8262939453125,57.955562546386716,16.8262939453125C57.955562546386716,16.8262939453125,57.955562546386716,16.8262939453125,57.955562546386716,16.8262939453125Z" fill-rule="evenodd" fill="url(#master_svg4_5_0627)" fill-opacity="1"/></g></g></svg>