<svg xmlns="http://www.w3.org/2000/svg" xmlns:xlink="http://www.w3.org/1999/xlink" fill="none" version="1.1" width="116.45712280273438" height="116.45712280273438" viewBox="0 0 116.45712280273438 116.45712280273438"><defs><radialGradient cx="0" cy="0" r="1" gradientUnits="userSpaceOnUse" id="master_svg0_5_1311" gradientTransform="translate(58.22855793067447 58.228568342752624) rotate(53.13009689000471) scale(58.22856209550599 58.22856209550599)"><stop offset="0.12137448647990823%" stop-color="#00CEFF" stop-opacity="1"/><stop offset="66.04798436164856%" stop-color="#1890FF" stop-opacity="1"/></radialGradient></defs><g style="opacity:0.800000011920929;"><path d="M58.2738,2.00002L58.2746,0.0000182192L58.2286,0Q57.2778,0,56.3275,0.0310421L56.3928,2.02998Q57.3104,2,58.2286,2L58.2738,2.00002ZM62.195,0.135254Q61.2099,0.0679875,60.223,0.034165L60.1544,2.03299Q61.1075,2.06565,62.0588,2.13061L62.195,0.135254ZM54.3565,0.128887Q53.3591,0.195359,52.3645,0.296025L52.566,2.28586Q53.5263,2.18865,54.4894,2.12446L54.3565,0.128887ZM66.1982,0.547966Q65.1951,0.40938,64.1879,0.305751L63.9832,2.29525Q64.9558,2.39532,65.9244,2.52915L66.1982,0.547966ZM50.355,0.534776Q49.3405,0.673235,48.3314,0.84728L48.6713,2.81818Q49.6457,2.65012,50.6255,2.51641L50.355,0.534776ZM70.1757,1.23882Q69.2022,1.03474,68.2224,0.864031L67.8791,2.83435Q68.8253,2.9992,69.7654,3.19626L70.1757,1.23882ZM46.373,1.2197Q45.4068,1.42062,44.4481,1.65415L44.9214,3.59733Q45.8472,3.37182,46.7802,3.17781L46.373,1.2197ZM74.0281,2.18446Q73.0688,1.91402,72.1008,1.67657L71.6243,3.61899Q72.559,3.84828,73.4854,4.10943L74.0281,2.18446ZM42.5208,2.15868Q41.5528,2.42986,40.5948,2.73428L41.2005,4.64037Q42.1256,4.34639,43.0603,4.08453L42.5208,2.15868ZM77.8747,3.41438Q76.92,3.0722,75.954,2.76348L75.3451,4.66856Q76.278,4.96668,77.1999,5.29711L77.8747,3.41438ZM38.6737,3.38175Q37.7119,3.72466,36.7628,4.10108L37.5,5.96022Q38.4166,5.59672,39.3454,5.26559L38.6737,3.38175ZM81.6049,4.89832Q80.6997,4.50154,79.7815,4.13571L79.0412,5.99366Q79.9278,6.34693,80.802,6.73008L81.6049,4.89832ZM34.9388,4.8605Q34.0273,5.25823,33.1301,5.68686L33.9921,7.49154Q34.8586,7.07763,35.7387,6.69354L34.9388,4.8605ZM85.2016,6.62409Q84.3149,6.16061,83.4127,5.72787L82.5477,7.53114Q83.4189,7.94902,84.2751,8.39657L85.2016,6.62409ZM31.3402,6.57991Q30.4483,7.04427,29.5729,7.53915L30.5571,9.28019Q31.4025,8.80231,32.2638,8.35391L31.3402,6.57991ZM88.7077,8.61419Q87.8467,8.08522,86.9678,7.58646L85.9806,9.32587Q86.8293,9.80751,87.6609,10.3183L88.7077,8.61419ZM27.8316,8.5638Q26.9689,9.09181,26.125,9.64948L27.2277,11.318Q28.0426,10.7795,28.8756,10.2697L27.8316,8.5638ZM92.0536,10.832Q91.2421,10.2529,90.4111,9.70179L89.3057,11.3685Q90.1082,11.9007,90.8919,12.46L92.0536,10.832ZM24.4809,10.7769Q23.6662,11.3563,22.8718,11.9634L24.0862,13.5525Q24.8533,12.9663,25.6401,12.4067L24.4809,10.7769ZM95.2301,13.268Q94.4563,12.6312,93.661,12.0213L92.444,13.6084Q93.2118,14.1972,93.9592,14.8123L95.2301,13.268ZM21.3008,13.2074Q20.5248,13.8439,19.7711,14.5069L21.092,16.0086Q21.8198,15.3684,22.5692,14.7537L21.3008,13.2074ZM98.2413,15.9256Q97.5113,15.235,96.7578,14.5701L95.4344,16.0697Q96.1621,16.7118,96.867,17.3786L98.2413,15.9256ZM18.2854,15.8599Q17.5538,16.5495,16.8465,17.264L18.2679,18.6711Q18.9509,17.9811,19.6573,17.3151L18.2854,15.8599ZM101.065,18.7873Q100.384,18.0477,99.6779,17.3321L98.2542,18.7368Q98.936,19.4278,99.5936,20.142L101.065,18.7873ZM15.4571,18.7169Q14.7754,19.4549,14.1196,20.2159L15.6346,21.5215Q16.268,20.7866,16.9262,20.074L15.4571,18.7169ZM103.681,21.8325Q103.054,21.0494,102.4,20.2883L100.883,21.5915Q101.514,22.3264,102.119,23.0826L103.681,21.8325ZM12.8362,21.758Q12.209,22.5387,11.6089,23.3405L13.2102,24.5388Q13.7896,23.7646,14.3953,23.0107L12.8362,21.758ZM106.072,25.0382Q105.502,24.2175,104.905,23.4168L103.302,24.6125Q103.879,25.3858,104.428,26.1782L106.072,25.0382ZM10.4396,24.9602Q9.86878,25.7802,9.32642,26.6193L11.0061,27.705Q11.5298,26.8947,12.081,26.1029L10.4396,24.9602ZM108.25,28.4227Q107.732,27.5523,107.183,26.7005L105.502,27.7834Q106.031,28.6061,106.532,29.4464L108.25,28.4227ZM8.25617,28.34Q7.73825,29.206,7.25064,30.0893L9.0016,31.0558Q9.47247,30.2028,9.97259,29.3666L8.25617,28.34ZM110.189,31.9487Q109.736,31.0529,109.253,30.1732L107.5,31.1369Q107.967,31.9863,108.405,32.8513L110.189,31.9487ZM6.31077,31.8637Q5.85862,32.754,5.43726,33.6594L7.2505,34.5033Q7.6574,33.629,8.09401,32.7692L6.31077,31.8637ZM111.863,35.5597Q111.477,34.6457,111.06,33.7453L109.245,34.5863Q109.648,35.4555,110.021,36.3383L111.863,35.5597ZM4.63054,35.473Q4.24078,36.391,3.88269,37.3218L5.74933,38.0399Q6.09512,37.1411,6.47149,36.2546L4.63054,35.473ZM113.304,39.3285Q112.974,38.3645,112.609,37.4127L110.741,38.1277Q111.093,39.0469,111.413,39.9776L113.304,39.3285ZM3.18413,39.2371Q2.85428,40.1931,2.55783,41.16L4.46997,41.7463Q4.75625,40.8126,5.07476,39.8894L3.18413,39.2371ZM114.479,43.1786Q114.22,42.2104,113.927,41.2517L112.014,41.8348Q112.296,42.7604,112.547,43.6955L114.479,43.1786ZM2.00318,43.0868Q1.74483,44.0462,1.51935,45.0137L3.46717,45.4676Q3.68491,44.5333,3.93438,43.6069L2.00318,43.0868ZM115.37,47.0287Q115.181,46.0636,114.959,45.1054L113.01,45.5562Q113.225,46.4814,113.407,47.4133L115.37,47.0287ZM1.10526,46.9373Q0.90923,47.929,0.747743,48.9269L2.72206,49.2464Q2.878,48.2827,3.0673,47.3251L1.10526,46.9373ZM116.012,51.0426Q115.886,50.0304,115.725,49.0233L113.75,49.3395Q113.906,50.3118,114.027,51.2894L116.012,51.0426ZM0.457108,50.9468Q0.331004,51.9472,0.239617,52.9515L2.23139,53.1327Q2.31963,52.163,2.44141,51.1969L0.457108,50.9468ZM116.369,55.0316Q116.315,54.0378,116.226,53.0465L114.234,53.2244Q114.32,54.1818,114.372,55.1414L116.369,55.0316ZM0.0930752,54.9376Q0.0375135,55.9191,0.0151154,56.9019L2.0146,56.9475Q2.03623,55.9984,2.08988,55.0506L0.0930752,54.9376ZM116.457,58.2286Q116.457,57.6116,116.444,56.9948L114.445,57.0372Q114.457,57.6328,114.457,58.2286Q114.457,59.1692,114.426,60.1094L116.425,60.1763Q116.457,59.2027,116.457,58.2286ZM0.00325406,58.8442Q0.0135966,59.8224,0.0567957,60.7998L2.05484,60.7115Q2.01313,59.7677,2.00314,58.823L0.00325406,58.8442ZM116.156,64.1402Q116.258,63.1455,116.325,62.1479L114.33,62.0132Q114.265,62.9765,114.167,63.9372L116.156,64.1402ZM0.178018,62.7783Q0.256456,63.7791,0.369344,64.7766L2.35666,64.5517Q2.24765,63.5884,2.1719,62.622L0.178018,62.7783ZM115.601,68.174Q115.776,67.1648,115.916,66.1501L113.934,65.878Q113.8,66.8579,113.631,67.8325L115.601,68.174ZM0.633033,66.7913Q0.784199,67.8081,0.971161,68.8189L2.9378,68.4552Q2.75726,67.4791,2.61129,66.4972L0.633033,66.7913ZM114.792,72.0549Q115.026,71.0961,115.228,70.1299L113.27,69.7211Q113.075,70.6542,112.849,71.5801L114.792,72.0549ZM1.36016,70.7406Q1.57291,71.7075,1.8184,72.6667L3.75594,72.1708Q3.51888,71.2445,3.31345,70.3108L1.36016,70.7406ZM113.708,75.9082Q114.014,74.9502,114.286,73.9822L112.36,73.4411Q112.097,74.3758,111.803,75.3009L113.708,75.9082ZM2.34708,74.5939Q2.63044,75.5615,2.94714,76.5187L4.84591,75.8905Q4.54011,74.9662,4.26646,74.0318L2.34708,74.5939ZM112.339,79.7379Q112.716,78.7898,113.059,77.8291L111.176,77.1559Q110.844,78.0835,110.48,78.9991L112.339,79.7379ZM3.61926,78.4372Q3.96968,79.3841,4.35271,80.3183L6.20321,79.5596Q5.83332,78.6575,5.49494,77.7431L3.61926,78.4372ZM110.75,83.3699Q111.179,82.4728,111.578,81.5616L109.745,80.7602Q109.36,81.6403,108.946,82.5064L110.75,83.3699ZM5.13499,82.1375Q5.54415,83.0461,5.98416,83.9402L7.77862,83.0571Q7.35373,82.1937,6.95861,81.3163L5.13499,82.1375ZM108.894,86.926Q109.39,86.0509,109.855,85.1593L108.082,84.2342Q107.633,85.0954,107.154,85.9404L108.894,86.926ZM6.89987,85.7228Q7.37548,86.6107,7.88152,87.4816L9.61082,86.4769Q9.12216,85.6358,8.66286,84.7784L6.89987,85.7228ZM106.782,90.3716Q107.34,89.5286,107.868,88.6667L106.163,87.6212Q105.653,88.4534,105.114,89.2676L106.782,90.3716ZM8.92827,89.2132Q9.46334,90.0645,10.0275,90.8969L11.6831,89.7749Q11.1383,88.9711,10.6216,88.1489L8.92827,89.2132ZM104.465,93.6232Q105.073,92.8293,105.653,92.0149L104.024,90.8545Q103.464,91.6407,102.877,92.4074L104.465,93.6232ZM11.1752,92.5294Q11.7647,93.338,12.3816,94.1259L13.9563,92.8929Q13.3607,92.1322,12.7914,91.3513L11.1752,92.5294ZM101.919,96.722Q102.582,95.9688,103.219,95.1932L101.674,93.9235Q101.059,94.6727,100.418,95.3998L101.919,96.722ZM13.6447,95.6831Q14.2906,96.452,14.9627,97.1982L16.4488,95.8597Q15.7998,95.1391,15.176,94.3966L13.6447,95.6831ZM99.159,99.6443Q99.8741,98.9376,100.564,98.2066L99.1103,96.8335Q98.4438,97.5392,97.7532,98.2217L99.159,99.6443ZM16.3334,98.6682Q17.0317,99.3916,17.7545,100.09L19.1447,98.6526Q18.4467,97.9777,17.7724,97.2792L16.3334,98.6682ZM96.205,102.369Q96.9666,101.714,97.705,101.032L96.3491,99.5623Q95.6358,100.22,94.9007,100.853L96.205,102.369ZM19.2234,101.462Q19.969,102.135,20.7374,102.782L22.0252,101.251Q21.2833,100.627,20.5631,99.9774L19.2234,101.462ZM93.0785,104.877Q93.8807,104.277,94.6619,103.651L93.4104,102.091Q92.656,102.696,91.8815,103.274L93.0785,104.877ZM22.2937,104.046Q23.0811,104.664,23.8892,105.254L25.0687,103.639Q24.2883,103.069,23.528,102.472L22.2937,104.046ZM89.7972,107.157Q90.6371,106.615,91.4579,106.045L90.3165,104.402Q89.5239,104.953,88.7129,105.476L89.7972,107.157ZM25.5209,106.403Q26.3525,106.968,27.2031,107.503L28.2687,105.811Q27.4474,105.294,26.6443,104.748L25.5209,106.403ZM86.3258,109.23Q87.2095,108.743,88.0758,108.226L87.0506,106.508Q86.2142,107.008,85.3608,107.478L86.3258,109.23ZM28.9339,108.551Q29.8046,109.058,30.6922,109.535L31.638,107.772Q30.7808,107.312,29.9401,106.823L28.9339,108.551ZM82.7548,111.04Q83.6603,110.619,84.551,110.168L83.6469,108.384Q82.7869,108.82,81.9123,109.226L82.7548,111.04ZM32.4742,110.452Q33.3681,110.893,34.2765,111.303L35.0991,109.48Q34.2218,109.084,33.3589,108.658L32.4742,110.452ZM79.0898,112.592Q80.0217,112.234,80.9408,111.845L80.1607,110.003Q79.273,110.379,78.3733,110.725L79.0898,112.592ZM36.0953,112.087Q37.0285,112.47,37.9743,112.821L38.67,110.946Q37.7566,110.607,36.8555,110.237L36.0953,112.087ZM75.2513,113.913Q76.2182,113.618,77.1743,113.289L76.5236,111.398Q75.6002,111.715,74.6665,112.001L75.2513,113.913ZM39.8926,113.495Q40.8498,113.812,41.8173,114.097L42.381,112.178Q41.4467,111.903,40.5224,111.597L39.8926,113.495ZM71.3975,114.948Q72.3651,114.724,73.3244,114.466L72.806,112.535Q71.8795,112.783,70.9452,113L71.3975,114.948ZM43.7446,114.627Q44.7037,114.873,45.6707,115.087L46.1021,113.134Q45.1684,112.928,44.2421,112.69L43.7446,114.627ZM67.482,115.717Q68.4812,115.556,69.4742,115.361L69.0879,113.399Q68.1292,113.587,67.1642,113.743L67.482,115.717ZM47.5923,115.477Q48.602,115.665,49.6177,115.817L49.9134,113.839Q48.9328,113.692,47.9577,113.511L47.5923,115.477ZM63.4582,116.222Q64.4622,116.131,65.4624,116.006L65.2139,114.022Q64.2481,114.142,63.2786,114.23L63.4582,116.222ZM51.6328,116.082Q52.6305,116.196,53.6315,116.275L53.7894,114.282Q52.8226,114.205,51.8594,114.095L51.6328,116.082ZM59.5088,116.443Q60.4913,116.421,61.4725,116.367L61.3611,114.37Q60.4135,114.423,59.4647,114.444L59.5088,116.443ZM55.6105,116.398Q56.5882,116.442,57.5667,116.453L57.5894,114.453Q56.6445,114.443,55.7005,114.4L55.6105,116.398Z" fill-rule="evenodd" fill="url(#master_svg0_5_1311)" fill-opacity="1"/></g></svg>