<svg xmlns="http://www.w3.org/2000/svg" xmlns:xlink="http://www.w3.org/1999/xlink" fill="none" version="1.1" width="125.22274780273438" height="125.22274780273438" viewBox="0 0 125.22274780273438 125.22274780273438"><defs><radialGradient cx="0" cy="0" r="1" gradientUnits="userSpaceOnUse" id="master_svg0_5_1311" gradientTransform="translate(62.61137016943849 62.61138136522459) rotate(53.13009689000471) scale(62.61137464775321 62.61137464775321)"><stop offset="0.12137448647990823%" stop-color="#00CEFF" stop-opacity="1"/><stop offset="66.04798436164856%" stop-color="#1890FF" stop-opacity="1"/></radialGradient></defs><g style="opacity:0.30000001192092896;"><path d="M61.7095,1.00661L61.6948,0.00670858Q60.7,0.0212734,59.7061,0.0674427L59.7525,1.06636Q60.7305,1.02093,61.7095,1.00661ZM65.6569,0.0741146Q64.6622,0.0256744,63.6665,0.00889173L63.6497,1.00875Q64.6295,1.02526,65.6083,1.07293L65.6569,0.0741146ZM57.6955,0.19328Q56.7008,0.271621,55.7091,0.381619L55.8193,1.37552Q56.7952,1.26728,57.774,1.19019L57.6955,0.19328ZM69.6519,0.397104Q68.6619,0.285074,67.6689,0.204599L67.5881,1.20133Q68.5653,1.28052,69.5394,1.39076L69.6519,0.397104ZM53.7308,0.633001Q52.733,0.775964,51.7404,0.950968L51.914,1.93578Q52.8908,1.76357,53.8726,1.62289L53.7308,0.633001ZM73.6222,0.975794Q72.6293,0.798407,71.6311,0.653098L71.4871,1.64267Q72.4693,1.78565,73.4464,1.96021L73.6222,0.975794ZM49.7837,1.32814Q48.8067,1.53265,47.8367,1.7682L48.0726,2.73996Q49.0272,2.50817,49.9886,2.30692L49.7837,1.32814ZM77.5227,1.80153Q76.5526,1.56365,75.5754,1.35683L75.3683,2.33516Q76.3299,2.53868,77.2845,2.77276L77.5227,1.80153ZM45.8872,2.27492Q44.9264,2.54126,43.9744,2.83806L44.2721,3.79273Q45.2089,3.50066,46.1544,3.23859L45.8872,2.27492ZM81.3814,2.87972Q80.4313,2.58116,79.4721,2.31296L79.2029,3.27602Q80.1467,3.53994,81.0816,3.83372L81.3814,2.87972ZM42.0781,3.46268Q41.1279,3.79253,40.1888,4.15272L40.547,5.08639Q41.4711,4.73195,42.406,4.40738L42.0781,3.46268ZM85.166,4.20355Q84.2272,3.84105,83.2774,3.50891L82.9473,4.45287Q83.882,4.77969,84.8057,5.13641L85.166,4.20355ZM38.3354,4.89775Q37.4152,5.28483,36.5078,5.70104L36.9247,6.60998Q37.8176,6.20041,38.7231,5.81954L38.3354,4.89775ZM88.8425,5.75971Q87.9356,5.34129,87.0159,4.952L86.6261,5.87291Q87.5311,6.25595,88.4235,6.66772L88.8425,5.75971ZM34.6964,6.56731Q33.8004,7.01359,32.9191,7.48829L33.3934,8.36869Q34.2606,7.90157,35.1422,7.46241L34.6964,6.56731ZM92.4265,7.55465Q91.5469,7.07834,90.6526,6.63038L90.2048,7.52448Q91.0847,7.96527,91.9503,8.43399L92.4265,7.55465ZM31.1769,8.46292Q30.3099,8.96622,29.4595,9.49701L29.989,10.3453Q30.8258,9.82302,31.6789,9.32775L31.1769,8.46292ZM95.8826,9.5717Q95.0332,9.03885,94.1671,8.53347L93.6631,9.39718Q94.5153,9.89446,95.3512,10.4188L95.8826,9.5717ZM27.776,10.5856Q26.9462,11.1412,26.1345,11.723L26.7171,12.5358Q27.5159,11.9632,28.3324,11.4165L27.776,10.5856ZM99.2021,11.8048Q98.3915,11.2211,97.5628,10.6635L97.0046,11.4932Q97.8201,12.0419,98.6177,12.6163L99.2021,11.8048ZM24.526,12.9154Q23.7301,13.5254,22.9541,14.1605L23.5875,14.9343Q24.3511,14.3094,25.1342,13.7092L24.526,12.9154ZM102.377,14.2493Q101.603,13.6126,100.808,13.0011L100.198,13.7934Q100.98,14.3952,101.742,15.0218L102.377,14.2493ZM21.4276,15.4512Q20.6738,16.1095,19.9415,16.7915L20.623,17.5233Q21.3436,16.8522,22.0854,16.2044L21.4276,15.4512ZM105.384,16.8872Q104.653,16.2036,103.901,15.5436L103.241,16.2953Q103.981,16.9447,104.701,17.6175L105.384,16.8872ZM18.4981,18.1794Q17.7875,18.8849,17.0998,19.6128L17.8267,20.2995Q18.5034,19.5833,19.2027,18.889L18.4981,18.1794ZM108.219,19.7149Q107.533,18.9855,106.824,18.2784L106.118,18.9865Q106.816,19.6825,107.491,20.4L108.219,19.7149ZM15.7486,21.0895Q15.0855,21.8379,14.4466,22.6071L15.2159,23.2461Q15.8446,22.4891,16.4971,21.7526L15.7486,21.0895ZM110.866,22.715Q110.228,21.9444,109.567,21.1946L108.817,21.856Q109.468,22.5939,110.095,23.3522L110.866,22.715ZM13.1913,24.1687Q12.5762,24.9595,11.9867,25.7695L12.7952,26.3579Q13.3753,25.5608,13.9806,24.7827L13.1913,24.1687ZM113.318,25.883Q112.731,25.0718,112.118,24.2798L111.327,24.892Q111.93,25.6712,112.509,26.4696L113.318,25.883ZM10.8367,27.4038Q10.2739,28.2315,9.73788,29.0767L10.5824,29.6123Q11.1099,28.7805,11.6637,27.9661L10.8367,27.4038ZM115.56,29.1957Q115.026,28.3489,114.465,27.5196L113.636,28.0801Q114.188,28.8959,114.715,29.7294L115.56,29.1957ZM8.69052,30.788Q8.18262,31.6486,7.70243,32.525L8.57941,33.0055Q9.05191,32.1432,9.55172,31.2963L8.69052,30.788ZM117.587,32.6476Q117.109,31.7704,116.603,30.909L115.741,31.4153Q116.239,32.2633,116.709,33.1262L117.587,32.6476ZM6.77094,34.2912Q6.31623,35.1878,5.89053,36.0985L6.79645,36.522Q7.21535,35.6258,7.6628,34.7436L6.77094,34.2912ZM119.392,36.2259Q118.968,35.3146,118.516,34.4173L117.623,34.8676Q118.068,35.7505,118.485,36.6473L119.392,36.2259ZM5.07305,37.9228Q4.68042,38.8379,4.31708,39.7649L5.24813,40.1298Q5.60566,39.2176,5.99203,38.3171L5.07305,37.9228ZM120.957,39.8969Q120.596,38.9681,120.205,38.0512L119.285,38.4435Q119.669,39.3456,120.025,40.2597L120.957,39.8969ZM3.61227,41.6521Q3.27748,42.5945,2.97296,43.5472L3.92548,43.8516Q4.22513,42.9143,4.55458,41.9869L3.61227,41.6521ZM122.292,43.6802Q121.99,42.7274,121.657,41.7848L120.714,42.1174Q121.042,43.0448,121.339,43.9825L122.292,43.6802ZM2.39826,45.4485Q2.12162,46.419,1.8764,47.398L2.84643,47.641Q3.08774,46.6776,3.35996,45.7226L2.39826,45.4485ZM123.38,47.5346Q123.138,46.5557,122.863,45.5851L121.901,45.8571Q122.171,46.8121,122.41,47.7754L123.38,47.5346ZM1.42142,49.3458Q1.21124,50.3154,1.03188,51.291L2.0154,51.4718Q2.1919,50.5117,2.39872,49.5577L1.42142,49.3458ZM124.216,51.431Q124.039,50.4536,123.831,49.4823L122.853,49.692Q123.058,50.6477,123.233,51.6096L124.216,51.431ZM0.698704,53.2837Q0.549774,54.2722,0.432479,55.265L1.42557,55.3823Q1.54099,54.4054,1.68754,53.4327L0.698704,53.2837ZM124.806,55.4034Q124.691,54.4111,124.545,53.423L123.556,53.5698Q123.7,54.5423,123.813,55.5185L124.806,55.4034ZM0.230806,57.2403Q0.144152,58.2467,0.090008,59.2553L1.08857,59.3089Q1.14185,58.3164,1.22712,57.326L0.230806,57.2403ZM125.14,59.3959Q125.088,58.3879,125.004,57.3822L124.007,57.4657Q124.09,58.4554,124.141,59.4472L125.14,59.3959ZM0,62.6114Q0,62.9166,0.00297561,63.2218L1.00292,63.212Q1,62.9117,1,62.6114Q1,61.9411,1.01458,61.271L0.0148183,61.2493Q0,61.9302,0,62.6114ZM125.223,62.6114Q125.223,61.9997,125.211,61.3882L124.211,61.4077Q124.223,62.0094,124.223,62.6114Q124.223,63.5847,124.192,64.5575L125.192,64.5891Q125.223,63.6005,125.223,62.6114ZM0.0538233,65.2069Q0.0955053,66.2116,0.169423,67.2143L1.16672,67.1408Q1.09398,66.154,1.05296,65.1655L0.0538233,65.2069ZM124.936,68.5988Q125.032,67.5956,125.096,66.5899L124.098,66.5263Q124.035,67.5157,123.94,68.5032L124.936,68.5988ZM0.348509,69.2083Q0.453403,70.1983,0.58972,71.1845L1.58031,71.0476Q1.44617,70.0772,1.34294,69.103L0.348509,69.2083ZM124.428,72.5556Q124.587,71.5654,124.715,70.5705L123.723,70.4434Q123.597,71.4223,123.441,72.3968L124.428,72.5556ZM0.897261,73.1732Q1.06586,74.1584,1.26583,75.1377L2.24561,74.9376Q2.04883,73.9739,1.88294,73.0045L0.897261,73.1732ZM123.667,76.4803Q123.888,75.5111,124.077,74.5354L123.095,74.345Q122.909,75.3049,122.692,76.2588L123.667,76.4803ZM1.69565,77.0841Q1.92816,78.0627,2.19198,79.0333L3.15697,78.7711Q2.89736,77.8159,2.66858,76.8529L1.69565,77.0841ZM122.653,80.365Q122.938,79.4014,123.192,78.429L122.224,78.1764Q121.974,79.1333,121.694,80.0815L122.653,80.365ZM2.74708,80.9539Q3.03923,81.9074,3.36159,82.8511L4.3079,82.5279Q3.99068,81.5993,3.7032,80.661L2.74708,80.9539ZM121.399,84.1566Q121.744,83.2154,122.059,82.2636L121.109,81.9497Q120.8,82.8861,120.46,83.8125L121.399,84.1566ZM4.04147,84.7417Q4.39531,85.6781,4.7789,86.6028L5.70258,86.2196Q5.32512,85.3098,4.97693,84.3882L4.04147,84.7417ZM119.903,87.867Q120.305,86.9561,120.677,86.0329L119.75,85.6588Q119.383,86.5673,118.988,87.4637L119.903,87.867ZM5.57241,88.4327Q5.98614,89.3466,6.42893,90.2468L7.32625,89.8054Q6.89056,88.9197,6.48342,88.0203L5.57241,88.4327ZM118.167,91.4859Q118.631,90.5934,119.066,89.6864L118.164,89.2539Q117.736,90.1464,117.28,91.0248L118.167,91.4859ZM7.34261,92.0316Q7.81137,92.9122,8.30796,93.7774L9.17526,93.2797Q8.68655,92.4281,8.22534,91.5617L7.34261,92.0316ZM116.214,94.9681Q116.731,94.1114,117.22,93.2387L116.348,92.7496Q115.867,93.6084,115.358,94.4513L116.214,94.9681ZM9.33289,95.4989Q9.86004,96.3529,10.4143,97.1895L11.248,96.6373Q10.7026,95.814,10.1838,94.9736L9.33289,95.4989ZM114.035,98.3289Q114.605,97.5088,115.148,96.6709L114.309,96.1269Q113.774,96.9518,113.214,97.7585L114.035,98.3289ZM11.5431,98.8359Q12.1222,99.6523,12.7271,100.45L13.5238,99.8454Q12.9285,99.0605,12.3587,98.2573L11.5431,98.8359ZM111.647,101.543Q112.271,100.758,112.868,99.9532L112.066,99.3568Q111.477,100.149,110.864,100.921L111.647,101.543ZM13.9648,102.028Q14.5941,102.805,15.2479,103.561L16.0044,102.907Q15.3611,102.163,14.7418,101.399L13.9648,102.028ZM109.06,104.595Q109.731,103.853,110.378,103.09L109.615,102.444Q108.979,103.195,108.319,103.925L109.06,104.595ZM16.5806,105.054Q17.2593,105.79,17.9612,106.504L18.6744,105.803Q17.9836,105.1,17.3158,104.376L16.5806,105.054ZM106.282,107.479Q107,106.78,107.694,106.059L106.974,105.365Q106.291,106.074,105.584,106.762L106.282,107.479ZM19.3877,107.909Q20.1119,108.6,20.8579,109.268L21.5247,108.523Q20.7906,107.866,20.0781,107.186L19.3877,107.909ZM103.326,110.177Q104.086,109.526,104.825,108.852L104.151,108.113Q103.424,108.777,102.676,109.417L103.326,110.177ZM22.3693,110.578Q23.1365,111.221,23.9238,111.84L24.5417,111.054Q23.767,110.445,23.0121,109.812L22.3693,110.578ZM100.202,112.683Q101.004,112.081,101.786,111.453L101.16,110.673Q100.391,111.291,99.6015,111.883L100.202,112.683ZM25.5191,113.053Q26.3246,113.645,27.1485,114.211L27.7148,113.387Q26.9043,112.83,26.1116,112.247L25.5191,113.053ZM96.9316,114.978Q97.7661,114.431,98.5828,113.858L98.0083,113.04Q97.2047,113.604,96.3835,114.142L96.9316,114.978ZM28.8139,115.317Q29.659,115.859,30.521,116.374L31.0336,115.515Q30.1852,115.009,29.3537,114.476L28.8139,115.317ZM93.5084,117.068Q94.3792,116.574,95.2338,116.053L94.7127,115.199Q93.8721,115.712,93.0149,116.199L93.5084,117.068ZM32.2542,117.371Q33.1261,117.854,34.0129,118.31L34.4696,117.42Q33.5972,116.972,32.7391,116.496L32.2542,117.371ZM89.9668,118.931Q90.8702,118.492,91.759,118.024L91.2935,117.139Q90.4188,117.599,89.5299,118.031L89.9668,118.931ZM35.8172,119.2Q36.7216,119.628,37.6391,120.027L38.038,119.11Q37.1351,118.717,36.2452,118.296L35.8172,119.2ZM86.318,120.561Q87.2403,120.184,88.1501,119.777L87.7421,118.864Q86.8468,119.264,85.9394,119.636L86.318,120.561ZM39.4752,120.791Q40.4114,121.164,41.3591,121.506L41.6985,120.565Q40.7662,120.229,39.8447,119.862L39.4752,120.791ZM82.5575,121.961Q83.5087,121.641,84.4493,121.291L84.1005,120.354Q83.1752,120.698,82.2389,121.013L82.5575,121.961ZM43.2531,122.155Q44.198,122.462,45.1523,122.739L45.4311,121.779Q44.4923,121.506,43.5622,121.204L43.2531,122.155ZM78.7312,123.112Q79.6997,122.854,80.6595,122.565L80.3713,121.608Q79.4265,121.892,78.4737,122.146L78.7312,123.112ZM47.0959,123.27Q48.0663,123.518,49.0442,123.735L49.2609,122.759Q48.2988,122.545,47.3437,122.301L47.0959,123.27ZM74.8365,124.018Q75.8127,123.823,76.7822,123.598L76.5558,122.624Q75.6018,122.846,74.6412,123.037L74.8365,124.018ZM50.9883,124.134Q51.9791,124.322,52.9756,124.477L53.1295,123.489Q52.1486,123.336,51.1739,123.152L50.9883,124.134ZM70.8774,124.675Q71.8732,124.542,72.8643,124.378L72.7006,123.391Q71.7252,123.553,70.7453,123.683L70.8774,124.675ZM54.9588,124.753Q55.9418,124.874,56.9282,124.964L57.0189,123.968Q56.0485,123.88,55.081,123.761L54.9588,124.753ZM66.9019,125.076Q67.904,125.007,68.9034,124.906L68.8029,123.911Q67.8197,124.01,66.8333,124.078L66.9019,125.076ZM58.9444,125.115Q59.9424,125.174,60.9417,125.2L60.9684,124.201Q59.9846,124.175,59.0029,124.117L58.9444,125.115ZM62.9163,125.222Q63.9074,125.217,64.8978,125.181L64.8612,124.182Q63.8867,124.217,62.9115,124.222L62.9163,125.222Z" fill-rule="evenodd" fill="url(#master_svg0_5_1311)" fill-opacity="1"/></g></svg>