<svg xmlns="http://www.w3.org/2000/svg" xmlns:xlink="http://www.w3.org/1999/xlink" fill="none" version="1.1" width="51" height="51" viewBox="0 0 51 51"><g><g style="opacity:0.75;"><path d="M51,25.5Q51,26.126,50.9693,26.7512Q50.9386,27.3765,50.8772,27.9994Q50.8159,28.6224,50.724,29.2416Q50.6321,29.8608,50.51,30.4748Q50.3879,31.0888,50.2358,31.696Q50.0837,32.3032,49.902,32.9023Q49.7203,33.5013,49.5094,34.0907Q49.2985,34.6801,49.0589,35.2584Q48.8194,35.8368,48.5517,36.4026Q48.2841,36.9685,47.989,37.5206Q47.6939,38.0727,47.3721,38.6096Q47.0502,39.1465,46.7025,39.667Q46.3547,40.1875,45.9818,40.6903Q45.6089,41.1931,45.2118,41.677Q44.8146,42.1609,44.3943,42.6247Q43.9739,43.0886,43.5312,43.5312Q43.0886,43.9739,42.6247,44.3943Q42.1609,44.8146,41.677,45.2118Q41.1931,45.6089,40.6903,45.9818Q40.1875,46.3547,39.667,46.7025Q39.1465,47.0502,38.6096,47.3721Q38.0727,47.6939,37.5206,47.989Q36.9685,48.2841,36.4026,48.5517Q35.8368,48.8194,35.2584,49.0589Q34.6801,49.2985,34.0907,49.5094Q33.5013,49.7203,32.9023,49.902Q32.3032,50.0837,31.696,50.2358Q31.0888,50.3879,30.4748,50.51Q29.8608,50.6321,29.2416,50.724Q28.6224,50.8158,27.9994,50.8772Q27.3765,50.9386,26.7512,50.9693Q26.126,51,25.5,51Q24.874,51,24.2488,50.9693Q23.6235,50.9386,23.0006,50.8772Q22.3776,50.8159,21.7584,50.724Q21.1392,50.6321,20.5252,50.51Q19.9112,50.3879,19.304,50.2358Q18.6968,50.0837,18.0977,49.902Q17.4987,49.7203,16.9093,49.5094Q16.3199,49.2985,15.7416,49.0589Q15.1632,48.8194,14.5973,48.5517Q14.0315,48.2841,13.4794,47.989Q12.9273,47.6939,12.3904,47.3721Q11.8534,47.0502,11.333,46.7025Q10.8125,46.3547,10.3097,45.9818Q9.80687,45.6089,9.32297,45.2118Q8.83907,44.8146,8.37525,44.3943Q7.91142,43.9739,7.46878,43.5312Q7.02613,43.0886,6.60575,42.6247Q6.18536,42.1609,5.78823,41.677Q5.39111,41.1931,5.01821,40.6903Q4.64531,40.1875,4.29752,39.667Q3.94974,39.1465,3.62792,38.6096Q3.3061,38.0727,3.01101,37.5206Q2.71592,36.9685,2.44827,36.4026Q2.18063,35.8368,1.94107,35.2584Q1.70152,34.6801,1.49063,34.0907Q1.27974,33.5013,1.09802,32.9023Q0.916306,32.3032,0.764203,31.696Q0.6121,31.0888,0.489975,30.4748Q0.367851,29.8608,0.275999,29.2416Q0.184147,28.6224,0.122789,27.9994Q0.0614317,27.3765,0.0307159,26.7512Q0,26.126,0,25.5Q0,24.874,0.0307159,24.2488Q0.0614317,23.6235,0.122789,23.0006Q0.184147,22.3776,0.275999,21.7584Q0.367851,21.1392,0.489975,20.5252Q0.6121,19.9112,0.764203,19.304Q0.916306,18.6968,1.09802,18.0977Q1.27974,17.4987,1.49063,16.9093Q1.70152,16.3199,1.94107,15.7416Q2.18063,15.1632,2.44827,14.5973Q2.71592,14.0315,3.01101,13.4794Q3.3061,12.9273,3.62792,12.3904Q3.94974,11.8534,4.29752,11.333Q4.64531,10.8125,5.01821,10.3097Q5.39111,9.80687,5.78823,9.32297Q6.18536,8.83907,6.60575,8.37525Q7.02613,7.91142,7.46878,7.46878Q7.91142,7.02613,8.37525,6.60575Q8.83907,6.18536,9.32297,5.78823Q9.80687,5.39111,10.3097,5.01821Q10.8125,4.64531,11.333,4.29752Q11.8534,3.94974,12.3904,3.62792Q12.9273,3.3061,13.4794,3.01101Q14.0315,2.71592,14.5973,2.44827Q15.1632,2.18063,15.7416,1.94107Q16.3199,1.70152,16.9093,1.49063Q17.4987,1.27974,18.0977,1.09802Q18.6968,0.916306,19.304,0.764203Q19.9112,0.6121,20.5252,0.489975Q21.1392,0.367851,21.7584,0.275999Q22.3776,0.184147,23.0006,0.122789Q23.6235,0.0614317,24.2488,0.0307159Q24.874,0,25.5,0Q26.126,0,26.7512,0.0307159Q27.3765,0.0614317,27.9994,0.122789Q28.6224,0.184147,29.2416,0.275999Q29.8608,0.367851,30.4748,0.489975Q31.0888,0.6121,31.696,0.764203Q32.3032,0.916306,32.9023,1.09802Q33.5013,1.27974,34.0907,1.49063Q34.6801,1.70152,35.2584,1.94107Q35.8368,2.18063,36.4026,2.44827Q36.9685,2.71592,37.5206,3.01101Q38.0727,3.3061,38.6096,3.62792Q39.1465,3.94974,39.667,4.29752Q40.1875,4.64531,40.6903,5.01821Q41.1931,5.39111,41.677,5.78823Q42.1609,6.18536,42.6247,6.60575Q43.0886,7.02613,43.5312,7.46878Q43.9739,7.91142,44.3943,8.37525Q44.8146,8.83907,45.2118,9.32297Q45.6089,9.80687,45.9818,10.3097Q46.3547,10.8125,46.7025,11.333Q47.0502,11.8534,47.3721,12.3904Q47.6939,12.9273,47.989,13.4794Q48.2841,14.0315,48.5517,14.5973Q48.8194,15.1632,49.0589,15.7416Q49.2985,16.3199,49.5094,16.9093Q49.7203,17.4987,49.902,18.0977Q50.0837,18.6968,50.2358,19.304Q50.3879,19.9112,50.51,20.5252Q50.6321,21.1392,50.724,21.7584Q50.8158,22.3776,50.8772,23.0006Q50.9386,23.6235,50.9693,24.2488Q51,24.874,51,25.5ZM50,25.5Q50,24.8986,49.9705,24.2978Q49.941,23.6971,49.882,23.0986Q49.8231,22.5,49.7348,21.9051Q49.6466,21.3102,49.5292,20.7203Q49.4119,20.1304,49.2658,19.547Q49.1196,18.9636,48.945,18.388Q48.7704,17.8125,48.5678,17.2462Q48.3652,16.6799,48.135,16.1243Q47.9049,15.5686,47.6477,15.0249Q47.3906,14.4812,47.1071,13.9508Q46.8235,13.4204,46.5143,12.9045Q46.2051,12.3886,45.871,11.8885Q45.5369,11.3884,45.1786,10.9054Q44.8203,10.4223,44.4388,9.95736Q44.0572,9.49244,43.6533,9.0468Q43.2494,8.60117,42.8241,8.17588Q42.3988,7.7506,41.9532,7.3467Q41.5076,6.94279,41.0426,6.56124Q40.5777,6.17969,40.0946,5.82141Q39.6115,5.46314,39.1115,5.12899Q38.6114,4.79485,38.0955,4.48565Q37.5796,4.17645,37.0492,3.89293Q36.5188,3.60941,35.9751,3.35226Q35.4314,3.09511,34.8757,2.86495Q34.3201,2.63479,33.7538,2.43217Q33.1875,2.22955,32.612,2.05496Q32.0364,1.88037,31.453,1.73423Q30.8696,1.5881,30.2797,1.47076Q29.6898,1.35343,29.0949,1.26518Q28.5,1.17693,27.9014,1.11797Q27.3029,1.05902,26.7022,1.02951Q26.1014,1,25.5,1Q24.8986,1,24.2978,1.02951Q23.6971,1.05902,23.0986,1.11797Q22.5,1.17693,21.9051,1.26518Q21.3102,1.35343,20.7203,1.47076Q20.1304,1.5881,19.547,1.73423Q18.9636,1.88037,18.388,2.05496Q17.8125,2.22955,17.2462,2.43217Q16.6799,2.63479,16.1243,2.86495Q15.5686,3.09511,15.0249,3.35226Q14.4812,3.60941,13.9508,3.89293Q13.4204,4.17645,12.9045,4.48565Q12.3886,4.79485,11.8885,5.12899Q11.3884,5.46314,10.9054,5.82141Q10.4223,6.17969,9.95736,6.56124Q9.49244,6.94279,9.0468,7.3467Q8.60117,7.7506,8.17588,8.17588Q7.7506,8.60117,7.3467,9.0468Q6.94279,9.49244,6.56124,9.95736Q6.17969,10.4223,5.82141,10.9054Q5.46314,11.3884,5.12899,11.8885Q4.79485,12.3886,4.48565,12.9045Q4.17645,13.4204,3.89293,13.9508Q3.60941,14.4812,3.35226,15.0249Q3.09511,15.5686,2.86495,16.1243Q2.63479,16.6799,2.43217,17.2462Q2.22955,17.8125,2.05496,18.388Q1.88037,18.9636,1.73423,19.547Q1.5881,20.1304,1.47076,20.7203Q1.35343,21.3102,1.26518,21.9051Q1.17693,22.5,1.11797,23.0986Q1.05902,23.6971,1.02951,24.2978Q1,24.8986,1,25.5Q1,26.1014,1.02951,26.7022Q1.05902,27.3029,1.11797,27.9014Q1.17693,28.5,1.26518,29.0949Q1.35343,29.6898,1.47076,30.2797Q1.5881,30.8696,1.73423,31.453Q1.88037,32.0364,2.05496,32.612Q2.22955,33.1875,2.43217,33.7538Q2.63479,34.3201,2.86495,34.8757Q3.09511,35.4314,3.35226,35.9751Q3.60941,36.5188,3.89293,37.0492Q4.17645,37.5796,4.48565,38.0955Q4.79485,38.6114,5.12899,39.1115Q5.46314,39.6115,5.82141,40.0946Q6.17969,40.5777,6.56124,41.0426Q6.94279,41.5076,7.3467,41.9532Q7.7506,42.3988,8.17588,42.8241Q8.60117,43.2494,9.0468,43.6533Q9.49244,44.0572,9.95736,44.4388Q10.4223,44.8203,10.9054,45.1786Q11.3884,45.5369,11.8885,45.871Q12.3886,46.2051,12.9045,46.5143Q13.4204,46.8235,13.9508,47.1071Q14.4812,47.3906,15.0249,47.6477Q15.5686,47.9049,16.1243,48.135Q16.6799,48.3652,17.2462,48.5678Q17.8125,48.7704,18.388,48.945Q18.9636,49.1196,19.547,49.2658Q20.1304,49.4119,20.7203,49.5292Q21.3102,49.6466,21.9051,49.7348Q22.5,49.8231,23.0986,49.882Q23.6971,49.941,24.2978,49.9705Q24.8986,50,25.5,50Q26.1014,50,26.7022,49.9705Q27.3029,49.941,27.9014,49.882Q28.5,49.8231,29.0949,49.7348Q29.6898,49.6466,30.2797,49.5292Q30.8696,49.4119,31.453,49.2658Q32.0364,49.1196,32.612,48.945Q33.1875,48.7704,33.7538,48.5678Q34.3201,48.3652,34.8757,48.135Q35.4314,47.9049,35.9751,47.6477Q36.5188,47.3906,37.0492,47.1071Q37.5796,46.8235,38.0955,46.5143Q38.6114,46.2051,39.1115,45.871Q39.6115,45.5369,40.0946,45.1786Q40.5777,44.8203,41.0426,44.4388Q41.5076,44.0572,41.9532,43.6533Q42.3988,43.2494,42.8241,42.8241Q43.2494,42.3988,43.6533,41.9532Q44.0572,41.5076,44.4388,41.0426Q44.8203,40.5777,45.1786,40.0946Q45.5369,39.6115,45.871,39.1115Q46.2051,38.6114,46.5143,38.0955Q46.8235,37.5796,47.1071,37.0492Q47.3906,36.5188,47.6477,35.9751Q47.9049,35.4314,48.135,34.8757Q48.3652,34.3201,48.5678,33.7538Q48.7704,33.1875,48.945,32.612Q49.1196,32.0364,49.2658,31.453Q49.4119,30.8696,49.5292,30.2797Q49.6466,29.6898,49.7348,29.0949Q49.8231,28.5,49.882,27.9014Q49.941,27.3029,49.9705,26.7022Q50,26.1014,50,25.5Z" fill="#607080" fill-opacity="1"/></g><g><path d="M6.29307,15.8385Q10.29497,7.88277,18.7503,5.08697Q27.2057,2.29116,35.161500000000004,6.29307Q43.1172,10.29497,45.913,18.7503Q48.7088,27.2057,44.7069,35.161500000000004Q40.705,43.1172,32.249700000000004,45.913Q23.7943,48.7088,15.8385,44.7069Q5.8436699999999995,39.6793,4.225943,28.6088L6.20493,28.3196Q7.6721699999999995,38.3603,16.737299999999998,42.9202Q23.953,46.5499,31.6218,44.0141Q39.2906,41.4784,42.9202,34.262699999999995Q46.5499,27.047,44.0141,19.3782Q41.4784,11.709389999999999,34.262699999999995,8.07976Q27.047,4.450127,19.3782,6.985860000000001Q11.709389999999999,9.52158,8.07976,16.737299999999998L6.29307,15.8385Z" fill="#3EE5FF" fill-opacity="1"/></g><g><ellipse cx="6" cy="22" rx="2" ry="2" fill="#FFDD83" fill-opacity="1"/></g></g></svg>