<svg xmlns="http://www.w3.org/2000/svg" xmlns:xlink="http://www.w3.org/1999/xlink" fill="none" version="1.1" width="12.96875" height="12.96966552734375" viewBox="0 0 12.96875 12.96966552734375"><g><g><path d="M6.484368256835937,7.85672L6.073588256835937,7.45594C5.762808256835937,7.15266,3.0373382568359375,4.44984,3.0373382568359375,2.94766C3.0373382568359375,1.3225,4.583748256835937,0,6.484368256835937,0C8.384998256835939,0,9.931398256835937,1.32234,9.931398256835937,2.94766C9.931398256835937,4.44984,7.2059282568359375,7.15266,6.895148256835938,7.45594L6.484368256835937,7.85672ZM6.484368256835937,0.934218C5.186088256835937,0.934218,4.129838256835938,1.83734,4.129838256835938,2.94766C4.129838256835938,3.71266,5.440928256835937,5.335,6.484208256835938,6.42469C7.527808256835938,5.33437,8.838898256835938,3.71156,8.838898256835938,2.94766C8.838898256835938,1.83734,7.782648256835937,0.934219,6.484368256835937,0.934218Z" fill="#57F9F9" fill-opacity="1"/></g><g><path d="M9.86687,10.173763515625L2.35031,10.173763515625C1.05453,10.173763515625,0,9.337193515625,0,8.308763515625C0,7.280322515625,1.05438,6.443603515625,2.35031,6.443603515625L4.00641,6.443603515625L4.00641,7.3778215156249995L2.35031,7.3778215156249995C1.65672,7.3778215156249995,1.0925,7.795473515625,1.0925,8.308763515625C1.0925,8.822043515625,1.65672,9.239543515625,2.35031,9.239543515625L9.86672,9.239543515625L9.86672,10.173763515625L9.86687,10.173763515625Z" fill="#57F9F9" fill-opacity="1"/></g><g><path d="M10.61858767578125,12.969661953125L3.10186767578125,12.969661953125L3.10186767578125,12.035441953125L10.61858767578125,12.035441953125C11.31202767578125,12.035441953125,11.87623767578125,11.617781953125,11.87623767578125,11.104501953125C11.87623767578125,10.591221953125,11.31202767578125,10.173719953125,10.61858767578125,10.173719953125L3.10186767578125,10.173719953125L3.10186767578125,9.239501953125L10.61858767578125,9.239501953125C11.91452767578125,9.239501953125,12.96873767578125,10.076063953125,12.96873767578125,11.104501953125C12.96873767578125,12.132941953125,11.91452767578125,12.969661953125,10.61858767578125,12.969661953125Z" fill="#57F9F9" fill-opacity="1"/></g></g></svg>