<svg xmlns="http://www.w3.org/2000/svg" xmlns:xlink="http://www.w3.org/1999/xlink" fill="none" version="1.1" width="14.786209106445312" height="16.130409240722656" viewBox="0 0 14.786209106445312 16.130409240722656"><defs><linearGradient x1="0.5" y1="0" x2="0.5" y2="1" id="master_svg0_25_6770"><stop offset="0%" stop-color="#D2FEFF" stop-opacity="1"/><stop offset="53.57142686843872%" stop-color="#95F1F7" stop-opacity="1"/><stop offset="100%" stop-color="#DFFFFF" stop-opacity="1"/></linearGradient></defs><g><path d="M11.5999,11.2913C10.7579,12.686,9.20616,13.5463,7.52645,13.5495C5.84566,13.5463,4.29392,12.686,3.45083,11.2913C3.31846,11.0932,3.31053,10.8369,3.4304,10.631C3.55513,10.4211,3.78314,10.2946,4.02723,10.2998C4.27456,10.303,4.49931,10.4364,4.6133,10.6461C5.21657,11.6429,6.32527,12.257,7.52645,12.2591C8.72655,12.257,9.83417,11.6429,10.4364,10.6461C10.5599,10.4426,10.7812,10.3189,11.0192,10.3202C11.257,10.3178,11.4786,10.4403,11.6031,10.6428C11.7237,10.8424,11.7228,11.0925,11.601,11.2913M13.4474,3.22608L1.33882,3.22608C0.600051,3.22608,0.00107538,3.8014,0,4.51114L0,14.8432C0,15.5529,0.600051,16.1304,1.33882,16.1304L13.4474,16.1304C14.1872,16.1293,14.7851,15.554,14.7862,14.8443L14.7862,4.51221C14.7862,3.80248,14.1862,3.22716,13.4474,3.22608ZM7.3931,1.29043C8.50503,1.29043,9.40941,2.15932,9.40941,3.22608L10.7536,3.22608C10.7536,1.44744,9.24595,0,7.39311,0C5.54026,0,4.0326,1.44744,4.0326,3.22608L5.3768,3.22608C5.3768,2.15932,6.28118,1.29043,7.3931,1.29043Z" fill="url(#master_svg0_25_6770)" fill-opacity="1"/></g></svg>