<svg xmlns="http://www.w3.org/2000/svg" xmlns:xlink="http://www.w3.org/1999/xlink" fill="none" version="1.1" width="23.991161346435547" height="23.96589469909668" viewBox="0 0 23.991161346435547 23.96589469909668"><g><path d="M9.32211,2.50611C9.32211,3.89053,10.4665,5.01221,11.8775,5.01221C13.2897,5.01221,14.4341,3.89053,14.4341,2.50611C14.4341,1.12168,13.2897,0,11.8775,0C10.4665,0,9.32211,1.12168,9.32211,2.50611ZM13.5941,6.12126L10.2682,6.12126C9.14527,6.12126,8.136,6.52168,7.41853,7.16211L7.41853,13.6269L9.91958,13.6269L10.4564,21.2185L13.5133,21.2185L14.0337,13.6269L16.5714,13.6269L16.5714,7.28337C15.8476,6.57347,14.7853,6.12126,13.5941,6.12126ZM15.8754,16.6206L15.8754,17.9419C18.7099,18.3537,20.6564,19.2051,20.6564,20.1903C20.6564,21.5823,16.7785,22.7065,11.9962,22.7065C7.2139,22.7065,3.33474,21.5823,3.33474,20.1891C3.33474,19.2013,5.29516,18.3461,8.14737,17.9343L8.14737,16.6143C3.41053,17.1171,0.00000200258,18.5267,0.00000200258,20.1891C-0.00378747,22.2733,5.37095,23.9659,11.995,23.9659C18.6189,23.9659,23.9912,22.2733,23.9912,20.1903C23.9912,18.5318,20.5958,17.1272,15.8754,16.6194L15.8754,16.6206Z" fill="#FFFFFF" fill-opacity="1"/></g></svg>