<svg xmlns="http://www.w3.org/2000/svg" xmlns:xlink="http://www.w3.org/1999/xlink" fill="none" version="1.1" width="18.399999618530273" height="24" viewBox="0 0 18.399999618530273 24"><g><path d="M9.2,24C4.1192,24,0,19.848,0,14.728C0,11.312,3.0664,6.4032,9.2,0C15.3336,6.404,18.4,11.3128,18.4,14.728C18.4,19.848,14.2808,24,9.2,24ZM2.4576,16.0096C3.07488,18.5958,4.95144,20.6981,7.4512,21.604C7.87478,21.7552,8.3405,21.5326,8.4888,21.108C8.63996,20.6835,8.42024,20.2165,7.9968,20.0624C6.01493,19.3436,4.52703,17.6768,4.0368,15.6264C3.93076,15.1903,3.49128,14.9228,3.0552,15.0288C2.61912,15.1348,2.35156,15.5743,2.4576,16.0104L2.4576,16.0096Z" fill="#FFFFFF" fill-opacity="1"/></g></svg>