<svg xmlns="http://www.w3.org/2000/svg" xmlns:xlink="http://www.w3.org/1999/xlink" fill="none" version="1.1" width="15.732749938964844" height="21.375" viewBox="0 0 15.732749938964844 21.375"><g><path d="M15.1204,2.64394C14.9511,2.65022,14.7818,2.65329,14.6124,2.65312L14.6117,2.65312C10.2437,2.65312,8.31956,0.526125,8.30344,0.50775L7.86694,0L7.42987,0.50775C7.41075,0.530063,5.38031,2.81644,0.612375,2.64394L0,2.62162L0,12.2636C0,14.7879,0.793313,18.4702,7.65281,21.2871L7.86638,21.375L8.07994,21.2871C14.9396,18.4702,15.7327,14.7879,15.7327,12.2636L15.7327,2.62162L15.1204,2.64394ZM12.0538,13.4706C11.9483,13.6335,11.814,13.8349,11.6509,14.0077C11.1713,14.5832,10.0202,15.6289,7.92863,15.6289C6.33619,15.6289,5.31919,15.0244,4.67644,14.5161C4.03369,14.0458,3.59231,13.2306,3.39094,12.5494C2.70975,9.97838,4.03369,7.743,5.82769,6.52463C5.82769,7.13869,6.09638,7.88681,6.23063,8.28994C7.00763,7.3785,7.78481,6.4575,7.78481,4.76906C9.44456,5.88188,10.797,7.71431,10.4996,9.97838C10.8641,9.60431,11.5453,9.1725,11.7467,8.49131C12.8694,9.777,13.1668,11.6381,12.0538,13.4706Z" fill="#FFFFFF" fill-opacity="1"/></g></svg>