<svg xmlns="http://www.w3.org/2000/svg" xmlns:xlink="http://www.w3.org/1999/xlink" fill="none" version="1.1" width="46.09375" height="46.09375" viewBox="0 0 46.09375 46.09375"><defs><clipPath id="master_svg0_170_3866"><rect x="0" y="0" width="46.09375" height="46.09375" rx="0"/></clipPath><filter id="master_svg1_170_3867" filterUnits="objectBoundingBox" color-interpolation-filters="sRGB" x="-3.471186475689455" y="-3.856874542822491" width="7.94237295137891" height="8.713749085644983"><feFlood flood-opacity="0" result="BackgroundImageFix"/><feColorMatrix in="SourceAlpha" type="matrix" values="0 0 0 0 0 0 0 0 0 0 0 0 0 0 0 0 0 0 127 0"/><feOffset dy="0" dx="0"/><feGaussianBlur stdDeviation="33.333335876464844"/><feColorMatrix type="matrix" values="0 0 0 0 0.9960784316062927 0 0 0 0 0.9960784316062927 0 0 0 0 1 0 0 0 0.25 0"/><feBlend mode="normal" in2="BackgroundImageFix" result="effect1_dropShadow"/><feBlend mode="normal" in="SourceGraphic" in2="effect1_dropShadow" result="shape"/></filter><linearGradient x1="0.5" y1="-3.0616171314629196e-17" x2="0.5" y2="1" id="master_svg2_99_3728"><stop offset="0%" stop-color="#D3DDEF" stop-opacity="1"/><stop offset="100%" stop-color="#FFFFFF" stop-opacity="1"/></linearGradient></defs><g clip-path="url(#master_svg0_170_3866)"><g filter="url(#master_svg1_170_3867)"><path d="M21.12650859375,3.841064453125L24.96760859375,3.841064453125C27.08900859375,3.841064453125,28.80870859375,5.560804453125,28.80870859375,7.682214453125L28.80870859375,11.523354453125C28.80870859375,13.644764453125,27.08900859375,15.364464453125,24.96760859375,15.364464453125L21.12650859375,15.364464453125C19.00500859375,15.364464453125,17.285308593750003,13.644764453125,17.285308593750003,11.523354453125L17.285308593750003,7.682214453125C17.285308593750003,5.560804453125,19.00500859375,3.841064453125,21.12650859375,3.841064453125ZM24.96760859375,26.887964453125C27.08900859375,26.887964453125,28.80870859375,28.607664453125,28.80870859375,30.729064453125L28.80870859375,34.570264453125C28.80870859375,36.691664453125,27.08900859375,38.411364453125,24.96760859375,38.411364453125L21.12650859375,38.411364453125C19.00500859375,38.411364453125,17.285308593750003,36.691664453125,17.285308593750003,34.570264453125L17.285308593750003,30.729064453125C17.285308593750003,28.607664453125,19.00500859375,26.887964453125,21.12650859375,26.887964453125L24.96760859375,26.887964453125ZM11.52359859375,26.887964453125C13.64500859375,26.887964453125,15.36470859375,28.607664453125,15.36470859375,30.729064453125L15.36470859375,34.570264453125C15.36470859375,36.691664453125,13.64500859375,38.411364453125,11.52359859375,38.411364453125L7.68245859375,38.411364453125C5.56104859375,38.411364453125,3.84130859375,36.691664453125,3.84130859375,34.570264453125L3.84130859375,30.729064453125C3.84130962403,28.607664453125,5.56104859375,26.887964453125,7.68245859375,26.887964453125L11.52359859375,26.887964453125ZM38.41160859375,26.887964453125C40.53300859375,26.887964453125,42.25280859375,28.607664453125,42.25280859375,30.729064453125L42.25280859375,34.570264453125C42.25280859375,36.691664453125,40.53300859375,38.411364453125,38.41160859375,38.411364453125L34.57050859375,38.411364453125C32.44910859375,38.411364453125,30.72930859375,36.691664453125,30.72930859375,34.570264453125L30.72930859375,30.729064453125C30.72930859375,28.607664453125,32.44910859375,26.887964453125,34.57050859375,26.887964453125L38.41160859375,26.887964453125ZM32.64990859375,17.285064453125003C35.70080859375,17.284864453125,38.22300859375,19.663064453125,38.40200859375,22.708764453125L38.41160859375,23.046764453125L38.41160859375,24.967364453125L34.57050859375,24.967364453125L34.57050859375,23.046764453125C34.57030859375,22.073064453125,33.841608593749996,21.253564453125,32.87460859375,21.139664453125L32.64990859375,21.126264453125L13.44416859375,21.126264453125C12.47048859375,21.126364453125,11.650968593750001,21.855064453125,11.537038593750001,22.822064453125L11.52359859375,23.046764453125L11.52359859375,24.967364453125L7.68245859375,24.967364453125L7.68245859375,23.046764453125C7.68227859375,19.995864453125,10.060468593749999,17.473664453125,13.10614859375,17.294664453125L13.44416859375,17.285064453125003L32.64990859375,17.285064453125003Z" fill="url(#master_svg2_99_3728)" fill-opacity="1"/></g></g></svg>