<svg xmlns="http://www.w3.org/2000/svg" xmlns:xlink="http://www.w3.org/1999/xlink" fill="none" version="1.1" width="46" height="46" viewBox="0 0 46 46"><defs><linearGradient x1="0.5" y1="-3.0616171314629196e-17" x2="0.5" y2="1" id="master_svg0_99_3728"><stop offset="0%" stop-color="#D3DDEF" stop-opacity="1"/><stop offset="100%" stop-color="#FFFFFF" stop-opacity="1"/></linearGradient></defs><g><g></g><g><path d="M18.9922,2.6698780078125C19.2257,2.6286750078125,19.4455,2.5531375078125,19.6721,2.4913330078125L22.364,2.4913330078125C23.0644,2.7042140078125,23.7855,2.8896250078125,24.4722,3.1368400078125003C28.5032,4.5926630078125,31.0646,8.5755830078125,30.5908,12.6203330078125C30.1032,16.836733007812498,26.5735,20.2702330078125,22.2404,20.7441330078125C17.330399999999997,21.2866330078125,12.85991,18.4779330078125,11.61697,14.0624330078125C10.18174,8.9670130078125,13.60843,3.6793430078125002,18.9922,2.6698780078125ZM16.8016,42.6570330078125C14.03419,42.5196330078125,11.24615,42.5196330078125,8.51304,42.1145330078125C6.020283,41.7436330078125,5.4365797,40.8303330078125,5.50525071,38.3856330078125C5.628858,33.997633007812496,6.6726600000000005,29.8910330078125,9.68045,26.4781330078125C11.71998,24.1639330078125,14.37068,23.0377330078125,17.4952,23.0102330078125C20.063499999999998,22.9896330078125,22.6318,22.9965330078125,25.207,23.0102330078125C25.619,23.0102330078125,26.0447,23.0583330078125,26.443,23.1544330078125C27.5624,23.4154330078125,27.8096,24.0265330078125,27.0954,24.9124330078125C26.6353,25.4823330078125,26.0585,25.9562330078125,25.5228,26.4643330078125C23.5657,28.2979330078125,21.5949,30.1245330078125,19.624000000000002,31.9649330078125C20.132199999999997,32.7134330078125,20.606,33.3520330078125,20.9974,34.0388330078125C21.1416,34.292833007812504,21.189700000000002,34.7186330078125,21.0661,34.9658330078125C19.8781,37.3762330078125,18.6557,39.7728330078125,17.4128,42.1625330078125C17.3029,42.3754330078125,17.000799999999998,42.6638330078125,16.8016,42.6570330078125ZM40.4863,35.0894330078125C39.9506,36.5109330078125,39.4081,37.9324330078125,38.7557,39.6629330078125C39.1128,39.9376330078125,39.6897,40.3771330078125,40.2596,40.8097330078125C39.3669,41.7848330078125,38.5841,42.6501330078125,37.8012,43.5085330078125L37.6227,43.5085330078125C37.2038,43.0690330078125,36.7986,42.6020330078125,36.3454,42.1969330078125C36.1875,42.0595330078125,35.851,41.9703330078125,35.658699999999996,42.0321330078125C34.2715,42.4990330078125,32.8981,43.0141330078125,31.5247,43.5085330078125L29.0113,43.5085330078125C27.2946,42.9248330078125,25.5709,42.3342330078125,24.0327,41.8123330078125C23.5589,42.3548330078125,23.0576,42.9316330078125,22.5563,43.5085330078125L21.6567,43.5085330078125C20.915,43.0965330078125,20.345100000000002,42.5883330078125,20.564799999999998,41.6406330078125C20.7777,40.7342330078125,21.4919,40.5076330078125,22.5082,40.4595330078125C22.0069,39.8003330078125,21.5949,39.2646330078125,21.1554,38.6809330078125C21.7253,38.1796330078125,22.2678,37.6989330078125,22.8584,37.1839330078125C25.7838,39.8827330078125,29.183,40.7754330078125,33.2071,39.4363330078125C30.9753,37.3830330078125,28.8328,35.4190330078125,26.6216,33.3795330078125C26.3469,33.6817330078125,25.8319,34.2448330078125,25.3374,34.7804330078125C24.376,33.7984330078125,23.4764,32.8782330078125,22.6043,31.9924330078125C24.0052,30.5777330078125,25.5503,28.9983330078125,27.1229,27.4601330078125C27.2946,27.2884330078125,27.6722,27.2884330078125,27.9538,27.2609330078125C28.3658,27.2197330078125,28.7916,27.2678330078125,29.2036,27.2129330078125C29.6088,27.1511330078125,30.0002,27.0000330078125,30.3985,26.9038330078125C30.4603,26.8901330078125,30.5702,26.9588330078125,30.632,27.0137330078125C31.0783,27.4326330078125,31.5247,27.8652330078125,31.9573,28.2773330078125C31.147,29.1219330078125,30.3985,29.9048330078125,29.856,30.4679330078125C31.82,32.5692330078125,33.8114,34.7049330078125,35.8441,36.8817330078125C36.7368,35.9959330078125,36.8536,35.0757330078125,36.894800000000004,34.1555330078125C37.0733,30.0558330078125,35.1299,27.1305330078125,31.5728,25.1253330078125C31.3668,25.0085330078125,31.1539,24.9124330078125,30.9479,24.8025330078125C30.9273,24.7888330078125,30.9204,24.7544330078125,30.9067,24.7270330078125C32.328199999999995,24.5004330078125,34.8209,25.2351330078125,36.5171,26.4163330078125C38.591,27.8515330078125,39.8408,29.8086330078125,40.3283,32.2327330078125C40.3695,32.4319330078125,40.4451,32.6241330078125,40.5,32.8164330078125L40.5,35.0894330078125L40.4863,35.0894330078125Z" fill="url(#master_svg0_99_3728)" fill-opacity="1"/></g></g></svg>