<svg xmlns="http://www.w3.org/2000/svg" xmlns:xlink="http://www.w3.org/1999/xlink" fill="none" version="1.1" width="24" height="24" viewBox="0 0 24 24"><defs><clipPath id="master_svg0_99_6186"><rect x="0" y="0" width="24" height="24" rx="0"/></clipPath></defs><g clip-path="url(#master_svg0_99_6186)"><g><path d="M18.682,1.5L5.31797,1.5C3.20859,1.5,1.5,3.21094,1.5,5.31797L1.5,18.682C1.5,20.7914,3.20859,22.5,5.31797,22.5L18.682,22.5C20.7914,22.5,22.5,20.7914,22.5,18.682L22.5,5.31797C22.5,3.21094,20.7914,1.5,18.682,1.5ZM18.6844,13.9102L13.9102,13.9102L13.9102,18.6844L10.08984,18.6844L10.08984,13.9102L5.31797,13.9102L5.31797,10.08984L10.08984,10.08984L10.08984,5.31797L13.9078,5.31797L13.9078,10.08984L18.6844,10.08984L18.6844,13.9102Z" fill="#FFFFFF" fill-opacity="1"/></g></g></svg>