<svg xmlns="http://www.w3.org/2000/svg" xmlns:xlink="http://www.w3.org/1999/xlink" fill="none" version="1.1" width="24" height="24" viewBox="0 0 24 24"><defs><clipPath id="master_svg0_99_6190"><rect x="0" y="0" width="24" height="24" rx="0"/></clipPath></defs><g clip-path="url(#master_svg0_99_6190)"><g><path d="M7.69498046875,11.085L16.76253046875,11.085C17.03293046875,11.08093,17.250030468749998,10.86051,17.250030468749998,10.59L17.250030468749998,1.965C17.234330468750002,1.7062680000000001,17.02163046875,1.50345299,16.76253046875,1.500000089407L7.69498046875,1.500000089407C7.42735046875,1.499877155,7.20809046875,1.712494,7.19998046875,1.98L7.19998046875,10.605C7.20809046875,10.87251,7.42735046875,11.08512,7.69498046875,11.085ZM9.48373046875,4.71C9.485770468750001,4.4354,9.70788046875,4.213290000000001,9.98248046875,4.21125L14.48253046875,4.21125C14.75643046875,4.2133,14.97753046875,4.436,14.97753046875,4.71L14.97753046875,5.58375L9.98248046875,5.58375C9.70849046875,5.58376,9.48579046875,5.3627400000000005,9.48373046875,5.08875L9.48373046875,4.71ZM10.81873046875,12.4575L2.19373046875,12.4575C1.92034946875,12.4575,1.698730647564,12.6791,1.69873046875,12.9525L1.69873046875,22.02C1.70689099875,22.2934,1.93530146875,22.5084,2.20873046875,22.5L10.83373046875,22.5C11.10711046875,22.5,11.32873046875,22.2784,11.32873046875,22.005L11.32873046875,12.9525C11.32886046875,12.6732,11.09795046875,12.449,10.81873046875,12.4575ZM9.02998046875,16.0763C9.02793046875,16.3502,8.80523046875,16.571199999999997,8.53123046875,16.5713L4.49998046875,16.5713C4.22599046875,16.5713,4.00329046875,16.3502,4.00123046875,16.0763L4.00123046875,15.7013C4.001220468750001,15.4252,4.22392046875,15.2008,4.49998046875,15.1987L8.53123046875,15.1987C8.805830468749999,15.2008,9.02794046875,15.4229,9.02998046875,15.6975L9.02998046875,16.0763ZM21.79123046875,12.4575L13.16623046875,12.4575C12.89283046875,12.4575,12.67123046875,12.6791,12.67123046875,12.9525L12.67123046875,22.02C12.67943046875,22.2934,12.90783046875,22.5084,13.18123046875,22.5L21.80623046875,22.5C22.07963046875,22.5,22.30123046875,22.2784,22.30123046875,22.005L22.30123046875,12.9525C22.30133046875,12.6732,22.07043046875,12.449,21.79123046875,12.4575ZM20.00253046875,16.0763C20.00043046875,16.3517,19.77543046875,16.5733,19.50003046875,16.571199999999997L15.46873046875,16.571199999999997C15.19473046875,16.5713,14.97203046875,16.3502,14.96993046875,16.0763L14.96993046875,15.7013C14.97203046875,15.4266,15.19413046875,15.2045,15.46873046875,15.2025L19.50003046875,15.2025C19.77463046875,15.2045,19.99673046875,15.4266,19.99873046875,15.7013L20.00253046875,16.0763Z" fill="#FFFFFF" fill-opacity="1"/></g></g></svg>