<svg xmlns="http://www.w3.org/2000/svg" xmlns:xlink="http://www.w3.org/1999/xlink" fill="none" version="1.1" width="24" height="24" viewBox="0 0 24 24"><defs><clipPath id="master_svg0_99_6194"><rect x="0" y="0" width="24" height="24" rx="0"/></clipPath></defs><g clip-path="url(#master_svg0_99_6194)"><g><path d="M12.475776171875,2.2202864109375L21.462576171875,7.1894512109375C21.779776171875,7.4009012109375,21.991176171875,7.7180812109375,21.991176171875,8.1409912109375L21.991176171875,20.8281912109375C21.991176171875,21.4625912109375,21.568276171875,21.8854912109375,20.933876171875,21.8854912109375L2.960346171875,21.8854912109375C2.325983171875,21.8854912109375,1.903076171875,21.4625912109375,1.903076171875,20.8281912109375L1.903076171875,8.1409912109375C1.903076171875,7.7180812109375,2.114530171875,7.4009012109375,2.4317101718750003,7.1894512109375L11.418496171875,2.2202864109375C11.841406171875,2.1145595109375,12.158576171875,2.1145595109375,12.475776171875,2.2202864109375ZM12.264276171875,8.035261210937499L9.198226171875,8.6696212109375L7.295146171875,11.8414312109375L7.295146171875,12.2642912109375C7.295146171875,12.4757912109375,7.400876171875,12.5814912109375,7.612326171875,12.6872912109375C7.718056171875,12.7929912109375,7.929506171875,12.7929912109375,8.140956171875,12.7929912109375C8.458146171875,12.6872912109375,8.669596171875,12.3700912109375,8.669596171875,12.0528812109375L10.044046171875,9.8326212109375L11.101316171875,9.6211712109375L7.929506171875,15.2246912109375L7.400876171875,15.4361912109375L4.757696171875001,15.8590912109375L4.651976171875,15.8590912109375C4.440516171875,15.9647912109375,4.334796171875,16.0704912109375,4.229066171875,16.1761912109375C4.123336171875,16.3876912109375,4.017616171875,16.5990912109375,4.123336171875,16.810591210937503C4.229066171875,17.127791210937502,4.440516171875,17.3391912109375,4.757696171875001,17.444991210937502L4.757696171875001,17.5506912109375L4.9691561718749995,17.444991210937502L5.1806061718750005,17.444991210937502L9.198226171875,16.4933912109375L10.466956171875,14.1673912109375L12.792976171875,15.5418912109375L12.792976171875,19.2422912109375C12.792976171875,19.4537912109375,12.898676171875,19.6651912109375,13.004376171875,19.8766912109375C13.215876171875,20.0880912109375,13.427276171875,20.1938912109375,13.744476171875,20.0880912109375C14.061676171875,19.9823912109375,14.273076171875,19.7709912109375,14.378876171875,19.5594912109375L14.378876171875,19.2422912109375L14.590276171875,14.4845912109375C14.590276171875,14.3788912109375,14.590276171875,14.0616912109375,14.167376171875,13.7444912109375L12.581476171875,12.6872912109375L13.744476171875,10.6784412109375L13.955976171875,11.7357012109375Q14.061676171875,12.3700912109375,15.118976171875,12.1585912109375C15.858976171875,12.0528912109375,16.810576171875,11.8414312109375,17.339176171875,11.7357012109375L17.656376171875,11.7357012109375C18.079276171875,11.6299812109375,18.290776171875,11.3128012109375,18.184976171875,10.8898912109375C18.079276171875,10.4669812109375,17.762076171875,10.2555312109375,17.339176171875,10.3612512109375L15.224676171875,10.7841612109375L14.695976171875,9.0925312109375L12.264276171875,8.035261210937499ZM15.118976171875,5.6035512109375C14.695976171875,5.4978212109375,14.167376171875,5.4978212109375,13.850176171875,5.8150012109375C13.533076171875,6.1321812109375,13.321576171875,6.5550912109375,13.427276171875,7.0837212109375C13.533076171875,7.5066312109375,13.850176171875,7.9295412109375,14.273076171875,8.035261210937499C14.696076171875,8.1409912109375,15.224676171875,8.1409912109375,15.541876171875,7.8238112109375C15.858976171875,7.5066312109375,16.070476171875,7.0837212109375,15.964776171875,6.5550912109375C15.858976171875,6.1321812109375,15.541876171875,5.8150012109375,15.118976171875,5.6035512109375Z" fill="#FFFFFF" fill-opacity="1"/></g></g></svg>