<svg xmlns="http://www.w3.org/2000/svg" xmlns:xlink="http://www.w3.org/1999/xlink" fill="none" version="1.1" width="32" height="32" viewBox="0 0 32 32"><defs><clipPath id="master_svg0_5_10903"><rect x="0" y="0" width="32" height="32" rx="0"/></clipPath><linearGradient x1="0.5" y1="0" x2="0.5" y2="1" id="master_svg1_25_6770"><stop offset="0%" stop-color="#D2FEFF" stop-opacity="1"/><stop offset="53.57142686843872%" stop-color="#95F1F7" stop-opacity="1"/><stop offset="100%" stop-color="#DFFFFF" stop-opacity="1"/></linearGradient></defs><g clip-path="url(#master_svg0_5_10903)"><g><path d="M12.3642112890625,14.019588818359376C12.2318212890625,12.633088818359376,12.2232412890625,11.237508818359375,12.3385912890625,9.849448818359374L12.8750812890625,3.400386818359375Q12.8750812890625,2.7627208183593748,12.585731289062501,2.577809418359375Q12.4521612890625,2.492444388359375,12.2569112890625,2.503572188359375L8.3045252890625,2.503572188359375Q8.1107172890625,2.493000838359375,7.9778312890625,2.577845518359375Q7.6879649990625,2.7629178183593748,7.6879649990625,3.401987818359375L8.2228502890625,9.849448818359374C8.3381552890625,11.236298818359375,8.3301482890625,12.635988818359374,8.1972272890625,14.019588818359376L7.6847623190625,19.374888818359373Q7.6564718890625,19.639888818359374,7.7752731890625,19.781788818359374Q7.9120232890625,19.944988818359374,8.2436702890625,19.944988818359374L12.3145712890625,19.944988818359374Q12.646071289062501,19.944988818359374,12.782391289062499,19.781888818359374Q12.900921289062499,19.640088818359374,12.8718712890625,19.374888818359373L12.3642112890625,14.019588818359376ZM16.566461289062502,8.829318818359376C17.1654012890625,7.235868818359375,17.3671912890625,5.539928818359375,17.1782112890625,3.7639188183593753L17.082131289062502,2.879913818359375L16.5872812890625,3.616578818359375C15.3541612890625,5.435838818359375,14.705571289062501,7.418438818359375,14.6671312890625,9.553178818359374C14.657141289062501,10.111408818359376,14.6955112890625,10.674728818359375,14.7334612890625,11.231798818359374L14.7334612890625,11.231818818359375C14.7380812890625,11.299608818359374,14.742691289062499,11.367298818359375,14.7472112890625,11.434888818359376C15.237251289062499,11.687918818359375,16.0219612890625,11.988988818359376,16.7025812890625,12.133118818359375C18.7877212890625,12.583088818359375,20.8728212890625,12.418178818359374,22.9418212890625,11.628658818359375L23.7714212890625,11.314778818359375L22.9338212890625,11.021708818359375C21.241121289062498,10.429168818359376,19.5515212890625,10.236998818359375,17.8668212890625,10.453188818359376C20.3363212890625,9.152808818359375,22.3349212890625,7.256688818359375,23.8579212890625,4.768028818359375L24.3207212890625,4.012138818359375L23.4783212890625,4.289188818359375C20.7046212890625,5.213228818359375,18.3953212890625,6.723408818359375,16.566461289062502,8.829318818359376ZM20.257721289062502,16.959888818359374C20.1423212890625,17.621888818359373,20.1510212890625,18.299688818359375,20.283421289062503,18.958488818359374L20.2818212890625,18.958488818359374L20.7716212890625,21.412388818359375Q20.7870212890625,21.459288818359376,20.7919212890625,21.514088818359376L20.7942212890625,21.525688818359374Q20.8077212890625,21.584588818359375,20.7893212890625,21.630688818359374Q20.7853212890625,21.640688818359376,20.7799212890625,21.650088818359375L20.257721289062502,24.659688818359374C20.1423212890625,25.321688818359377,20.1510212890625,25.999488818359374,20.2833212890625,26.658288818359374L20.2817212890625,26.658288818359374L20.7942212890625,29.225488818359374Q20.8077212890625,29.284388818359375,20.7893212890625,29.330488818359374Q20.722621289062502,29.497688818359375,20.2369212890625,29.497688818359375L16.166031289062502,29.497688818359375Q15.6812112890625,29.497688818359375,15.6140612890625,29.330188818359375Q15.5956012890625,29.284188818359375,15.608721289062501,29.225488818359374L16.1211912890625,26.658288818359374C16.2525112890625,25.996888818359373,16.2621212890625,25.324288818359374,16.1452112890625,24.659688818359374L15.6228112890625,21.648488818359375Q15.6178012890625,21.639688818359375,15.614071289062501,21.630388818359375Q15.5956012890625,21.584388818359376,15.6087312890625,21.525688818359374L15.611031289062499,21.514088818359376Q15.6159412890625,21.459488818359375,15.6312612890625,21.412788818359374L16.1211912890625,18.958488818359374C16.2525112890625,18.297088818359377,16.2621212890625,17.624488818359374,16.145221289062498,16.958288818359375L15.6087312890625,13.867488818359375Q15.6087312890625,13.710088818359376,15.6845412890625,13.610288818359376Q15.8254912890625,13.424788818359374,16.2284912890625,13.438288818359375L20.1761212890625,13.438288818359375Q20.5773212890625,13.424788818359374,20.718121289062502,13.609688818359375Q20.7942212890625,13.709588818359375,20.7942212890625,13.867488818359375L20.257721289062502,16.959888818359374ZM12.3385612890625,26.046588818359375C12.2231412890625,25.417788818359377,12.2318512890625,24.772588818359374,12.3641812890625,24.147188818359375L12.3625812890625,24.147188818359375L12.8750412890625,21.703388818359375Q12.8879312890625,21.649888818359376,12.8717812890625,21.607388818359375Q12.8096312890625,21.443988818359376,12.3177412890625,21.443988818359376L8.2468422890625,21.443988818359376Q7.7557704890625,21.443988818359376,7.6932141890625,21.607688818359374Q7.6770245490625,21.650088818359375,7.6895359890625,21.703388818359375L8.1971972890625,24.147188818359375C8.3295332890625,24.772588818359374,8.3382372890625,25.417788818359377,8.2228202890625,26.046588818359375L7.6863332690625,28.986788818359376Q7.6863332690625,29.124488818359374,7.7514008890625,29.215888818359375Q7.8868882890625,29.405988818359376,8.3044942890625,29.395188818359376L12.2568812890625,29.395188818359376Q12.6744912890625,29.405988818359376,12.809981289062499,29.215888818359375Q12.875051289062501,29.124488818359374,12.875051289062501,28.986788818359376L12.3385612890625,26.046588818359375Z" fill-rule="evenodd" fill="url(#master_svg1_25_6770)" fill-opacity="1"/></g></g></svg>