<svg xmlns="http://www.w3.org/2000/svg" xmlns:xlink="http://www.w3.org/1999/xlink" fill="none" version="1.1" width="32" height="32" viewBox="0 0 32 32"><defs><clipPath id="master_svg0_5_10907"><rect x="0" y="0" width="32" height="32" rx="0"/></clipPath><linearGradient x1="0.5" y1="0" x2="0.5" y2="1" id="master_svg1_25_6770"><stop offset="0%" stop-color="#D2FEFF" stop-opacity="1"/><stop offset="53.57142686843872%" stop-color="#95F1F7" stop-opacity="1"/><stop offset="100%" stop-color="#DFFFFF" stop-opacity="1"/></linearGradient></defs><g clip-path="url(#master_svg0_5_10907)"><g><path d="M15.999934375,2.91400146484375C8.503904375000001,2.91400146484375,2.427734375,10.99317146484375,2.427734375,15.99880146484375C2.427734375,18.60530146484375,4.0017443749999995,21.53490146484375,6.271084375,23.96380146484375C11.423124375,24.19220146484375,15.833634375,18.86500146484375,17.504934374999998,16.559701464843748C17.898434375,16.01760146484375,17.894434375,15.84470146484375,17.826234375,15.63670146484375Q17.728934375,15.34330146484375,17.288334374999998,15.11960146484375L15.258334375,14.23720146484375Q15.014134375,14.08470146484375,15.131834375,13.85620146484375Q15.237234375,13.65050146484375,15.642934375,13.59260146484375L20.634334375,11.77230146484375Q21.135734375,11.46096146484375,21.699634375,11.69016146484375Q22.209134375,11.89668146484375,22.292734375,12.47242146484375L23.526834375,17.69400146484375Q23.648534375,18.12500146484375,23.431834375,18.28540146484375Q23.214434375,18.44580146484375,22.943434375,18.276001464843752L21.651734375,17.55010146484375Q21.282634375,17.344301464843753,21.071634375,17.40930146484375C20.895634375,17.46320146484375,20.751134375,17.56960146484375,20.559734375,17.87160146484375C19.268834375,19.88750146484375,15.099334375,25.61520146484375,9.074274375,26.44980146484375C11.288444375,28.04880146484375,13.759834375,29.08600146484375,15.999934375,29.08600146484375C21.192534375,29.08600146484375,29.572134375,21.44960146484375,29.572134375,16.000401464843748C29.572134375,10.25315146484375,21.652534375,2.91400324829375,15.999934375,2.91400146484375Z" fill="url(#master_svg1_25_6770)" fill-opacity="1"/></g></g></svg>