<?xml version="1.0" standalone="no"?><!DOCTYPE svg PUBLIC "-//W3C//DTD SVG 1.1//EN" "http://www.w3.org/Graphics/SVG/1.1/DTD/svg11.dtd"><svg t="1744078995650" class="icon" viewBox="0 0 1571 1024" version="1.1" xmlns="http://www.w3.org/2000/svg" p-id="15586" xmlns:xlink="http://www.w3.org/1999/xlink" width="98.1875" height="64"><path d="M869.46552 837.555348c-66.394764 58.21629-126.198339 110.574826-197.597006 173.186863 0-30.512376-2.441136-49.794553 0.488957-68.345727 6.589973-42.473577-13.181161-53.213603-52.358536-55.531891-152.682293-9.398434-302.43571-36.860302-440.229142-106.427206-49.551291-24.896668-97.027555-59.192987-135.961667-98.613624-58.705247-59.681944-56.99633-135.107817-3.294986-200.159774 50.161879-60.535794 117.532124-94.709266 190.395229-119.363888-38.566787 23.433446-79.819188 43.327428-115.335466 70.788079-77.98864 60.292532-78.354749 135.107817-0.976698 195.88809 99.469907 78.110271 219.687646 104.83992 340.514756 125.955077 69.079162 12.203247 139.501132 17.085519 213.462566 25.630104 2.441136-39.544701 4.271684-71.27582 6.591189-112.530654 67.125767 58.581183 127.90604 111.674371 194.300804 169.524551zM919.993509 882.347214c-1.708917-5.49286-4.394531-11.228982-5.00512-17.454062-9.518849-82.749281-3.538248-83.84761 78.111488-99.103797 107.281056-20.13846 214.073154-45.157976 318.298837-76.647049 44.796731-13.546055 87.270308-43.57069 123.273111-74.815285 58.942427-51.381838 58.457119-113.261657 0.486525-166.595674-32.58497-29.901788-72.857024-51.749164-108.494934-78.722075 73.708442 30.512376 142.673271 68.469791 185.876634 139.74561 31.245811 51.626317 32.098445 108.013275-7.56667 153.658992-34.420383 39.42307-75.678865 75.670351-120.462217 102.521631-116.072551 69.446488-361.99724 128.273366-464.517654 117.411709zM1467.013533 14.461937c-57.969378 0-104.833838 47.110155-104.833838 104.83992 0 58.094658 46.986091 104.961551 104.833838 104.96155 58.211424 0 104.954253-46.988523 104.954253-104.96155 0-57.729765-46.741612-104.83992-104.954253-104.83992z m0 155.24506c-27.83041 0-50.282293-22.57838-50.282294-50.40514 0-27.827978 22.574731-50.161879 50.282294-50.161879 27.949609 0 50.524339 22.456749 50.524339 50.161879 0 27.948392-22.573514 50.405141-50.524339 50.40514z" p-id="15587" fill="#ffffff"></path><path d="M250.66734 26.843982h297.901303L384.688991 591.800943h-98.787556L435.223061 71.124997h-92.668296v116.309732" p-id="15588" fill="#ffffff"></path><path d="M389.257455 597.882498h-111.426243L427.151622 77.206552h-78.515302v116.309732h-104.051751V20.762427H556.663192L389.257455 597.882498zM904.62542 597.882498H594.561008v-268.062764c0-7.994812 0.790602-15.68068 2.352345-22.850833 0.632482-7.480312 3.045643-13.792966 7.179884-18.777408 2.759809-4.466294 8.268482-8.977591 17.257019-14.139614 9.747516-5.854104 22.380121-9.887391 37.447781-11.928362 15.569996-2.241661 37.500082-3.381344 65.128584-3.381344h69.748133V74.317813h-87.404102v119.198471h-111.71086V93.893121c0-28.92509 12.517056-49.438174 37.203302-60.966368 23.496694-10.972341 62.664339-16.30708 119.738512-16.307081 55.017392 0 92.967509 5.486779 116.019033 16.774144 24.604754 11.781188 37.103565 31.446503 37.103565 58.429144v149.83491c0 17.143902-1.379297 29.204841-4.21695 36.871249l-0.226234 0.529095c-3.664745 7.601943-11.255741 14.433962-23.205996 20.885275-10.264448 5.843158-23.053957 9.976182-38.017014 12.28474-13.210353 2.005697-34.297535 2.978745-64.480291 2.978746H706.269435v226.233831h87.404103V397.400401h110.950666v200.482097z" p-id="15589" fill="#ffffff"></path><path d="M1120.040166 602.025253c-54.023666 0-91.944591-5.472183-115.929027-16.730357-25.182501-11.788485-37.953766-31.462315-37.953766-58.471715v-417.194645c0-20.291715 1.898661-34.850957 5.80302-44.508466l0.059599-0.142308c4.539272-10.457841 12.026882-19.027968 22.253625-25.471983 13.889054-8.674729 30.584138-14.80372 49.641297-18.230068l0.133794-0.02311c19.604499-3.074834 46.456996-4.635361 79.81189-4.635361 34.968939 0 62.95747 2.133409 83.188369 6.341845 20.2309 4.323985 36.536764 11.545223 48.501614 21.471537 8.442414 6.428203 14.218675 13.387934 17.169445 20.688232l0.06933 0.180014c1.474169 4.007744 3.433646 12.964658 3.433646 44.327235v415.123268c0 19.150815-5.442991 34.606478-16.174503 45.94128-10.535685 11.657124-27.341453 19.925605-49.953889 24.575562-21.802373 4.485755-52.100678 6.75904-90.054444 6.75904z m-42.171933-57.698141h87.402887V74.317813h-87.402887v470.009299z" p-id="15590" fill="#ffffff"></path></svg>