<svg xmlns="http://www.w3.org/2000/svg" xmlns:xlink="http://www.w3.org/1999/xlink" fill="none" version="1.1" width="32" height="32" viewBox="0 0 32 32"><defs><clipPath id="master_svg0_5_08841"><rect x="0" y="0" width="32" height="32" rx="0"/></clipPath><linearGradient x1="0.5" y1="0" x2="0.5" y2="1" id="master_svg1_25_6770"><stop offset="0%" stop-color="#D2FEFF" stop-opacity="1"/><stop offset="53.57142686843872%" stop-color="#95F1F7" stop-opacity="1"/><stop offset="100%" stop-color="#DFFFFF" stop-opacity="1"/></linearGradient></defs><g clip-path="url(#master_svg0_5_08841)"><g><path d="M17.5910248046875,20.319402734375C19.3485248046875,19.671802734375,20.6019248046875,17.982102734374998,20.6019248046875,15.999902734375C20.6019248046875,13.458482734375,18.541524804687498,11.398092734375,16.0000248046875,11.398092734375C13.4585848046875,11.398092734375,11.3982148046875,13.458452734375,11.3982148046875,15.999902734375C11.3982148046875,17.982102734374998,12.6515848046875,19.671802734375,14.4090748046875,20.319402734375L10.7058348046875,25.504102734375C7.3753448046875,23.644502734375,5.1229248046875,20.085102734375,5.1229248046875,15.999902734375C5.1229248046875,9.992412734375,9.9925348046875,5.122802734375,16.0000248046875,5.122802734375C22.0076248046875,5.122802734375,26.8772248046875,9.992412734375,26.8772248046875,15.999902734375C26.8772248046875,20.085102734375,24.6248248046875,23.644502734375,21.2943248046875,25.504102734375L17.5910248046875,20.319402734375ZM16.0000248046875,21.020202734374998L20.1836248046875,26.877102734375L11.816554804687499,26.877102734375L16.0000248046875,21.020202734374998ZM16.0000248046875,18.510102734375C14.6137748046875,18.510102734375,13.4899548046875,17.386202734375,13.4899548046875,15.999902734375C13.4899548046875,14.613652734375,14.6137748046875,13.489832734375,16.0000248046875,13.489832734375C17.3863248046875,13.489832734375,18.5102248046875,14.613652734375,18.5102248046875,15.999902734375C18.5102248046875,17.386202734375,17.3863248046875,18.510102734375,16.0000248046875,18.510102734375Z" fill="url(#master_svg1_25_6770)" fill-opacity="1"/></g></g></svg>