<svg xmlns="http://www.w3.org/2000/svg" xmlns:xlink="http://www.w3.org/1999/xlink" fill="none" version="1.1" width="32" height="32" viewBox="0 0 32 32"><defs><clipPath id="master_svg0_5_08788"><rect x="0" y="0" width="32" height="32" rx="0"/></clipPath><linearGradient x1="0.5" y1="0" x2="0.5" y2="1" id="master_svg1_25_6770"><stop offset="0%" stop-color="#D2FEFF" stop-opacity="1"/><stop offset="53.57142686843872%" stop-color="#95F1F7" stop-opacity="1"/><stop offset="100%" stop-color="#DFFFFF" stop-opacity="1"/></linearGradient></defs><g clip-path="url(#master_svg0_5_08788)"><g><path d="M21.1536091796875,9.7126696875L23.8620091796875,9.7126696875C24.8234091796875,9.7126696875,25.6055091796875,10.4948196875,25.6055091796875,11.4562096875L25.6055091796875,14.4572096875C25.6055091796875,14.7388296875,25.4341091796875,15.0087996875,25.1154091796875,15.2825396875C24.7428091796875,15.6025196875,24.1799091796875,15.8958796875,23.4421091796875,16.154439687500002C21.6348091796875,16.7877796875,18.8672091796875,17.1512796875,15.9888691796875,17.1511796875C15.5365691796875,17.1511796875,15.0810391796875,17.1422796875,14.6265491796875,17.1238796875C11.2021791796875,16.9857796875,8.3882991796875,16.3577196875,7.0995621796875,15.4437996875C6.6477141796875,15.1234196875,6.3944091796875,14.7914696875,6.3944091796875,14.4572296875L6.3944091796875,11.4562096875C6.3944091796875,10.4948196875,7.1765571796875,9.7126696875,8.1379491796875,9.7126696875L10.8463691796875,9.7126696875L10.8463691796875,7.5987096874999995C10.8463691796875,6.9980576875,11.2884791796875,6.4988246875,11.8643891796875,6.4091796875L20.1356091796875,6.4091796875C20.7116091796875,6.4988246875,21.1536091796875,6.9980576875,21.1536091796875,7.5987096874999995L21.1536091796875,9.7126696875ZM12.814049179687501,8.5552996875L12.814049179687501,9.7126696875L19.186009179687503,9.7126696875L19.186009179687503,8.5552996875C19.186009179687503,8.3833596875,19.0465091796875,8.2439096875,18.8745091796875,8.2439096875L13.125419179687501,8.2439096875C12.9534791796875,8.2439096875,12.814049179687501,8.3833596875,12.814049179687501,8.5552996875ZM17.4611091796875,18.4412796875C19.9474091796875,18.3397796875,22.230309179687502,17.9760796875,23.8782091796875,17.3985796875C24.5700091796875,17.1560796875,25.1484091796875,16.8761796875,25.6056091796875,16.563779687500002L25.6056091796875,23.8473796875C25.6056091796875,24.8087796875,24.8234091796875,25.5910796875,23.8620091796875,25.5910796875L8.1379491796875,25.5910796875C7.1765571796875,25.5910796875,6.3944091796875,24.8087796875,6.3944091796875,23.8473796875L6.3944091796875,16.5591796875C7.9179891796875,17.6045796875,10.8774791796875,18.2884796875,14.5387891796875,18.4396796875L14.5387891796875,20.669179687499998C14.5387891796875,20.7904796875,14.6372491796875,20.888979687499997,14.7585591796875,20.888979687499997L17.241509179687498,20.888979687499997C17.3627091796875,20.888979687499997,17.4611091796875,20.7904796875,17.4611091796875,20.669179687499998L17.4611091796875,18.4412796875Z" fill-rule="evenodd" fill="url(#master_svg1_25_6770)" fill-opacity="1"/></g></g></svg>