<svg xmlns="http://www.w3.org/2000/svg" xmlns:xlink="http://www.w3.org/1999/xlink" fill="none" version="1.1" width="32" height="32" viewBox="0 0 32 32"><defs><clipPath id="master_svg0_5_09207"><rect x="0" y="0" width="32" height="32" rx="0"/></clipPath><linearGradient x1="0.5" y1="0" x2="0.5" y2="1" id="master_svg1_25_6770"><stop offset="0%" stop-color="#D2FEFF" stop-opacity="1"/><stop offset="53.57142686843872%" stop-color="#95F1F7" stop-opacity="1"/><stop offset="100%" stop-color="#DFFFFF" stop-opacity="1"/></linearGradient></defs><g clip-path="url(#master_svg0_5_09207)"><g><path d="M10.2861034765625,11.48245109375L9.2206334765625,11.48245109375C8.6554134765625,11.51045109375,8.1972034765625,11.029931093750001,8.2520334765625,10.466681093750001C8.2087934765625,9.90749109375,8.6600234765625,9.43428109375,9.2206334765625,9.450911093750001L10.2861034765625,9.450911093750001C10.6649134765625,6.58480109375,13.1085634765625,4.44287109375,15.9996134765625,4.44287109375C18.8906134765625,4.442871486935,21.3343134765625,6.58480109375,21.7131134765625,9.450911093750001L22.7785134765625,9.450911093750001C23.3438134765625,9.42290109375,23.8020134765625,9.903431093750001,23.7471134765625,10.466681093750001C23.7904134765625,11.02587109375,23.3392134765625,11.49908109375,22.7785134765625,11.48245109375L10.2861034765625,11.48245109375ZM26.6517134765625,27.06567109375C26.6776134765625,27.34397109375,26.4460134765625,27.57827109375,26.1674134765625,27.55557109375L22.7779134765625,27.55557109375L22.7779134765625,21.91817109375C24.9088134765625,23.03837109375,26.4586134765625,24.64917109375,26.6523134765625,27.06567109375L26.6517134765625,27.06567109375ZM10.189243476562499,21.53077109375L10.189243476562499,27.55367109375L5.8311594765625,27.55367109375C5.5574454765625,27.56357109375,5.3337945765625,27.33727109375,5.3468580325625,27.06377109375C5.6374384765625,24.33217109375,7.5740134765625005,22.54657109375,10.1898634765625,21.52887109375L10.189243476562499,21.53077109375ZM13.5787134765625,18.799171093749997C11.5452834765625,17.60857109375,10.1892334765625,14.87697109375,10.1892334765625,12.46112109375L21.8099134765625,12.46112109375C21.7619134765625,14.99507109375,20.5013134765625,17.352271093749998,18.420513476562498,18.799171093749997C18.1128134765625,18.998871093749997,17.929713476562497,19.34317109375,17.9362134765625,19.70987109375C17.9227134765625,20.22217109375,18.2996134765625,20.66127109375,18.8079134765625,20.72567109375C19.824113476562502,20.93287109375,20.8266134765625,21.20197109375,21.8099134765625,21.53137109375L21.8099134765625,27.55437109375L11.157843476562501,27.55437109375L11.157843476562501,21.21757109375C11.835863476562501,21.00747109375,12.513883476562501,20.90307109375,13.1912734765625,20.72757109375C13.6201834765625,20.65397109375,13.9596334765625,20.32417109375,14.0454634765625,19.89747109375C14.1312934765625,19.47087109375,13.9458034765625,19.03537109375,13.5787134765625,18.801671093750002L13.5787134765625,18.799171093749997Z" fill="url(#master_svg1_25_6770)" fill-opacity="1"/></g></g></svg>