<svg xmlns="http://www.w3.org/2000/svg" xmlns:xlink="http://www.w3.org/1999/xlink" fill="none" version="1.1" width="91.905029296875" height="32" viewBox="0 0 91.905029296875 32"><g style="opacity:0.41999998688697815;mix-blend-mode:soft-light" transform="matrix(1,0,0,-1,0,64)"><g style="opacity:0.5;"><path d="M62.188152734375,32C62.188152734375,32,74.050852734375,32.00000000000004,74.050852734375,32.00000000000004C74.050852734375,32.00000000000004,62.704252734375004,64,62.704252734375004,64C62.704252734375004,64,50.841552734375,64,50.841552734375,64C50.841552734375,64,62.188152734375,32,62.188152734375,32C62.188152734375,32,62.188152734375,32,62.188152734375,32Z" fill-rule="evenodd" fill="#FFFFFF" fill-opacity="1"/></g><g style="opacity:0.4122256338596344;"><path d="M45.240887109375,32C45.240887109375,32,57.103587109375,32.00000000000004,57.103587109375,32.00000000000004C57.103587109375,32.00000000000004,45.756987109375004,64,45.756987109375004,64C45.756987109375004,64,33.894287109375,64,33.894287109375,64C33.894287109375,64,45.240887109375,32,45.240887109375,32C45.240887109375,32,45.240887109375,32,45.240887109375,32Z" fill-rule="evenodd" fill="#FFFFFF" fill-opacity="1"/></g><g style="opacity:0.4122256338596344;"><path d="M28.293865625000002,32C28.293865625000002,32,40.156565625,32.000000000000036,40.156565625,32.000000000000036C40.156565625,32.000000000000036,28.809965625,64,28.809965625,64C28.809965625,64,16.947265625,64,16.947265625,64C16.947265625,64,28.293865625000002,32,28.293865625000002,32C28.293865625000002,32,28.293865625000002,32,28.293865625000002,32Z" fill-rule="evenodd" fill="#FFFFFF" fill-opacity="1"/></g><g style="opacity:0.4122256338596344;"><path d="M11.2457,32C11.2457,32,22.9564,32.000000000000036,22.9564,32.000000000000036C22.9564,32.000000000000036,11.7106,64,11.7106,64C11.7106,64,0,64,0,64C0,64,11.2457,32,11.2457,32C11.2457,32,11.2457,32,11.2457,32Z" fill-rule="evenodd" fill="#FFFFFF" fill-opacity="1"/></g><g><path d="M80.19443046875,32C80.19443046875,32,91.90513046875,32.000000000000014,91.90513046875,32.000000000000014C91.90513046875,32.000000000000014,80.65933046875,64,80.65933046875,64C80.65933046875,64,68.94873046875,64,68.94873046875,64C68.94873046875,64,80.19443046875,32,80.19443046875,32C80.19443046875,32,80.19443046875,32,80.19443046875,32Z" fill-rule="evenodd" fill="#FFFFFF" fill-opacity="1"/></g></g></svg>