<svg xmlns="http://www.w3.org/2000/svg" xmlns:xlink="http://www.w3.org/1999/xlink" fill="none" version="1.1" width="67.18994140625" height="31.5" viewBox="0 0 67.18994140625 31.5"><defs><linearGradient x1="-0.23125405609607697" y1="-0.46250808238983154" x2="-0.23125405609607697" y2="1" id="master_svg0_7_7143"><stop offset="0%" stop-color="#FFFFFF" stop-opacity="0.00009999999747378752"/><stop offset="100%" stop-color="#FFFFFF" stop-opacity="1"/></linearGradient><linearGradient x1="-0.23125405609607697" y1="-0.46250808238983154" x2="-0.23125405609607697" y2="1" id="master_svg1_7_7143"><stop offset="0%" stop-color="#FFFFFF" stop-opacity="0.00009999999747378752"/><stop offset="100%" stop-color="#FFFFFF" stop-opacity="1"/></linearGradient></defs><g style="mix-blend-mode:soft-light"><g style="opacity:0.5957496166229248;mix-blend-mode:overlay"><path d="M52.593182031249995,0C52.593182031249995,0,67.18998203125,0,67.18998203125,0C67.18998203125,0,41.40568203125,31.5,41.40568203125,31.5C41.40568203125,31.5,26.80908203125,31.5,26.80908203125,31.5C26.80908203125,31.5,52.593182031249995,0,52.593182031249995,0C52.593182031249995,0,52.593182031249995,0,52.593182031249995,0Z" fill-rule="evenodd" fill="url(#master_svg0_7_7143)" fill-opacity="1" style="mix-blend-mode:overlay"/></g><g style="opacity:0.2510928213596344;mix-blend-mode:overlay"><path d="M25.7841,0C25.7841,0,40.3809,0,40.3809,0C40.3809,0,14.5966,31.5,14.5966,31.5C14.5966,31.5,0,31.5,0,31.5C0,31.5,25.7841,0,25.7841,0C25.7841,0,25.7841,0,25.7841,0Z" fill-rule="evenodd" fill="url(#master_svg1_7_7143)" fill-opacity="1" style="mix-blend-mode:overlay"/></g></g></svg>