<svg xmlns="http://www.w3.org/2000/svg" xmlns:xlink="http://www.w3.org/1999/xlink" fill="none" version="1.1" width="63.9554443359375" height="46.52223205566406" viewBox="0 0 63.9554443359375 46.52223205566406"><defs><linearGradient x1="-0.14163273572921753" y1="0.5378890037536621" x2="1.039638876914978" y2="0.5378890037536621" id="master_svg0_25_3309"><stop offset="0%" stop-color="#3BEAFB" stop-opacity="0"/><stop offset="52.8633177280426%" stop-color="#3BEAFB" stop-opacity="0.4000000059604645"/><stop offset="100%" stop-color="#3BEAFB" stop-opacity="1"/></linearGradient><linearGradient x1="-0.03319327160716057" y1="0.5378890037536621" x2="1" y2="0.5378890037536621" id="master_svg1_25_6342"><stop offset="0%" stop-color="#3BEAFB" stop-opacity="0"/><stop offset="100%" stop-color="#81EDF7" stop-opacity="1"/></linearGradient><radialGradient cx="0" cy="0" r="1" gradientUnits="userSpaceOnUse" id="master_svg2_25_5567" gradientTransform="translate(60.21393871307373 55.7563591003418) rotate(90) scale(26.292074336786754 9.436101861712025)"><stop offset="0%" stop-color="#5DFDFF" stop-opacity="1"/><stop offset="100%" stop-color="#27A0AE" stop-opacity="0.11999999731779099"/></radialGradient></defs><g><g transform="matrix(0,1,-1,0,70.0777816772461,-57.833152770996094)" style="opacity:0.4559384286403656;"><path d="M104.3553672241211,26.677414453125C104.3553672241211,26.677414453125,104.3553672241211,50.194914453125,104.3553672241211,50.194914453125C104.3553672241211,50.194914453125,100.25396722412108,57.226814453125,100.25396722412108,57.226814453125C100.25396722412108,57.226814453125,63.955467224121094,70.077814453125,63.955467224121094,70.077814453125C63.955467224121094,70.077814453125,63.955467224121094,6.122314453125,63.955467224121094,6.122314453125C63.955467224121094,6.122314453125,100.25396722412108,19.495414453125,100.25396722412108,19.495414453125C100.25396722412108,19.495414453125,104.3553672241211,26.677414453125,104.3553672241211,26.677414453125Z" fill-rule="evenodd" fill="url(#master_svg0_25_3309)" fill-opacity="1"/></g><g transform="matrix(0,1,-1,0,54.703514099121094,-54.703514099121094)"><path d="M98.5573140991211,14.608C98.5573140991211,14.608,98.5573140991211,31.3213,98.5573140991211,31.3213C98.5573140991211,31.3213,95.9232140991211,36.3186,95.9232140991211,36.3186C95.9232140991211,36.3186,54.703514099121094,45.4515,54.703514099121094,45.4515C54.703514099121094,45.4515,54.703514099121094,0,54.703514099121094,0C54.703514099121094,0,95.9232140991211,9.50385,95.9232140991211,9.50385C95.9232140991211,9.50385,98.5573140991211,14.608,98.5573140991211,14.608Z" fill-rule="evenodd" fill="url(#master_svg1_25_6342)" fill-opacity="1"/></g><g transform="matrix(0,1,-1,0,87.47308349609375,-13.69171142578125)"><path d="M60.2139374609375,44.001416035156254C60.2139374609375,44.001416035156254,60.2139374609375,67.33438603515626,60.2139374609375,67.33438603515626C60.2139374609375,67.33438603515626,55.9929374609375,74.62198603515625,55.9929374609375,74.62198603515625C55.9929374609375,74.62198603515625,50.5823974609375,64.62608603515625,50.5823974609375,64.62608603515625C50.5823974609375,64.62608603515625,50.5823974609375,46.88666603515625,50.5823974609375,46.88666603515625C50.5823974609375,46.88666603515625,55.9929474609375,36.89068603515625,55.9929474609375,36.89068603515625C55.9929474609375,36.89068603515625,60.2139374609375,44.001416035156254,60.2139374609375,44.001416035156254Z" fill-rule="evenodd" fill="url(#master_svg2_25_5567)" fill-opacity="1"/></g></g></svg>