<svg xmlns="http://www.w3.org/2000/svg" xmlns:xlink="http://www.w3.org/1999/xlink" fill="none" version="1.1" width="72.955322265625" height="49.99931335449219" viewBox="0 0 72.955322265625 49.99931335449219"><defs><linearGradient x1="0.07416592538356781" y1="0.7292466759681702" x2="0.8993608355522156" y2="0.7292466759681702" id="master_svg0_25_6242"><stop offset="0%" stop-color="#1FB5C0" stop-opacity="0.4300000071525574"/><stop offset="100%" stop-color="#41DFE1" stop-opacity="0"/></linearGradient><linearGradient x1="0.07416592538356781" y1="0.7292466759681702" x2="0.7566118702890574" y2="0.8035528747469005" id="master_svg1_56_4943"><stop offset="0%" stop-color="#1FB5C0" stop-opacity="0.4300000071525574"/><stop offset="100%" stop-color="#41DFE1" stop-opacity="0"/></linearGradient><linearGradient x1="0.07416592538356781" y1="0.7292466759681702" x2="0.8408846259117126" y2="0.7292466759681702" id="master_svg2_25_6163"><stop offset="0%" stop-color="#1FB5C0" stop-opacity="0.27000001072883606"/><stop offset="100%" stop-color="#41DFE1" stop-opacity="0"/></linearGradient><linearGradient x1="0.07416592538356781" y1="0.7292466759681702" x2="0.6791033033878332" y2="0.7751947339516967" id="master_svg3_25_4151"><stop offset="0.7142857182770967%" stop-color="#41DFE1" stop-opacity="1"/><stop offset="100%" stop-color="#1FB5C0" stop-opacity="1"/></linearGradient><linearGradient x1="0.07416592538356781" y1="0.7292466759681702" x2="0.6791598071601003" y2="0.7743502785463203" id="master_svg4_25_4151"><stop offset="0.7142857182770967%" stop-color="#41DFE1" stop-opacity="1"/><stop offset="100%" stop-color="#1FB5C0" stop-opacity="1"/></linearGradient><linearGradient x1="2.655061960220337" y1="0.885313868522644" x2="0" y2="0.885313868522644" id="master_svg5_25_4323"><stop offset="0.7142857182770967%" stop-color="#41DFE1" stop-opacity="1"/><stop offset="100%" stop-color="#1FB5C0" stop-opacity="1"/></linearGradient><filter id="master_svg6_146_4535" filterUnits="objectBoundingBox" color-interpolation-filters="sRGB" x="-0.2689274023871978" y="-0.09381543566156099" width="1.5378548047743956" height="1.187630871323122"><feFlood flood-opacity="0" result="BackgroundImageFix"/><feBlend mode="normal" in="SourceGraphic" in2="BackgroundImageFix" result="shape"/><feGaussianBlur stdDeviation="1.5" result="effect1_foregroundBlur"/></filter><linearGradient x1="1" y1="0.5525878667831421" x2="0" y2="0.5525878667831421" id="master_svg7_25_6286"><stop offset="0%" stop-color="#5DFDFF" stop-opacity="0.658823549747467"/><stop offset="100%" stop-color="#4FEEFF" stop-opacity="0.00009999999747378752"/></linearGradient><filter id="master_svg8_146_4536" filterUnits="objectBoundingBox" color-interpolation-filters="sRGB" x="-0.4016351513491722" y="-0.12355042514682996" width="1.8032703026983445" height="1.2471008502936598"><feFlood flood-opacity="0" result="BackgroundImageFix"/><feBlend mode="normal" in="SourceGraphic" in2="BackgroundImageFix" result="shape"/><feGaussianBlur stdDeviation="1.5" result="effect1_foregroundBlur"/></filter><linearGradient x1="1" y1="0.5104897022247314" x2="-0.11023358255624771" y2="0.5104897022247314" id="master_svg9_5_1429"><stop offset="0%" stop-color="#58C5FF" stop-opacity="1"/><stop offset="100%" stop-color="#A6E6FF" stop-opacity="0"/></linearGradient><linearGradient x1="0.5" y1="0.45291444659233093" x2="1" y2="0.45291444659233093" id="master_svga_25_3379"><stop offset="0%" stop-color="#27A0AE" stop-opacity="1"/><stop offset="100%" stop-color="#52F1F3" stop-opacity="1"/></linearGradient><linearGradient x1="1.0220459699630737" y1="0.4593380093574524" x2="0" y2="0.4593380093574524" id="master_svgb_25_5087"><stop offset="0%" stop-color="#3BEAFB" stop-opacity="1"/><stop offset="100%" stop-color="#3BEAFB" stop-opacity="0"/></linearGradient><radialGradient cx="0" cy="0" r="1" gradientUnits="userSpaceOnUse" id="master_svgc_25_5088" gradientTransform="translate(89.62042859909548 35.31800079345703) rotate(90) scale(19.009761810302734 2.928858574574586)"><stop offset="0%" stop-color="#FFFFFF" stop-opacity="1"/><stop offset="100%" stop-color="#5DFDFF" stop-opacity="0.6600000262260437"/></radialGradient><linearGradient x1="0" y1="0" x2="0" y2="0" id="master_svgd_5_1456"><stop offset="0%" stop-color="#60B6FF" stop-opacity="1"/><stop offset="100%" stop-color="#FFFFFF" stop-opacity="0.00009999999747378752"/></linearGradient><linearGradient x1="0" y1="0" x2="0" y2="0" id="master_svge_5_1456"><stop offset="0%" stop-color="#60B6FF" stop-opacity="1"/><stop offset="100%" stop-color="#FFFFFF" stop-opacity="0.00009999999747378752"/></linearGradient><linearGradient x1="0" y1="0" x2="0" y2="0" id="master_svgf_5_1456"><stop offset="0%" stop-color="#60B6FF" stop-opacity="1"/><stop offset="100%" stop-color="#FFFFFF" stop-opacity="0.00009999999747378752"/></linearGradient></defs><g><g transform="matrix(0,1,-1,0,87.059326171875,-49.4208984375)"><path d="M79.1225123046875,34.5965138671875C79.1225123046875,34.5965138671875,98.21591230468749,34.5965138671875,98.21591230468749,34.5965138671875C98.21591230468749,34.5965138671875,88.1232123046875,18.8192138671875,88.1232123046875,18.8192138671875C88.1232123046875,18.8192138671875,68.2401123046875,18.8192138671875,68.2401123046875,18.8192138671875C68.2401123046875,18.8192138671875,79.1225123046875,34.5965138671875,79.1225123046875,34.5965138671875Z" fill-rule="evenodd" fill="url(#master_svg0_25_6242)" fill-opacity="1"/></g><g transform="matrix(0,1,-1,0,38.916259765625,-1.60595703125)"><path d="M20.2611083984375,34.4163513671875C20.2611083984375,34.4163513671875,42.0771083984375,34.4608513671875,42.0771083984375,34.4608513671875C42.0771083984375,34.4608513671875,50.9163083984375,18.6551513671875,50.9163083984375,18.6551513671875C50.9163083984375,18.6551513671875,30.968008398437497,18.6551513671875,30.968008398437497,18.6551513671875C30.968008398437497,18.6551513671875,20.2611083984375,34.4163513671875,20.2611083984375,34.4163513671875C20.2611083984375,34.4163513671875,20.2611083984375,34.4163513671875,20.2611083984375,34.4163513671875Z" fill-rule="evenodd" fill="url(#master_svg1_56_4943)" fill-opacity="1"/></g><g transform="matrix(0,1,-1,0,82.94140625,-21.981689453125)"><path d="M52.4615478515625,30.4798583984375C52.4615478515625,30.4798583984375,52.4615478515625,62.6804583984375,52.4615478515625,62.6804583984375C52.4615478515625,62.6804583984375,71.9810478515625,62.6804583984375,71.9810478515625,62.6804583984375C71.9810478515625,62.6804583984375,71.9810478515625,30.4798583984375,71.9810478515625,30.4798583984375C71.9810478515625,30.4798583984375,52.4615478515625,30.4798583984375,52.4615478515625,30.4798583984375Z" fill-rule="evenodd" fill="url(#master_svg2_25_6163)" fill-opacity="1"/></g><g transform="matrix(0,1,-1,0,82.16714477539062,-54.313079833984375)"><path d="M79.1225123046875,29.704332470703125C79.1225123046875,29.704332470703125,84.7929123046875,29.704332470703125,84.7929123046875,29.704332470703125C84.7929123046875,29.704332470703125,73.6805923046875,13.927032470703125,73.6805923046875,13.927032470703125C73.6805923046875,13.927032470703125,68.2401123046875,13.927032470703125,68.2401123046875,13.927032470703125C68.2401123046875,13.927032470703125,79.1225123046875,29.704332470703125,79.1225123046875,29.704332470703125Z" fill-rule="evenodd" fill="url(#master_svg3_25_4151)" fill-opacity="1"/></g><g transform="matrix(0,1,-1,0,34.023956298828125,-6.498260498046875)"><path d="M20.2611083984375,29.524047900390627C20.2611083984375,29.524047900390627,26.1448983984375,29.568647900390623,26.1448983984375,29.568647900390623C26.1448983984375,29.568647900390623,36.9991083984375,13.762847900390625,36.9991083984375,13.762847900390625C36.9991083984375,13.762847900390625,30.968008398437497,13.762847900390625,30.968008398437497,13.762847900390625C30.968008398437497,13.762847900390625,20.2611083984375,29.524047900390627,20.2611083984375,29.524047900390627C20.2611083984375,29.524047900390627,20.2611083984375,29.524047900390627,20.2611083984375,29.524047900390627Z" fill-rule="evenodd" fill="url(#master_svg4_25_4151)" fill-opacity="1"/></g><g transform="matrix(0,1,-1,0,77.08828735351562,-27.834808349609375)"><path d="M52.4615478515625,24.626739501953125C52.4615478515625,24.626739501953125,52.4615478515625,56.827339501953126,52.4615478515625,56.827339501953126C52.4615478515625,56.827339501953126,58.3240578515625,56.82723950195312,58.3240578515625,56.82723950195312C58.3240578515625,56.82723950195312,58.3240578515625,24.626739501953125,58.3240578515625,24.626739501953125C58.3240578515625,24.626739501953125,52.4615478515625,24.626739501953125,52.4615478515625,24.626739501953125Z" fill-rule="evenodd" fill="url(#master_svg5_25_4323)" fill-opacity="1"/></g><g transform="matrix(0,1,-1,0,80.92486572265625,-55.98577880859375)" filter="url(#master_svg6_146_4535)"><path d="M90.766222265625,60.43604345703125L90.766222265625,28.458343457031248L80.226722265625,13.35243345703125L79.610722265625,12.46954345703125L79.018722265625,13.36869645703125L68.455322265625,29.41294345703125L68.455322265625,59.48154345703125L79.018722265625,75.52574345703124L79.610722265625,76.42494345703125L80.226722265625,75.54204345703124L90.766222265625,60.43604345703125ZM89.766222265625,60.12164345703125L89.766222265625,28.77274345703125L79.634722265625,14.25158345703125L69.455322265625,29.71254345703125L69.455322265625,59.18184345703125L79.634722265625,74.64284345703125L89.766222265625,60.12164345703125Z" fill-rule="evenodd" fill="url(#master_svg7_25_6286)" fill-opacity="0.75"/></g><g transform="matrix(0,1,-1,0,65.737060546875,-55.737060546875)" filter="url(#master_svg8_146_4536)"><path d="M76.175960546875,15.8105L69.15421054687499,4.732322L68.731650546875,4.065649L60.237060546875,17.4833L60.237060546875,41.0714L70.036160546875,54.4973L76.175960546875,43.1572L76.175960546875,15.8105ZM68.732150546875,5.934351L61.237060546875,17.7732L61.237060546875,40.7453L69.910560546875,52.629L75.175960546875,42.9038L75.175960546875,16.1007L68.732150546875,5.934351Z" fill-rule="evenodd" fill="url(#master_svg9_5_1429)" fill-opacity="1"/></g><g transform="matrix(0,1,-1,0,71.233154296875,-65.677490234375)"><path d="M90.425422265625,18.77773203125C90.425422265625,18.77773203125,90.339822265625,50.98363203125,90.339822265625,50.98363203125C90.339822265625,50.98363203125,79.440422265625,66.77783203125,79.440422265625,66.77783203125C79.440422265625,66.77783203125,68.455322265625,50.77793203125,68.455322265625,50.77793203125C68.455322265625,50.77793203125,68.455322265625,18.77773203125,68.455322265625,18.77773203125C68.455322265625,18.77773203125,79.440422265625,2.77783203125,79.440422265625,2.77783203125C79.440422265625,2.77783203125,90.425422265625,18.77773203125,90.425422265625,18.77773203125Z" fill-rule="evenodd" fill="url(#master_svga_25_3379)" fill-opacity="1"/><path d="M90.339822265625,50.98363203125L90.425422265625,18.77773203125L80.046922265625,3.66121003125L79.440422265625,2.77783203125L78.833922265625,3.66121003125L68.455322265625,18.77773203125L68.455322265625,50.77793203125L78.834422265625,65.89523203125L79.440422265625,66.77783203125L80.04842226562499,65.89673203125L90.339822265625,50.98363203125ZM89.340722265625,50.67083203125L89.424622265625,19.08673203125L79.440422265625,4.54459203125L69.455322265625,19.08793203125L69.455322265625,50.46773203125L79.442522265625,65.01413203125L89.340722265625,50.67083203125Z" fill-rule="evenodd" fill="url(#master_svgb_25_5087)" fill-opacity="1"/><path d="M90.339822265625,50.98363203125L90.425422265625,18.77773203125L80.046922265625,3.66121003125L79.440422265625,2.77783203125L78.833922265625,3.66121003125L68.455322265625,18.77773203125L68.455322265625,50.77793203125L78.834422265625,65.89523203125L79.440422265625,66.77783203125L80.04842226562499,65.89673203125L90.339822265625,50.98363203125ZM89.340722265625,50.67083203125L89.424622265625,19.08673203125L79.440422265625,4.54459203125L69.455322265625,19.08793203125L69.455322265625,50.46773203125L79.442522265625,65.01413203125L89.340722265625,50.67083203125Z" fill-rule="evenodd" fill="url(#master_svgc_25_5088)" fill-opacity="1"/></g><g transform="matrix(0,1,-1,0,18.427032470703125,9.427276611328125)" style="opacity:0.390231192111969;"><path d="M23.8778779296875,14.427154541015625L4.4998779296875,14.427154541015625L4.4998779296875,13.427154541015625L23.8778779296875,13.427154541015625L23.8778779296875,14.427154541015625Z" fill-rule="evenodd" fill="url(#master_svgd_5_1456)" fill-opacity="1"/></g><g transform="matrix(0,1,-1,0,46.115264892578125,5.593292236328125)" style="opacity:0.390231192111969;"><path d="M40.081686328125,26.354278564453125L20.260986328125,26.354278564453125L20.260986328125,25.354278564453125L40.081686328125,25.354278564453125L40.081686328125,26.354278564453125Z" fill-rule="evenodd" fill="url(#master_svge_5_1456)" fill-opacity="1"/></g><g transform="matrix(0,1,-1,0,81.50729370117188,-54.537384033203125)" style="opacity:0.390231192111969;"><path d="M87.8430388671875,13.984954833984375L68.0223388671875,13.984954833984375L68.0223388671875,12.984954833984375L87.8430388671875,12.984954833984375L87.8430388671875,13.984954833984375Z" fill-rule="evenodd" fill="url(#master_svgf_5_1456)" fill-opacity="1"/></g></g></svg>