<svg xmlns="http://www.w3.org/2000/svg" xmlns:xlink="http://www.w3.org/1999/xlink" fill="none" version="1.1" width="101.0703125" height="87.519775390625" viewBox="0 0 101.0703125 87.519775390625"><defs><linearGradient x1="0" y1="0.40016546845436096" x2="1" y2="0.40016546845436096" id="master_svg0_5_1426"><stop offset="0%" stop-color="#0057FF" stop-opacity="0.00009999999747378752"/><stop offset="68.57143044471741%" stop-color="#3DB5FF" stop-opacity="0.6627451181411743"/><stop offset="100%" stop-color="#53F2FF" stop-opacity="1"/></linearGradient><linearGradient x1="0" y1="0.40016546845436096" x2="1" y2="0.40016546845436096" id="master_svg1_99_4471"><stop offset="0%" stop-color="#0057FF" stop-opacity="0.00009999999747378752"/><stop offset="52.14285850524902%" stop-color="#69FAFF" stop-opacity="0.6627451181411743"/><stop offset="100%" stop-color="#53F2FF" stop-opacity="1"/></linearGradient></defs><g><g transform="matrix(0,1,-1,0,111.897705078125,-90.242919921875)"><path d="M176.6108125,42.345992578125C177.8419125,49.507592578125,178.4242125,65.737692578125,176.6108125,78.494892578125C174.79751249999998,91.252092578125,173.2577125,91.469992578125,173.2577125,91.469992578125C173.2577125,91.469992578125,101.0703125,111.897392578125,101.0703125,111.897392578125C101.0703125,111.897392578125,101.0703125,10.827392578125,101.0703125,10.827392578125C101.0703125,10.827392578125,173.2577125,30.881592578125,173.2577125,30.881592578125C173.2577125,30.881592578125,175.37971249999998,35.184292578124996,176.6108125,42.345992578125Z" fill-rule="evenodd" fill="url(#master_svg0_5_1426)" fill-opacity="0.4300000071525574"/></g><g transform="matrix(0,1,-1,0,90.34228515625,-90.34228515625)"><path d="M176.85758515625,28.8716C177.28698515625,37.2344,177.32438515625,44.0429,176.15978515625,53.6772C174.99518515625,63.3116,172.50148515625,64.2295,172.50148515625,64.2295C172.50148515625,64.2295,90.34228515625,80.3808,90.34228515625,80.3808C90.34228515625,80.3808,90.34228515625,0,90.34228515625,0C90.34228515625,0,172.50148515625,16.8076,172.50148515625,16.8076C172.50148515625,16.8076,176.42808515625,20.5088,176.85758515625,28.8716Z" fill-rule="evenodd" fill="url(#master_svg1_99_4471)" fill-opacity="0.5299999713897705"/></g></g></svg>