<svg xmlns="http://www.w3.org/2000/svg" xmlns:xlink="http://www.w3.org/1999/xlink" fill="none" version="1.1" width="111.93798828125" height="60.718994140625" viewBox="0 0 111.93798828125 60.718994140625"><defs><linearGradient x1="0.5" y1="-3.0616171314629196e-17" x2="0.5" y2="1" id="master_svg0_99_2858"><stop offset="0%" stop-color="#B6B6B9" stop-opacity="0"/><stop offset="100%" stop-color="#B6B6B9" stop-opacity="1"/></linearGradient><linearGradient x1="0.5" y1="-3.0616171314629196e-17" x2="0.5" y2="1" id="master_svg1_99_3160"><stop offset="0%" stop-color="#FFFFFF" stop-opacity="0"/><stop offset="100%" stop-color="#3EE5FF" stop-opacity="1"/></linearGradient><linearGradient x1="0" y1="100" x2="0" y2="0" id="master_svg2_99_2871"><stop offset="0%" stop-color="#B6B6B9" stop-opacity="0.05999999865889549"/><stop offset="72.00000286102295%" stop-color="#B6B6B9" stop-opacity="0.05999999865889549"/><stop offset="100%" stop-color="#B6B6B9" stop-opacity="0.05999999865889549"/></linearGradient><linearGradient x1="0.5" y1="-3.0616171314629196e-17" x2="0.5" y2="1" id="master_svg3_99_3164"><stop offset="0%" stop-color="#FFFFFF" stop-opacity="0"/><stop offset="22.091394662857056%" stop-color="#FFFFFF" stop-opacity="0"/><stop offset="100%" stop-color="#3EE5FF" stop-opacity="1"/></linearGradient><linearGradient x1="0.5" y1="-3.0616171314629196e-17" x2="0.5" y2="1" id="master_svg4_99_2863"><stop offset="0%" stop-color="#B6B6B9" stop-opacity="0"/><stop offset="54.9393355846405%" stop-color="#B6B6B9" stop-opacity="0"/><stop offset="100%" stop-color="#B6B6B9" stop-opacity="1"/></linearGradient><linearGradient x1="0.5" y1="-3.0616171314629196e-17" x2="0.5" y2="1" id="master_svg5_99_3156"><stop offset="0%" stop-color="#FFFFFF" stop-opacity="0"/><stop offset="66.00876450538635%" stop-color="#FFFFFF" stop-opacity="0"/><stop offset="100%" stop-color="#3EE5FF" stop-opacity="1"/></linearGradient></defs><g><g><path d="M108.938,25.281Q108.938,25.828,108.874,26.3743Q108.81,26.9206,108.683,27.4649Q108.555,28.0093,108.365,28.5503Q108.174,29.0913,107.92,29.6278Q107.667,30.1643,107.351,30.6948Q107.035,31.2254,106.657,31.7488Q106.28,32.2722,105.842,32.7872Q105.404,33.3022,104.906,33.8076Q104.408,34.3129,103.852,34.8073Q103.296,35.3018,102.6835,35.7842Q102.0705,36.2666,101.402,36.7357Q100.7335,37.2049,100.0111,37.6597Q99.2887,38.1144,98.5141,38.5538Q97.7395,38.9931,96.9146,39.4159Q96.0897,39.8387,95.2164,40.244Q94.3432,40.6493,93.4237,41.036Q92.5043,41.4228,91.5408,41.7901Q90.5773,42.1574,89.5722,42.5044Q88.567,42.8514,87.5226,43.1773Q86.4782,43.5031,85.397,43.807Q84.3158,44.1108,83.2005,44.392Q82.0852,44.6732,80.9384,44.9311Q79.7916,45.1889,78.6162,45.4228Q77.4407,45.6566,76.2393,45.866Q75.038,46.0753,73.8137,46.2595Q72.5894,46.4438,71.3451,46.6026Q70.1008,46.7614,68.8394,46.8943Q67.5781,47.0272,66.3027,47.1339Q65.0274,47.2406,63.7412,47.3208Q62.4549,47.4011,61.1609,47.4547Q59.8668,47.5083,58.5681,47.5352Q57.2693,47.562,55.969,47.562Q54.6687,47.562,53.3699,47.5352Q52.0712,47.5083,50.7771,47.4547Q49.4831,47.4011,48.1968,47.3208Q46.9106,47.2406,45.6353,47.1339Q44.3599,47.0272,43.0986,46.8943Q41.8372,46.7614,40.5929,46.6026Q39.3486,46.4438,38.1243,46.2595Q36.9,46.0753,35.6986,45.866Q34.497299999999996,45.6566,33.321799999999996,45.4228Q32.1464,45.1889,30.9996,44.9311Q29.8528,44.6732,28.7375,44.392Q27.6222,44.1108,26.541,43.807Q25.4598,43.5031,24.4154,43.1773Q23.371,42.8514,22.3658,42.5044Q21.3607,42.1574,20.3972,41.7901Q19.4337,41.4228,18.5143,41.036Q17.5948,40.6493,16.721600000000002,40.244Q15.8483,39.8387,15.0234,39.4159Q14.1985,38.9931,13.4239,38.5538Q12.6493,38.1144,11.92689,37.6597Q11.20447,37.2049,10.535969999999999,36.7357Q9.86748,36.2666,9.25451,35.7842Q8.641549999999999,35.3018,8.08559,34.8073Q7.52963,34.3129,7.03202,33.8076Q6.53442,33.3022,6.09635,32.7872Q5.65829,32.2722,5.28083,31.7488Q4.90337,31.2254,4.58741,30.6948Q4.27146,30.1643,4.01778,29.6278Q3.764105,29.0913,3.573309,28.5503Q3.382513,28.0093,3.25506,27.4649Q3.127607,26.9206,3.0638035,26.3743Q3,25.828,3,25.281Q3,24.734,3.0638035,24.1877Q3.127607,23.6414,3.25506,23.0971Q3.382513,22.5527,3.573309,22.0117Q3.764105,21.4706,4.01778,20.9342Q4.27146,20.3977,4.58741,19.8672Q4.90337,19.3366,5.28083,18.813200000000002Q5.65829,18.2897,6.09635,17.7748Q6.53442,17.2598,7.03202,16.7544Q7.52963,16.2491,8.08559,15.7546Q8.641549999999999,15.2602,9.25451,14.7778Q9.86748,14.2954,10.535969999999999,13.8263Q11.20447,13.3571,11.92689,12.90234Q12.6493,12.44755,13.4239,12.00822Q14.1985,11.56889,15.0234,11.14608Q15.8483,10.72327,16.721600000000002,10.31799Q17.5948,9.91272,18.5143,9.52595Q19.4337,9.13919,20.3972,8.77187Q21.3607,8.40455,22.3658,8.057549999999999Q23.371,7.71056,24.4154,7.38473Q25.4598,7.0589,26.541,6.75502Q27.6222,6.45115,28.7375,6.16995Q29.8528,5.88875,30.9996,5.63091Q32.1464,5.37307,33.321799999999996,5.13921Q34.497299999999996,4.90536,35.6986,4.69604Q36.9,4.48672,38.1243,4.30246Q39.3486,4.11819,40.5929,3.959412Q41.8372,3.800636,43.0986,3.667733Q44.3599,3.534831,45.6353,3.428123Q46.9106,3.321415,48.1968,3.241158Q49.4831,3.160901,50.7771,3.107289Q52.0712,3.0536769,53.3699,3.0268384Q54.6687,3,55.969,3Q57.2693,3,58.5681,3.0268384Q59.8668,3.0536769,61.1609,3.107289Q62.4549,3.160901,63.7412,3.241158Q65.0274,3.321415,66.3027,3.428123Q67.5781,3.534831,68.8394,3.667733Q70.1008,3.800636,71.3451,3.959412Q72.5894,4.11819,73.8137,4.30246Q75.038,4.48672,76.2393,4.69604Q77.4407,4.90536,78.6162,5.13921Q79.7916,5.37307,80.9384,5.63091Q82.0852,5.88875,83.2005,6.16995Q84.3158,6.45115,85.397,6.75502Q86.4782,7.0589,87.5226,7.38473Q88.567,7.71056,89.5722,8.057549999999999Q90.5773,8.40455,91.5408,8.77187Q92.5043,9.13919,93.4237,9.52595Q94.3432,9.91272,95.2164,10.31799Q96.0897,10.72327,96.9146,11.14608Q97.7395,11.56889,98.5141,12.00822Q99.2887,12.44755,100.0111,12.90234Q100.7335,13.3571,101.402,13.8263Q102.0705,14.2954,102.6835,14.7778Q103.296,15.2602,103.852,15.7546Q104.408,16.2491,104.906,16.7544Q105.404,17.2598,105.842,17.7748Q106.28,18.2897,106.657,18.813200000000002Q107.035,19.3366,107.351,19.8672Q107.667,20.3977,107.92,20.9342Q108.174,21.4706,108.365,22.0117Q108.555,22.5527,108.683,23.0971Q108.81,23.6414,108.874,24.1877Q108.938,24.734,108.938,25.281Z" fill="url(#master_svg0_99_2858)" fill-opacity="0.05999999865889549"/><path d="M55.969,0Q64.4237,0,71.9681,0.9506899999999998Q84.5419,2.53526,94.5869,6.76064Q106.901,11.94052,110.476,19.0964Q111.938,22.0234,111.938,25.281Q111.938,28.0865,110.854,30.6468Q107.6,38.3275,94.5869,43.8014Q85.2942,47.7103,73.8372,49.3591Q65.479,50.562,55.969,50.562Q50.3325,50.562,45.1007,50.1394Q29.4052,48.8718,17.351100000000002,43.8014Q0,36.5028,0,25.281Q0,14.0592,17.351100000000002,6.76064Q28.6574,2.004702,43.1674,0.59442Q49.2836,0,55.969,0ZM55.969,47.562Q57.2693,47.562,58.5681,47.5352Q59.8668,47.5083,61.1609,47.4547Q62.4549,47.4011,63.7412,47.3208Q65.0274,47.2406,66.3027,47.1339Q67.5781,47.0272,68.8394,46.8943Q70.1008,46.7614,71.3451,46.6026Q72.5894,46.4438,73.8137,46.2595Q75.038,46.0753,76.2393,45.866Q77.4407,45.6566,78.6162,45.4228Q79.7916,45.1889,80.9384,44.9311Q82.0852,44.6732,83.2005,44.392Q84.3158,44.1108,85.397,43.807Q86.4782,43.5031,87.5226,43.1773Q88.567,42.8514,89.5722,42.5044Q90.5773,42.1574,91.5408,41.7901Q92.5043,41.4228,93.4237,41.036Q94.3432,40.6493,95.2164,40.244Q96.0897,39.8387,96.9146,39.4159Q97.7395,38.9931,98.5141,38.5538Q99.2887,38.1144,100.0111,37.6597Q100.7335,37.2049,101.402,36.7357Q102.0705,36.2666,102.6835,35.7842Q103.296,35.3018,103.852,34.8073Q104.408,34.3129,104.906,33.8076Q105.404,33.3022,105.842,32.7872Q106.28,32.2722,106.657,31.7488Q107.035,31.2254,107.351,30.6948Q107.667,30.1643,107.92,29.6278Q108.174,29.0913,108.365,28.5503Q108.555,28.0093,108.683,27.4649Q108.81,26.9206,108.874,26.3743Q108.938,25.828,108.938,25.281Q108.938,24.734,108.874,24.1877Q108.81,23.6414,108.683,23.0971Q108.555,22.5527,108.365,22.0117Q108.174,21.4706,107.92,20.9342Q107.667,20.3977,107.351,19.8672Q107.035,19.3366,106.657,18.813200000000002Q106.28,18.2897,105.842,17.7748Q105.404,17.2598,104.906,16.7544Q104.408,16.2491,103.852,15.7546Q103.296,15.2602,102.6835,14.7778Q102.0705,14.2954,101.402,13.8263Q100.7335,13.3571,100.0111,12.90234Q99.2887,12.44755,98.5141,12.00822Q97.7395,11.56889,96.9146,11.14608Q96.0897,10.72327,95.2164,10.31799Q94.3432,9.91272,93.4237,9.52595Q92.5043,9.13919,91.5408,8.77187Q90.5773,8.40455,89.5722,8.057549999999999Q88.567,7.71056,87.5226,7.38473Q86.4782,7.0589,85.397,6.75502Q84.3158,6.45115,83.2005,6.16995Q82.0852,5.88875,80.9384,5.63091Q79.7916,5.37307,78.6162,5.13921Q77.4407,4.90536,76.2393,4.69604Q75.038,4.48672,73.8137,4.30246Q72.5894,4.11819,71.3451,3.959412Q70.1008,3.800636,68.8394,3.667733Q67.5781,3.534831,66.3027,3.428123Q65.0274,3.321415,63.7412,3.241158Q62.4549,3.160901,61.1609,3.107289Q59.8668,3.0536769,58.5681,3.0268384Q57.2693,3,55.969,3Q54.6687,3,53.3699,3.0268384Q52.0712,3.0536769,50.7771,3.107289Q49.4831,3.160901,48.1968,3.241158Q46.9106,3.321415,45.6353,3.428123Q44.3599,3.534831,43.0986,3.667733Q41.8372,3.800636,40.5929,3.959412Q39.3486,4.11819,38.1243,4.30246Q36.9,4.48672,35.6986,4.69604Q34.497299999999996,4.90536,33.321799999999996,5.13921Q32.1464,5.37307,30.9996,5.63091Q29.8528,5.88875,28.7375,6.16995Q27.6222,6.45115,26.541,6.75502Q25.4598,7.0589,24.4154,7.38473Q23.371,7.71056,22.3658,8.057549999999999Q21.3607,8.40455,20.3972,8.77187Q19.4337,9.13919,18.5143,9.52595Q17.5948,9.91272,16.721600000000002,10.31799Q15.8483,10.72327,15.0234,11.14608Q14.1985,11.56889,13.4239,12.00822Q12.6493,12.44755,11.92689,12.90234Q11.20447,13.3571,10.535969999999999,13.8263Q9.86748,14.2954,9.25451,14.7778Q8.641549999999999,15.2602,8.08559,15.7546Q7.52963,16.2491,7.03202,16.7544Q6.53442,17.2598,6.09635,17.7748Q5.65829,18.2897,5.28083,18.813200000000002Q4.90337,19.3366,4.58741,19.8672Q4.27146,20.3977,4.01778,20.9342Q3.764105,21.4706,3.573309,22.0117Q3.382513,22.5527,3.25506,23.0971Q3.127607,23.6414,3.0638035,24.1877Q3,24.734,3,25.281Q3,25.828,3.0638035,26.3743Q3.127607,26.9206,3.25506,27.4649Q3.382513,28.0093,3.573309,28.5503Q3.764105,29.0913,4.01778,29.6278Q4.27146,30.1643,4.58741,30.6948Q4.90337,31.2254,5.28083,31.7488Q5.65829,32.2722,6.09635,32.7872Q6.53442,33.3022,7.03202,33.8076Q7.52963,34.3129,8.08559,34.8073Q8.641549999999999,35.3018,9.25451,35.7842Q9.86748,36.2666,10.535969999999999,36.7357Q11.20447,37.2049,11.92689,37.6597Q12.6493,38.1144,13.4239,38.5538Q14.1985,38.9931,15.0234,39.4159Q15.8483,39.8387,16.721600000000002,40.244Q17.5948,40.6493,18.5143,41.036Q19.4337,41.4228,20.3972,41.7901Q21.3607,42.1574,22.3658,42.5044Q23.371,42.8514,24.4154,43.1773Q25.4598,43.5031,26.541,43.807Q27.6222,44.1108,28.7375,44.392Q29.8528,44.6732,30.9996,44.9311Q32.1464,45.1889,33.321799999999996,45.4228Q34.497299999999996,45.6566,35.6986,45.866Q36.9,46.0753,38.1243,46.2595Q39.3486,46.4438,40.5929,46.6026Q41.8372,46.7614,43.0986,46.8943Q44.3599,47.0272,45.6353,47.1339Q46.9106,47.2406,48.1968,47.3208Q49.4831,47.4011,50.7771,47.4547Q52.0712,47.5083,53.3699,47.5352Q54.6687,47.562,55.969,47.562Z" fill-rule="evenodd" fill="url(#master_svg1_99_3160)" fill-opacity="1"/></g><g><path d="M95.718994140625,42.000005859375Q95.718994140625,42.410405859375004,95.671094140625,42.820405859375Q95.623194140625,43.230305859375,95.527594140625,43.638805859375Q95.431894140625,44.047205859375,95.288794140625,44.453205859375004Q95.145594140625,44.859205859374995,94.955194140625,45.261705859375Q94.764794140625,45.664305859375,94.527694140625,46.062405859375005Q94.290594140625,46.460505859375004,94.007394140625,46.853305859375Q93.724094140625,47.246005859375,93.395394140625,47.632505859375Q93.066594140625,48.018905859374996,92.693194140625,48.398105859375Q92.319794140625,48.777305859375005,91.902594140625,49.148305859375Q91.485294140625,49.519305859374995,91.025394140625,49.881305859375004Q90.565394140625,50.243205859374996,90.063694140625,50.595305859375Q89.561994140625,50.947305859375,89.019894140625,51.288605859375Q88.477794140625,51.629805859375,87.896494140625,51.959505859375Q87.315194140625,52.289205859375,86.696194140625,52.606405859375Q86.077094140625,52.923705859375005,85.421794140625,53.227805859374996Q84.766494140625,53.531905859375,84.076494140625,53.822105859375Q83.386494140625,54.112305859375,82.663494140625,54.388005859375Q81.940394140625,54.663605859375,81.186094140625,54.924005859375Q80.431794140625,55.184305859375,79.647994140625,55.428805859375004Q78.86429414062499,55.673305859375,78.052894140625,55.901305859375Q77.241594140625,56.129405859375,76.404594140625,56.340405859375Q75.567594140625,56.551405859374995,74.706994140625,56.744805859375Q73.846394140625,56.938305859375,72.964294140625,57.113805859375Q72.082194140625,57.289305859375,71.18069414062501,57.446305859375Q70.279094140625,57.603405859375,69.360394140625,57.741705859375Q68.441594140625,57.879905859375,67.50779414062501,57.999105859375Q66.57399414062499,58.118205859375,65.627494140625,58.218005859375Q64.680894140625,58.317705859375,63.723794140625,58.397705859375Q62.766794140625,58.477805859375,61.801494140625,58.538005859375Q60.836294140625,58.598305859375,59.865194140625,58.638505859375Q58.894094140625,58.678705859375,57.919394140625,58.698905859375Q56.944794140625,58.719005859375,55.968994140625,58.719005859375Q54.993194140625,58.719005859375,54.018594140625,58.698905859375Q53.043894140625,58.678705859375,52.072794140625,58.638505859375Q51.101694140625,58.598305859375,50.136494140625,58.538005859375Q49.171194140625,58.477805859375,48.214194140625,58.397705859375Q47.257094140625,58.317705859375,46.310494140624996,58.218005859375Q45.363994140624996,58.118205859375,44.430194140625005,57.999105859375Q43.496394140625,57.879905859375,42.577594140624996,57.741705859375Q41.658894140625,57.603405859375,40.757294140625,57.446305859375Q39.855794140625,57.289305859375,38.973694140625,57.113805859375Q38.091594140625,56.938305859375,37.230994140625,56.744805859375Q36.370394140624995,56.551405859374995,35.533394140625,56.340405859375Q34.696394140625,56.129405859375,33.885094140625,55.901305859375Q33.073694140625,55.673305859375,32.289894140625,55.428805859375004Q31.506194140625,55.184305859375,30.751894140624998,54.924005859375Q29.997594140625,54.663605859375,29.274494140625002,54.388005859375Q28.551494140625,54.112305859375,27.861494140625,53.822105859375Q27.171494140625,53.531905859375,26.516194140625,53.227805859374996Q25.860874140625,52.923705859375005,25.241824140625,52.606405859375Q24.622784140625,52.289205859375,24.041494140624998,51.959505859375Q23.460204140625,51.629805859375,22.918074140625002,51.288605859375Q22.375944140625002,50.947305859375,21.874284140625,50.595305859375Q21.372614140625,50.243205859374996,20.912624140625,49.881305859375004Q20.452634140625,49.519305859374995,20.035424140625,49.148305859375Q19.618204140625,48.777305859375005,19.244784140625,48.398105859375Q18.871354140625,48.018905859374996,18.542614140625,47.632505859375Q18.213874140625,47.246005859375,17.930614140625,46.853305859375Q17.647354140625,46.460505859375004,17.410254140625,46.062405859375005Q17.173150140625,45.664305859375,16.982779140625,45.261705859375Q16.792408140625,44.859205859374995,16.649228140625,44.453205859375004Q16.506047140625,44.047205859375,16.410401140625,43.638805859375Q16.314755340625,43.230305859375,16.266874740625,42.820405859375Q16.218994140625,42.410405859375004,16.218994140625,42.000005859375Q16.218994140625,41.589605859375,16.266874740625,41.179605859375Q16.314755340625,40.769705859375,16.410401140625,40.361305859375Q16.506047140625,39.952805859375,16.649228140625,39.546805859375Q16.792408140625,39.140805859375,16.982779140625,38.738305859375004Q17.173150140625,38.335705859375,17.410254140625,37.937605859375Q17.647354140625,37.539505859375,17.930614140625,37.146705859375004Q18.213874140625,36.754005859375,18.542614140625,36.367505859375Q18.871354140625,35.981105859375,19.244784140625,35.601905859375Q19.618204140625,35.222735859375,20.035424140625,34.851715859375Q20.452634140625,34.480685859375,20.912624140625,34.118725859375Q21.372614140625,33.756755859375,21.874284140625,33.404725859375Q22.375944140625002,33.052685859375,22.918074140625002,32.711425859375Q23.460204140625,32.370165859375,24.041494140624998,32.040505859375Q24.622784140625,31.710845859375,25.241824140625,31.393585859375Q25.860874140625,31.076315859375,26.516194140625,30.772215859375Q27.171494140625,30.468105859375,27.861494140625,30.177885859375Q28.551494140625,29.887675859375,29.274494140625002,29.612045859375Q29.997594140625,29.336415859375002,30.751894140624998,29.076045859375Q31.506194140625,28.815675859375,32.289894140625,28.571175859375Q33.073694140625,28.326685859375,33.885094140625,28.098665859375Q34.696394140625,27.870645859375,35.533394140625,27.659645859375Q36.370394140624995,27.448635859375,37.230994140625,27.255165859375Q38.091594140625,27.061685859375,38.973694140625,26.886205859375Q39.855794140625,26.710725859375,40.757294140625,26.553665859375Q41.658894140625,26.396595859375,42.577594140624996,26.258330859375Q43.496394140625,26.120061859375,44.430194140625005,26.000920859375Q45.363994140624996,25.881778859375,46.310494140624996,25.782052859375Q47.257094140625,25.682326859375,48.214194140625,25.602256859375Q49.171194140625,25.522185859375,50.136494140625,25.461963859375Q51.101694140625,25.401741859375,52.072794140625,25.361512459375Q53.043894140625,25.321283359375,54.018594140625,25.301144659375Q54.993194140625,25.281005859375,55.968994140625,25.281005859375Q56.944794140625,25.281005859375,57.919394140625,25.301144659375Q58.894094140625,25.321283359375,59.865194140625,25.361512459375Q60.836294140625,25.401741859375,61.801494140625,25.461963859375Q62.766794140625,25.522185859375,63.723794140625,25.602256859375Q64.680894140625,25.682326859375,65.627494140625,25.782052859375Q66.57399414062499,25.881778859375,67.50779414062501,26.000920859375Q68.441594140625,26.120061859375,69.360394140625,26.258330859375Q70.279094140625,26.396595859375,71.18069414062501,26.553665859375Q72.082194140625,26.710725859375,72.964294140625,26.886205859375Q73.846394140625,27.061685859375,74.706994140625,27.255165859375Q75.567594140625,27.448635859375,76.404594140625,27.659645859375Q77.241594140625,27.870645859375,78.052894140625,28.098665859375Q78.86429414062499,28.326685859375,79.647994140625,28.571175859375Q80.431794140625,28.815675859375,81.186094140625,29.076045859375Q81.940394140625,29.336415859375002,82.663494140625,29.612045859375Q83.386494140625,29.887675859375,84.076494140625,30.177885859375Q84.766494140625,30.468105859375,85.421794140625,30.772215859375Q86.077094140625,31.076315859375,86.696194140625,31.393585859375Q87.315194140625,31.710845859375,87.896494140625,32.040505859375Q88.477794140625,32.370165859375,89.019894140625,32.711425859375Q89.561994140625,33.052685859375,90.063694140625,33.404725859375Q90.565394140625,33.756755859375,91.025394140625,34.118725859375Q91.485394140625,34.480685859375,91.902594140625,34.851715859375Q92.319794140625,35.222735859375,92.693194140625,35.601905859375Q93.066594140625,35.981105859375,93.395394140625,36.367505859375Q93.724094140625,36.754005859375,94.007394140625,37.146705859375004Q94.290594140625,37.539505859375,94.527694140625,37.937605859375Q94.764794140625,38.335705859375,94.955194140625,38.738305859375004Q95.145594140625,39.140805859375,95.288794140625,39.546805859375Q95.431894140625,39.952805859375,95.527594140625,40.361305859375Q95.623194140625,40.769705859375,95.671094140625,41.179605859375Q95.718994140625,41.589605859375,95.718994140625,42.000005859375Z" fill="url(#master_svg2_99_2871)" fill-opacity="1"/><path d="M84.851894140625,28.334325859375Q78.182094140625,25.528977859375,70.016294140625,24.281017859375Q63.472994140625,23.281005859375,55.968994140625,23.281005859375Q51.751894140625,23.281005859375,47.838094140625,23.596835859375Q36.096894140625,24.544334859375,27.086094140625,28.334325859375Q16.138377740625,32.938975859375,14.505304140625,39.600805859375Q14.218994140625,40.768805859375,14.218994140625,42.000005859375Q14.218994140625,43.676505859375,14.749884140625,45.235805859375Q16.832623140625,51.353005859375,27.086094140625,55.665705859374995Q32.518394140625,57.950505859375,38.943094140625,59.202305859375Q46.727594140625,60.719005859375,55.968994140625,60.719005859375Q64.403194140625,60.719005859375,71.623994140625,59.455705859375Q78.844694140625,58.192305859375,84.851894140625,55.665705859374995Q92.070394140625,52.629605859375005,95.239294140625,48.699005859375Q97.718994140625,45.623305859375,97.718994140625,42.000005859375Q97.718994140625,38.389005859375004,95.256194140625,35.321905859375Q92.089594140625,31.378545859375002,84.851894140625,28.334325859375ZM55.968994140625,58.719005859375Q56.944794140625,58.719005859375,57.919394140625,58.698905859375Q58.894094140625,58.678705859375,59.865194140625,58.638505859375Q60.836294140625,58.598305859375,61.801494140625,58.538005859375Q62.766794140625,58.477805859375,63.723794140625,58.397705859375Q64.680894140625,58.317705859375,65.627494140625,58.218005859375Q66.57399414062499,58.118205859375,67.50779414062501,57.999105859375Q68.441594140625,57.879905859375,69.360394140625,57.741705859375Q70.279094140625,57.603405859375,71.18069414062501,57.446305859375Q72.082194140625,57.289305859375,72.964294140625,57.113805859375Q73.846394140625,56.938305859375,74.706994140625,56.744805859375Q75.567594140625,56.551405859374995,76.404594140625,56.340405859375Q77.241594140625,56.129405859375,78.052894140625,55.901305859375Q78.86429414062499,55.673305859375,79.647994140625,55.428805859375004Q80.431794140625,55.184305859375,81.186094140625,54.924005859375Q81.940394140625,54.663605859375,82.663494140625,54.388005859375Q83.386494140625,54.112305859375,84.076494140625,53.822105859375Q84.766494140625,53.531905859375,85.421794140625,53.227805859374996Q86.077094140625,52.923705859375005,86.696194140625,52.606405859375Q87.315194140625,52.289205859375,87.896494140625,51.959505859375Q88.477794140625,51.629805859375,89.019894140625,51.288605859375Q89.561994140625,50.947305859375,90.063694140625,50.595305859375Q90.565394140625,50.243205859374996,91.025394140625,49.881305859375004Q91.485394140625,49.519305859374995,91.902594140625,49.148305859375Q92.319794140625,48.777305859375005,92.693194140625,48.398105859375Q93.066594140625,48.018905859374996,93.395394140625,47.632505859375Q93.724094140625,47.246005859375,94.007394140625,46.853305859375Q94.290594140625,46.460505859375004,94.527694140625,46.062405859375005Q94.764794140625,45.664305859375,94.955194140625,45.261705859375Q95.145594140625,44.859205859374995,95.288794140625,44.453205859375004Q95.431894140625,44.047205859375,95.527594140625,43.638805859375Q95.623194140625,43.230305859375,95.671094140625,42.820405859375Q95.718994140625,42.410405859375004,95.718994140625,42.000005859375Q95.718994140625,41.589605859375,95.671094140625,41.179605859375Q95.623194140625,40.769705859375,95.527594140625,40.361305859375Q95.431894140625,39.952805859375,95.288794140625,39.546805859375Q95.145594140625,39.140805859375,94.955194140625,38.738305859375004Q94.764794140625,38.335705859375,94.527694140625,37.937605859375Q94.290594140625,37.539505859375,94.007394140625,37.146705859375004Q93.724094140625,36.754005859375,93.395394140625,36.367505859375Q93.066594140625,35.981105859375,92.693194140625,35.601905859375Q92.319794140625,35.222735859375,91.902594140625,34.851715859375Q91.485294140625,34.480685859375,91.025394140625,34.118725859375Q90.565394140625,33.756755859375,90.063694140625,33.404725859375Q89.561994140625,33.052685859375,89.019894140625,32.711425859375Q88.477794140625,32.370165859375,87.896494140625,32.040505859375Q87.315194140625,31.710845859375,86.696194140625,31.393585859375Q86.077094140625,31.076315859375,85.421794140625,30.772215859375Q84.766494140625,30.468105859375,84.076494140625,30.177885859375Q83.386494140625,29.887675859375,82.663494140625,29.612045859375Q81.940394140625,29.336415859375002,81.186094140625,29.076045859375Q80.431794140625,28.815675859375,79.647994140625,28.571175859375Q78.86429414062499,28.326685859375,78.052894140625,28.098665859375Q77.241594140625,27.870645859375,76.404594140625,27.659645859375Q75.567594140625,27.448635859375,74.706994140625,27.255165859375Q73.846394140625,27.061685859375,72.964294140625,26.886205859375Q72.082194140625,26.710725859375,71.18069414062501,26.553665859375Q70.279094140625,26.396595859375,69.360394140625,26.258330859375Q68.441594140625,26.120061859375,67.50779414062501,26.000920859375Q66.57399414062499,25.881778859375,65.627494140625,25.782052859375Q64.680894140625,25.682326859375,63.723794140625,25.602256859375Q62.766794140625,25.522185859375,61.801494140625,25.461963859375Q60.836294140625,25.401741859375,59.865194140625,25.361512459375Q58.894094140625,25.321283359375,57.919394140625,25.301144659375Q56.944794140625,25.281005859375,55.968994140625,25.281005859375Q54.993194140625,25.281005859375,54.018594140625,25.301144659375Q53.043894140625,25.321283359375,52.072794140625,25.361512459375Q51.101694140625,25.401741859375,50.136494140625,25.461963859375Q49.171194140625,25.522185859375,48.214194140625,25.602256859375Q47.257094140625,25.682326859375,46.310494140624996,25.782052859375Q45.363994140624996,25.881778859375,44.430194140625005,26.000920859375Q43.496394140625,26.120061859375,42.577594140624996,26.258330859375Q41.658894140625,26.396595859375,40.757294140625,26.553665859375Q39.855794140625,26.710725859375,38.973694140625,26.886205859375Q38.091594140625,27.061685859375,37.230994140625,27.255165859375Q36.370394140624995,27.448635859375,35.533394140625,27.659645859375Q34.696394140625,27.870645859375,33.885094140625,28.098665859375Q33.073694140625,28.326685859375,32.289894140625,28.571175859375Q31.506194140625,28.815675859375,30.751894140624998,29.076045859375Q29.997594140625,29.336415859375002,29.274494140625002,29.612045859375Q28.551494140625,29.887675859375,27.861494140625,30.177885859375Q27.171494140625,30.468105859375,26.516194140625,30.772215859375Q25.860874140625,31.076315859375,25.241824140625,31.393585859375Q24.622784140625,31.710845859375,24.041494140624998,32.040505859375Q23.460204140625,32.370165859375,22.918074140625002,32.711425859375Q22.375944140625002,33.052685859375,21.874284140625,33.404725859375Q21.372614140625,33.756755859375,20.912624140625,34.118725859375Q20.452634140625,34.480685859375,20.035424140625,34.851715859375Q19.618204140625,35.222735859375,19.244784140625,35.601905859375Q18.871354140625,35.981105859375,18.542614140625,36.367505859375Q18.213874140625,36.754005859375,17.930614140625,37.146705859375004Q17.647354140625,37.539505859375,17.410254140625,37.937605859375Q17.173150140625,38.335705859375,16.982779140625,38.738305859375004Q16.792408140625,39.140805859375,16.649228140625,39.546805859375Q16.506047140625,39.952805859375,16.410401140625,40.361305859375Q16.314755340625,40.769705859375,16.266874740625,41.179605859375Q16.218994140625,41.589605859375,16.218994140625,42.000005859375Q16.218994140625,42.410405859375004,16.266874740625,42.820405859375Q16.314755340625,43.230305859375,16.410401140625,43.638805859375Q16.506047140625,44.047205859375,16.649228140625,44.453205859375004Q16.792408140625,44.859205859374995,16.982779140625,45.261705859375Q17.173150140625,45.664305859375,17.410254140625,46.062405859375005Q17.647354140625,46.460505859375004,17.930614140625,46.853305859375Q18.213874140625,47.246005859375,18.542614140625,47.632505859375Q18.871354140625,48.018905859374996,19.244784140625,48.398105859375Q19.618204140625,48.777305859375005,20.035424140625,49.148305859375Q20.452634140625,49.519305859374995,20.912624140625,49.881305859375004Q21.372614140625,50.243205859374996,21.874284140625,50.595305859375Q22.375944140625002,50.947305859375,22.918074140625002,51.288605859375Q23.460204140625,51.629805859375,24.041494140624998,51.959505859375Q24.622784140625,52.289205859375,25.241824140625,52.606405859375Q25.860874140625,52.923705859375005,26.516194140625,53.227805859374996Q27.171494140625,53.531905859375,27.861494140625,53.822105859375Q28.551494140625,54.112305859375,29.274494140625002,54.388005859375Q29.997594140625,54.663605859375,30.751894140624998,54.924005859375Q31.506194140625,55.184305859375,32.289894140625,55.428805859375004Q33.073694140625,55.673305859375,33.885094140625,55.901305859375Q34.696394140625,56.129405859375,35.533394140625,56.340405859375Q36.370394140624995,56.551405859374995,37.230994140625,56.744805859375Q38.091594140625,56.938305859375,38.973694140625,57.113805859375Q39.855794140625,57.289305859375,40.757294140625,57.446305859375Q41.658894140625,57.603405859375,42.577594140624996,57.741705859375Q43.496394140625,57.879905859375,44.430194140625005,57.999105859375Q45.363994140624996,58.118205859375,46.310494140624996,58.218005859375Q47.257094140625,58.317705859375,48.214194140625,58.397705859375Q49.171194140625,58.477805859375,50.136494140625,58.538005859375Q51.101694140625,58.598305859375,52.072794140625,58.638505859375Q53.043894140625,58.678705859375,54.018594140625,58.698905859375Q54.993194140625,58.719005859375,55.968994140625,58.719005859375Z" fill-rule="evenodd" fill="url(#master_svg3_99_3164)" fill-opacity="0.5"/></g><g><path d="M108.938,25.281Q108.938,25.828,108.874,26.3743Q108.81,26.9206,108.683,27.4649Q108.555,28.0093,108.365,28.5503Q108.174,29.0913,107.92,29.6278Q107.667,30.1643,107.351,30.6948Q107.035,31.2254,106.657,31.7488Q106.28,32.2722,105.842,32.7872Q105.404,33.3022,104.906,33.8076Q104.408,34.3129,103.852,34.8073Q103.296,35.3018,102.6835,35.7842Q102.0705,36.2666,101.402,36.7357Q100.7335,37.2049,100.0111,37.6597Q99.2887,38.1144,98.5141,38.5538Q97.7395,38.9931,96.9146,39.4159Q96.0897,39.8387,95.2164,40.244Q94.3432,40.6493,93.4237,41.036Q92.5043,41.4228,91.5408,41.7901Q90.5773,42.1574,89.5722,42.5044Q88.567,42.8514,87.5226,43.1773Q86.4782,43.5031,85.397,43.807Q84.3158,44.1108,83.2005,44.392Q82.0852,44.6732,80.9384,44.9311Q79.7916,45.1889,78.6162,45.4228Q77.4407,45.6566,76.2393,45.866Q75.038,46.0753,73.8137,46.2595Q72.5894,46.4438,71.3451,46.6026Q70.1008,46.7614,68.8394,46.8943Q67.5781,47.0272,66.3027,47.1339Q65.0274,47.2406,63.7412,47.3208Q62.4549,47.4011,61.1609,47.4547Q59.8668,47.5083,58.5681,47.5352Q57.2693,47.562,55.969,47.562Q54.6687,47.562,53.3699,47.5352Q52.0712,47.5083,50.7771,47.4547Q49.4831,47.4011,48.1968,47.3208Q46.9106,47.2406,45.6353,47.1339Q44.3599,47.0272,43.0986,46.8943Q41.8372,46.7614,40.5929,46.6026Q39.3486,46.4438,38.1243,46.2595Q36.9,46.0753,35.6986,45.866Q34.497299999999996,45.6566,33.321799999999996,45.4228Q32.1464,45.1889,30.9996,44.9311Q29.8528,44.6732,28.7375,44.392Q27.6222,44.1108,26.541,43.807Q25.4598,43.5031,24.4154,43.1773Q23.371,42.8514,22.3658,42.5044Q21.3607,42.1574,20.3972,41.7901Q19.4337,41.4228,18.5143,41.036Q17.5948,40.6493,16.721600000000002,40.244Q15.8483,39.8387,15.0234,39.4159Q14.1985,38.9931,13.4239,38.5538Q12.6493,38.1144,11.92689,37.6597Q11.20447,37.2049,10.535969999999999,36.7357Q9.86748,36.2666,9.25451,35.7842Q8.641549999999999,35.3018,8.08559,34.8073Q7.52963,34.3129,7.03202,33.8076Q6.53442,33.3022,6.09635,32.7872Q5.65829,32.2722,5.28083,31.7488Q4.90337,31.2254,4.58741,30.6948Q4.27146,30.1643,4.01778,29.6278Q3.764105,29.0913,3.573309,28.5503Q3.382513,28.0093,3.25506,27.4649Q3.127607,26.9206,3.0638035,26.3743Q3,25.828,3,25.281Q3,24.734,3.0638035,24.1877Q3.127607,23.6414,3.25506,23.0971Q3.382513,22.5527,3.573309,22.0117Q3.764105,21.4706,4.01778,20.9342Q4.27146,20.3977,4.58741,19.8672Q4.90337,19.3366,5.28083,18.813200000000002Q5.65829,18.2897,6.09635,17.7748Q6.53442,17.2598,7.03202,16.7544Q7.52963,16.2491,8.08559,15.7546Q8.641549999999999,15.2602,9.25451,14.7778Q9.86748,14.2954,10.535969999999999,13.8263Q11.20447,13.3571,11.92689,12.90234Q12.6493,12.44755,13.4239,12.00822Q14.1985,11.56889,15.0234,11.14608Q15.8483,10.72327,16.721600000000002,10.31799Q17.5948,9.91272,18.5143,9.52595Q19.4337,9.13919,20.3972,8.77187Q21.3607,8.40455,22.3658,8.057549999999999Q23.371,7.71056,24.4154,7.38473Q25.4598,7.0589,26.541,6.75502Q27.6222,6.45115,28.7375,6.16995Q29.8528,5.88875,30.9996,5.63091Q32.1464,5.37307,33.321799999999996,5.13921Q34.497299999999996,4.90536,35.6986,4.69604Q36.9,4.48672,38.1243,4.30246Q39.3486,4.11819,40.5929,3.959412Q41.8372,3.800636,43.0986,3.667733Q44.3599,3.534831,45.6353,3.428123Q46.9106,3.321415,48.1968,3.241158Q49.4831,3.160901,50.7771,3.107289Q52.0712,3.0536769,53.3699,3.0268384Q54.6687,3,55.969,3Q57.2693,3,58.5681,3.0268384Q59.8668,3.0536769,61.1609,3.107289Q62.4549,3.160901,63.7412,3.241158Q65.0274,3.321415,66.3027,3.428123Q67.5781,3.534831,68.8394,3.667733Q70.1008,3.800636,71.3451,3.959412Q72.5894,4.11819,73.8137,4.30246Q75.038,4.48672,76.2393,4.69604Q77.4407,4.90536,78.6162,5.13921Q79.7916,5.37307,80.9384,5.63091Q82.0852,5.88875,83.2005,6.16995Q84.3158,6.45115,85.397,6.75502Q86.4782,7.0589,87.5226,7.38473Q88.567,7.71056,89.5722,8.057549999999999Q90.5773,8.40455,91.5408,8.77187Q92.5043,9.13919,93.4237,9.52595Q94.3432,9.91272,95.2164,10.31799Q96.0897,10.72327,96.9146,11.14608Q97.7395,11.56889,98.5141,12.00822Q99.2887,12.44755,100.0111,12.90234Q100.7335,13.3571,101.402,13.8263Q102.0705,14.2954,102.6835,14.7778Q103.296,15.2602,103.852,15.7546Q104.408,16.2491,104.906,16.7544Q105.404,17.2598,105.842,17.7748Q106.28,18.2897,106.657,18.813200000000002Q107.035,19.3366,107.351,19.8672Q107.667,20.3977,107.92,20.9342Q108.174,21.4706,108.365,22.0117Q108.555,22.5527,108.683,23.0971Q108.81,23.6414,108.874,24.1877Q108.938,24.734,108.938,25.281Z" fill="url(#master_svg4_99_2863)" fill-opacity="0.05999999865889549"/><path d="M55.969,0Q64.4237,0,71.9681,0.9506899999999998Q84.5419,2.53526,94.5869,6.76064Q106.901,11.94052,110.476,19.0964Q111.938,22.0234,111.938,25.281Q111.938,28.0865,110.854,30.6468Q107.6,38.3275,94.5869,43.8014Q85.2942,47.7103,73.8372,49.3591Q65.479,50.562,55.969,50.562Q50.3325,50.562,45.1007,50.1394Q29.4052,48.8718,17.351100000000002,43.8014Q0,36.5028,0,25.281Q0,14.0592,17.351100000000002,6.76064Q28.6574,2.004702,43.1674,0.59442Q49.2836,0,55.969,0ZM55.969,47.562Q57.2693,47.562,58.5681,47.5352Q59.8668,47.5083,61.1609,47.4547Q62.4549,47.4011,63.7412,47.3208Q65.0274,47.2406,66.3027,47.1339Q67.5781,47.0272,68.8394,46.8943Q70.1008,46.7614,71.3451,46.6026Q72.5894,46.4438,73.8137,46.2595Q75.038,46.0753,76.2393,45.866Q77.4407,45.6566,78.6162,45.4228Q79.7916,45.1889,80.9384,44.9311Q82.0852,44.6732,83.2005,44.392Q84.3158,44.1108,85.397,43.807Q86.4782,43.5031,87.5226,43.1773Q88.567,42.8514,89.5722,42.5044Q90.5773,42.1574,91.5408,41.7901Q92.5043,41.4228,93.4237,41.036Q94.3432,40.6493,95.2164,40.244Q96.0897,39.8387,96.9146,39.4159Q97.7395,38.9931,98.5141,38.5538Q99.2887,38.1144,100.0111,37.6597Q100.7335,37.2049,101.402,36.7357Q102.0705,36.2666,102.6835,35.7842Q103.296,35.3018,103.852,34.8073Q104.408,34.3129,104.906,33.8076Q105.404,33.3022,105.842,32.7872Q106.28,32.2722,106.657,31.7488Q107.035,31.2254,107.351,30.6948Q107.667,30.1643,107.92,29.6278Q108.174,29.0913,108.365,28.5503Q108.555,28.0093,108.683,27.4649Q108.81,26.9206,108.874,26.3743Q108.938,25.828,108.938,25.281Q108.938,24.734,108.874,24.1877Q108.81,23.6414,108.683,23.0971Q108.555,22.5527,108.365,22.0117Q108.174,21.4706,107.92,20.9342Q107.667,20.3977,107.351,19.8672Q107.035,19.3366,106.657,18.813200000000002Q106.28,18.2897,105.842,17.7748Q105.404,17.2598,104.906,16.7544Q104.408,16.2491,103.852,15.7546Q103.296,15.2602,102.6835,14.7778Q102.0705,14.2954,101.402,13.8263Q100.7335,13.3571,100.0111,12.90234Q99.2887,12.44755,98.5141,12.00822Q97.7395,11.56889,96.9146,11.14608Q96.0897,10.72327,95.2164,10.31799Q94.3432,9.91272,93.4237,9.52595Q92.5043,9.13919,91.5408,8.77187Q90.5773,8.40455,89.5722,8.057549999999999Q88.567,7.71056,87.5226,7.38473Q86.4782,7.0589,85.397,6.75502Q84.3158,6.45115,83.2005,6.16995Q82.0852,5.88875,80.9384,5.63091Q79.7916,5.37307,78.6162,5.13921Q77.4407,4.90536,76.2393,4.69604Q75.038,4.48672,73.8137,4.30246Q72.5894,4.11819,71.3451,3.959412Q70.1008,3.800636,68.8394,3.667733Q67.5781,3.534831,66.3027,3.428123Q65.0274,3.321415,63.7412,3.241158Q62.4549,3.160901,61.1609,3.107289Q59.8668,3.0536769,58.5681,3.0268384Q57.2693,3,55.969,3Q54.6687,3,53.3699,3.0268384Q52.0712,3.0536769,50.7771,3.107289Q49.4831,3.160901,48.1968,3.241158Q46.9106,3.321415,45.6353,3.428123Q44.3599,3.534831,43.0986,3.667733Q41.8372,3.800636,40.5929,3.959412Q39.3486,4.11819,38.1243,4.30246Q36.9,4.48672,35.6986,4.69604Q34.497299999999996,4.90536,33.321799999999996,5.13921Q32.1464,5.37307,30.9996,5.63091Q29.8528,5.88875,28.7375,6.16995Q27.6222,6.45115,26.541,6.75502Q25.4598,7.0589,24.4154,7.38473Q23.371,7.71056,22.3658,8.057549999999999Q21.3607,8.40455,20.3972,8.77187Q19.4337,9.13919,18.5143,9.52595Q17.5948,9.91272,16.721600000000002,10.31799Q15.8483,10.72327,15.0234,11.14608Q14.1985,11.56889,13.4239,12.00822Q12.6493,12.44755,11.92689,12.90234Q11.20447,13.3571,10.535969999999999,13.8263Q9.86748,14.2954,9.25451,14.7778Q8.641549999999999,15.2602,8.08559,15.7546Q7.52963,16.2491,7.03202,16.7544Q6.53442,17.2598,6.09635,17.7748Q5.65829,18.2897,5.28083,18.813200000000002Q4.90337,19.3366,4.58741,19.8672Q4.27146,20.3977,4.01778,20.9342Q3.764105,21.4706,3.573309,22.0117Q3.382513,22.5527,3.25506,23.0971Q3.127607,23.6414,3.0638035,24.1877Q3,24.734,3,25.281Q3,25.828,3.0638035,26.3743Q3.127607,26.9206,3.25506,27.4649Q3.382513,28.0093,3.573309,28.5503Q3.764105,29.0913,4.01778,29.6278Q4.27146,30.1643,4.58741,30.6948Q4.90337,31.2254,5.28083,31.7488Q5.65829,32.2722,6.09635,32.7872Q6.53442,33.3022,7.03202,33.8076Q7.52963,34.3129,8.08559,34.8073Q8.641549999999999,35.3018,9.25451,35.7842Q9.86748,36.2666,10.535969999999999,36.7357Q11.20447,37.2049,11.92689,37.6597Q12.6493,38.1144,13.4239,38.5538Q14.1985,38.9931,15.0234,39.4159Q15.8483,39.8387,16.721600000000002,40.244Q17.5948,40.6493,18.5143,41.036Q19.4337,41.4228,20.3972,41.7901Q21.3607,42.1574,22.3658,42.5044Q23.371,42.8514,24.4154,43.1773Q25.4598,43.5031,26.541,43.807Q27.6222,44.1108,28.7375,44.392Q29.8528,44.6732,30.9996,44.9311Q32.1464,45.1889,33.321799999999996,45.4228Q34.497299999999996,45.6566,35.6986,45.866Q36.9,46.0753,38.1243,46.2595Q39.3486,46.4438,40.5929,46.6026Q41.8372,46.7614,43.0986,46.8943Q44.3599,47.0272,45.6353,47.1339Q46.9106,47.2406,48.1968,47.3208Q49.4831,47.4011,50.7771,47.4547Q52.0712,47.5083,53.3699,47.5352Q54.6687,47.562,55.969,47.562Z" fill-rule="evenodd" fill="url(#master_svg5_99_3156)" fill-opacity="0.029999999329447746"/></g></g></svg>