<svg xmlns="http://www.w3.org/2000/svg" xmlns:xlink="http://www.w3.org/1999/xlink" fill="none" version="1.1" width="170.29443359375" height="36.896484375" viewBox="0 0 170.29443359375 36.896484375"><defs><linearGradient x1="0.5" y1="0" x2="0.5" y2="1" id="master_svg0_5_0627"><stop offset="0%" stop-color="#FFFFFF" stop-opacity="1"/><stop offset="100%" stop-color="#FFFFFF" stop-opacity="0"/></linearGradient><linearGradient x1="0.5" y1="0" x2="0.5" y2="1" id="master_svg1_5_0627"><stop offset="0%" stop-color="#FFFFFF" stop-opacity="1"/><stop offset="100%" stop-color="#FFFFFF" stop-opacity="0"/></linearGradient><linearGradient x1="0.5" y1="0" x2="0.5" y2="1" id="master_svg2_5_0627"><stop offset="0%" stop-color="#FFFFFF" stop-opacity="1"/><stop offset="100%" stop-color="#FFFFFF" stop-opacity="0"/></linearGradient><linearGradient x1="0.5" y1="0" x2="0.5" y2="1" id="master_svg3_5_0627"><stop offset="0%" stop-color="#FFFFFF" stop-opacity="1"/><stop offset="100%" stop-color="#FFFFFF" stop-opacity="0"/></linearGradient><linearGradient x1="0.5" y1="0" x2="0.5" y2="1" id="master_svg4_5_0627"><stop offset="0%" stop-color="#FFFFFF" stop-opacity="1"/><stop offset="100%" stop-color="#FFFFFF" stop-opacity="0"/></linearGradient></defs><g style="opacity:0.41999998688697815;mix-blend-mode:overlay" transform="matrix(1,0,0,-1,0,73.79296875)"><g style="opacity:0.5;"><path d="M115.23104296875,36.896484375C115.23104296875,36.896484375,137.21194296875,36.89648437500005,137.21194296875,36.89648437500005C137.21194296875,36.89648437500005,116.18744296874999,73.792984375,116.18744296874999,73.792984375C116.18744296874999,73.792984375,94.20654296875,73.792984375,94.20654296875,73.792984375C94.20654296875,73.792984375,115.23104296875,36.896484375,115.23104296875,36.896484375C115.23104296875,36.896484375,115.23104296875,36.896484375,115.23104296875,36.896484375Z" fill-rule="evenodd" fill="url(#master_svg0_5_0627)" fill-opacity="1"/></g><g style="opacity:0.4122256338596344;"><path d="M83.82869921875,36.896484375C83.82869921875,36.896484375,105.80959921875001,36.89648437500005,105.80959921875001,36.89648437500005C105.80959921875001,36.89648437500005,84.78509921874999,73.792984375,84.78509921874999,73.792984375C84.78509921874999,73.792984375,62.80419921875,73.792984375,62.80419921875,73.792984375C62.80419921875,73.792984375,83.82869921875,36.896484375,83.82869921875,36.896484375C83.82869921875,36.896484375,83.82869921875,36.896484375,83.82869921875,36.896484375Z" fill-rule="evenodd" fill="url(#master_svg1_5_0627)" fill-opacity="1"/></g><g style="opacity:0.4122256338596344;"><path d="M52.42635546875,36.896484375C52.42635546875,36.896484375,74.40725546875001,36.89648437500004,74.40725546875001,36.89648437500004C74.40725546875001,36.89648437500004,53.38275546875,73.792984375,53.38275546875,73.792984375C53.38275546875,73.792984375,31.40185546875,73.792984375,31.40185546875,73.792984375C31.40185546875,73.792984375,52.42635546875,36.896484375,52.42635546875,36.896484375C52.42635546875,36.896484375,52.42635546875,36.896484375,52.42635546875,36.896484375Z" fill-rule="evenodd" fill="url(#master_svg2_5_0627)" fill-opacity="1"/></g><g style="opacity:0.4122256338596344;"><path d="M20.8376,36.896484375C20.8376,36.896484375,42.5367,36.89648437500004,42.5367,36.89648437500004C42.5367,36.89648437500004,21.6991,73.792984375,21.6991,73.792984375C21.6991,73.792984375,0,73.792984375,0,73.792984375C0,73.792984375,20.8376,36.896484375,20.8376,36.896484375C20.8376,36.896484375,20.8376,36.896484375,20.8376,36.896484375Z" fill-rule="evenodd" fill="url(#master_svg3_5_0627)" fill-opacity="1"/></g><g><path d="M148.59539724121095,36.896484375C148.59539724121095,36.896484375,170.29449724121093,36.896484375000014,170.29449724121093,36.896484375000014C170.29449724121093,36.896484375000014,149.45689724121092,73.792984375,149.45689724121092,73.792984375C149.45689724121092,73.792984375,127.75779724121094,73.792984375,127.75779724121094,73.792984375C127.75779724121094,73.792984375,148.59539724121095,36.896484375,148.59539724121095,36.896484375C148.59539724121095,36.896484375,148.59539724121095,36.896484375,148.59539724121095,36.896484375Z" fill-rule="evenodd" fill="url(#master_svg4_5_0627)" fill-opacity="1"/></g></g></svg>