<svg xmlns="http://www.w3.org/2000/svg" xmlns:xlink="http://www.w3.org/1999/xlink" fill="none" version="1.1" width="16" height="16" viewBox="0 0 16 16"><defs><clipPath id="master_svg0_99_00313"><rect x="0" y="0" width="16" height="16" rx="0"/></clipPath></defs><g clip-path="url(#master_svg0_99_00313)"><g><path d="M2.462651953125,2.462743505859375Q0.583251953125,4.342153505859375,0.583251953125,7.000013505859375Q0.583251953125,9.657873505859374,2.462651953125,11.537243505859376Q4.342061953125,13.416643505859374,6.999921953125,13.416643505859374Q9.657781953125,13.416643505859374,11.537151953125,11.537243505859376Q13.416551953125,9.657873505859374,13.416551953125,7.000013505859375Q13.416551953125,4.342153505859375,11.537151953125,2.462743505859375Q9.657781953125,0.583343505859375,6.999921953125,0.583343505859375Q4.342061953125,0.583343505859375,2.462651953125,2.462743505859375ZM3.523311953125,10.476613505859374Q2.083251953125,9.036553505859375,2.083251953125,7.000013505859375Q2.083251953125,4.963473505859374,3.523311953125,3.523403505859375Q4.963381953124999,2.083343505859375,6.999921953125,2.083343505859375Q9.036461953125,2.083343505859375,10.476521953125,3.523403505859375Q11.916551953125,4.963473505859374,11.916551953125,7.000013505859375Q11.916551953125,9.036553505859375,10.476521953125,10.476613505859374Q9.036461953125,11.916643505859374,6.999921953125,11.916643505859374Q4.963381953124999,11.916643505859374,3.523311953125,10.476613505859374Z" fill-rule="evenodd" fill="#D9E7FF" fill-opacity="1"/></g><g><path d="M5.669966953125,3.518799Q5.056683353125,3.7781919999999998,4.584171953125,4.250703Q4.478682953125,4.356192,4.421591953125,4.494021Q4.364501953125,4.631849,4.364501953125,4.781033Q4.364501953125,4.854902,4.378912953125,4.927351Q4.393323953125,4.9998000000000005,4.421591953125,5.0680499999999995Q4.449860953125,5.13629,4.490899953125,5.19771Q4.531938953125,5.25913,4.584171953125,5.3113600000000005Q4.636404953125,5.3636,4.697823953125,5.4046400000000006Q4.759243953125,5.44567,4.827488953125,5.47394Q4.895734953125,5.50221,4.968183953125,5.51662Q5.040633453125,5.5310299999999994,5.114501953125,5.5310299999999994Q5.263685953125,5.5310299999999994,5.401513953125,5.47394Q5.539342953125,5.41685,5.644831953125,5.3113600000000005Q5.910463953125,5.04573,6.254291953125,4.900309Q6.609661953125,4.75,7.000101953125,4.75Q7.390561953125,4.75,7.745951953125,4.900311Q8.089771953125,5.04573,8.355401953125,5.3113600000000005Q8.460891953125,5.41685,8.598721953125,5.47394Q8.736551953125,5.5310299999999994,8.885731953125,5.5310299999999994Q8.959601953125,5.5310299999999994,9.032051953125,5.51662Q9.104501953125,5.50221,9.172751953125001,5.47394Q9.240991953125,5.44567,9.302411953124999,5.4046400000000006Q9.363831953125,5.3636,9.416061953125,5.3113600000000005Q9.468301953125,5.25913,9.509331953124999,5.19771Q9.550371953125001,5.13629,9.578641953125,5.0680499999999995Q9.606911953125,4.9998000000000005,9.621321953125001,4.927351Q9.635731953125,4.854902,9.635731953125,4.781033Q9.635731953125,4.631849,9.578641953125,4.494021Q9.521551953125,4.356192,9.416061953125,4.250703Q8.943551953125,3.778189,8.330261953125,3.518798Q7.694731953125,3.25,7.000101953125,3.25Q6.305491953125,3.25,5.669966953125,3.518799Z" fill-rule="evenodd" fill="#D9E7FF" fill-opacity="1"/></g><g><path d="M11.604599609375,10.543848056640625L14.432584609375,13.371833056640625L14.432734609375,13.371983056640625Q14.538224609375,13.477473056640624,14.595314609375,13.615303056640625Q14.652404609375,13.753133056640625,14.652404609375,13.902313056640626Q14.652404609375,13.976183056640625,14.637994609375,14.048633056640625Q14.623584609375,14.121083056640625,14.595314609375,14.189333056640624Q14.567044609375,14.257573056640625,14.526014609375,14.318993056640625Q14.484974609375,14.380413056640625,14.432734609375,14.432643056640625Q14.380504609375,14.484883056640625,14.319084609375,14.525923056640625Q14.257664609375,14.566953056640624,14.189424609375,14.595223056640625Q14.121174609375,14.623493056640624,14.048724609375,14.637903056640624Q13.976274609375,14.652313056640626,13.902404609375,14.652313056640626Q13.753224609375,14.652313056640626,13.615394609375,14.595223056640625Q13.477564609375,14.538133056640625,13.372074609375,14.432643056640625L13.371924609375,14.432493056640626L10.543939609375,11.604508056640626L10.543644609375,11.604213056640624Q10.438155609375,11.498724056640626,10.381064609375,11.360896056640625Q10.323974609375,11.223067056640625,10.323974609375,11.073883056640625Q10.323974609375,11.000014556640625,10.338385609374999,10.927565056640624Q10.352796609375,10.855116056640625,10.381064609375,10.786870056640625Q10.409333609375,10.718625056640626,10.450372609375,10.657205056640626Q10.491411609375,10.595786056640625,10.543644609375,10.543553056640626Q10.595877609375,10.491320056640625,10.657296609375,10.450281056640625Q10.718716609375,10.409242056640625,10.786961609375,10.380973056640626Q10.855207609375,10.352705056640625,10.927656609375,10.338294056640624Q11.000106109375,10.323883056640625,11.073974609375,10.323883056640625Q11.223158609375,10.323883056640625,11.360987609375,10.380973056640626Q11.498815609375,10.438064056640625,11.604304609375,10.543553056640626L11.604599609375,10.543848056640625Z" fill-rule="evenodd" fill="#D9E7FF" fill-opacity="1"/></g></g></svg>