<svg xmlns="http://www.w3.org/2000/svg" xmlns:xlink="http://www.w3.org/1999/xlink" fill="none" version="1.1" width="136.57655107975006" height="33.47475588321686" viewBox="0 0 136.57655107975006 33.47475588321686"><defs><linearGradient x1="0.5" y1="0" x2="0.5" y2="1" id="master_svg0_56_2511"><stop offset="0%" stop-color="#147595" stop-opacity="0.550000011920929"/><stop offset="100%" stop-color="#0C354A" stop-opacity="0"/></linearGradient><linearGradient x1="-0.015247004106640816" y1="0.5" x2="1" y2="0.5" id="master_svg1_56_2150"><stop offset="0%" stop-color="#4ED8D8" stop-opacity="0.27000001072883606"/><stop offset="57.85714387893677%" stop-color="#B2FAFF" stop-opacity="1"/><stop offset="100%" stop-color="#40DEEA" stop-opacity="0.3700000047683716"/></linearGradient></defs><g transform="matrix(-1,0,0,1,271.92909014225006,0)"><path d="M135.96454507112503,27.02210600862503L138.50401507112502,32.86270600862503L248.96954507112503,32.86270600862503L271.31754507112504,6.960376008625031L269.03154507112504,0.6120060086250305L157.29634507112502,0.6120060086250305L135.96454507112503,27.02210600862503Z" fill="url(#master_svg0_56_2511)" fill-opacity="1"/><path d="M272.013545071125,7.089456008625031L269.46154507112504,8.62503046761276e-9L157.00394507112503,8.62503046761276e-9L135.25542707112504,26.92600600862503L138.10275507112502,33.47480600862503L249.25054507112503,33.47480600862503L272.013545071125,7.089456008625031ZM268.60154507112503,1.2240120086250306L270.62054507112504,6.831286008625031L248.68954507112502,32.25070600862503L138.90526507112503,32.25070600862503L136.67366307112502,27.11820600862503L157.58864507112503,1.2240120086250306L268.60154507112503,1.2240120086250306Z" fill-rule="evenodd" fill="url(#master_svg1_56_2150)" fill-opacity="1"/></g></svg>